<?xml version="1.0" encoding="utf-8"?>
<!-- Generator: Adobe Illustrator 18.0.0, SVG Export Plug-In . SVG Version: 6.00 Build 0)  -->
<!DOCTYPE svg PUBLIC "-//W3C//DTD SVG 1.1//EN" "http://www.w3.org/Graphics/SVG/1.1/DTD/svg11.dtd">
<svg version="1.1" id="Layer_1" xmlns="http://www.w3.org/2000/svg" xmlns:xlink="http://www.w3.org/1999/xlink" x="0px" y="0px"
	 viewBox="0 0 400 800" enable-background="new 0 0 400 800" xml:space="preserve">
<g>
	<g id="XMLID_1_">
		<g>
			<rect x="325.5" y="671.5" fill="#321A00" width="25" height="25"/>
			<rect x="325.5" y="645.5" fill="#321A00" width="25" height="26"/>
			<rect x="325.5" y="542.5" fill="#767500" width="25" height="25"/>
			<rect x="325.5" y="516.5" fill="#767500" width="25" height="26"/>
			<rect x="325.5" y="490.5" fill="#767500" width="25" height="26"/>
			<rect x="325.5" y="464.5" fill="#767500" width="25" height="26"/>
			<rect x="325.5" y="438.5" fill="#767500" width="25" height="26"/>
			<rect x="325.5" y="412.5" fill="#767500" width="25" height="26"/>
			<rect x="325.5" y="387.5" fill="#767500" width="25" height="25"/>
			<rect x="300.5" y="696.5" fill="#321A00" width="25" height="26"/>
			<rect x="300.5" y="671.5" fill="#321A00" width="25" height="25"/>
			<rect x="300.5" y="645.5" fill="#321A00" width="25" height="26"/>
			<rect x="300.5" y="619.5" fill="#767500" width="25" height="26"/>
			<rect x="300.5" y="593.5" fill="#767500" width="25" height="26"/>
			<rect x="300.5" y="567.5" fill="#767500" width="25" height="26"/>
			<rect x="300.5" y="542.5" fill="#767500" width="25" height="25"/>
			<rect x="300.5" y="516.5" fill="#767500" width="25" height="26"/>
			<rect x="300.5" y="490.5" fill="#767500" width="25" height="26"/>
			<rect x="300.5" y="464.5" fill="#767500" width="25" height="26"/>
			<rect x="300.5" y="438.5" fill="#767500" width="25" height="26"/>
			<rect x="300.5" y="412.5" fill="#767500" width="25" height="26"/>
			<rect x="300.5" y="387.5" fill="#767500" width="25" height="25"/>
			<rect x="300.5" y="361.5" fill="#767500" width="25" height="26"/>
			<rect x="300.5" y="335.5" fill="#767500" width="25" height="26"/>
			<rect x="275.5" y="696.5" fill="#321A00" width="25" height="26"/>
			<rect x="275.5" y="671.5" fill="#321A00" width="25" height="25"/>
			<rect x="275.5" y="645.5" fill="#767500" width="25" height="26"/>
			<rect x="275.5" y="619.5" fill="#767500" width="25" height="26"/>
			<rect x="275.5" y="593.5" fill="#767500" width="25" height="26"/>
			<rect x="275.5" y="567.5" fill="#767500" width="25" height="26"/>
			<rect x="275.5" y="542.5" fill="#767500" width="25" height="25"/>
			<rect x="275.5" y="516.5" fill="#00C5E3" width="25" height="26"/>
			<rect x="275.5" y="490.5" fill="#00C5E3" width="25" height="26"/>
			<rect x="275.5" y="464.5" fill="#767500" width="25" height="26"/>
			<rect x="275.5" y="438.5" fill="#00C5E3" width="25" height="26"/>
			<rect x="275.5" y="412.5" fill="#00C5E3" width="25" height="26"/>
			<rect x="275.5" y="387.5" fill="#767500" width="25" height="25"/>
			<rect x="275.5" y="361.5" fill="#767500" width="25" height="26"/>
			<rect x="275.5" y="335.5" fill="#767500" width="25" height="26"/>
			<rect x="275.5" y="309.5" fill="#767500" width="25" height="26"/>
			<rect x="275.5" y="283.5" fill="#999999" width="25" height="26"/>
			<rect x="250.5" y="696.5" fill="#321A00" width="25" height="26"/>
			<rect x="250.5" y="671.5" fill="#321A00" width="25" height="25"/>
			<rect x="250.5" y="645.5" fill="#767500" width="25" height="26"/>
			<rect x="250.5" y="619.5" fill="#767500" width="25" height="26"/>
			<rect x="250.5" y="593.5" fill="#00C5E3" width="25" height="26"/>
			<rect x="250.5" y="567.5" fill="#00C5E3" width="25" height="26"/>
			<rect x="250.5" y="542.5" fill="#767500" width="25" height="25"/>
			<rect x="250.5" y="516.5" fill="#00C5E3" width="25" height="26"/>
			<rect x="250.5" y="490.5" fill="#00C5E3" width="25" height="26"/>
			<rect x="250.5" y="464.5" fill="#767500" width="25" height="26"/>
			<rect x="250.5" y="438.5" fill="#00C5E3" width="25" height="26"/>
			<rect x="250.5" y="412.5" fill="#00C5E3" width="25" height="26"/>
			<rect x="250.5" y="387.5" fill="#767500" width="25" height="25"/>
			<rect x="250.5" y="361.5" fill="#767500" width="25" height="26"/>
			<rect x="250.5" y="335.5" fill="#767500" width="25" height="26"/>
			<rect x="250.5" y="309.5" fill="#999999" width="25" height="26"/>
			<rect x="250.5" y="283.5" fill="#999999" width="25" height="26"/>
			<rect x="250.5" y="258.5" fill="#999999" width="25" height="25"/>
			<rect x="225.5" y="696.5" fill="#321A00" width="25" height="26"/>
			<rect x="225.5" y="671.5" fill="#767500" width="25" height="25"/>
			<rect x="225.5" y="645.5" fill="#767500" width="25" height="26"/>
			<rect x="225.5" y="619.5" fill="#767500" width="25" height="26"/>
			<rect x="225.5" y="593.5" fill="#00C5E3" width="25" height="26"/>
			<rect x="225.5" y="567.5" fill="#00C5E3" width="25" height="26"/>
			<rect x="225.5" y="542.5" fill="#767500" width="25" height="25"/>
			<rect x="225.5" y="516.5" fill="#767500" width="25" height="26"/>
			<rect x="225.5" y="490.5" fill="#767500" width="25" height="26"/>
			<rect x="225.5" y="464.5" fill="#767500" width="25" height="26"/>
			<rect x="225.5" y="438.5" fill="#767500" width="25" height="26"/>
			<rect x="225.5" y="412.5" fill="#767500" width="25" height="26"/>
			<rect x="225.5" y="387.5" fill="#767500" width="25" height="25"/>
			<rect x="225.5" y="361.5" fill="#767500" width="25" height="26"/>
			<rect x="225.5" y="335.5" fill="#999999" width="25" height="26"/>
			<rect x="225.5" y="309.5" fill="#999999" width="25" height="26"/>
			<rect x="225.5" y="283.5" fill="#999999" width="25" height="26"/>
			<rect x="225.5" y="258.5" fill="#999999" width="25" height="25"/>
			<rect x="200.5" y="696.5" fill="#321A00" width="25" height="26"/>
			<rect x="200.5" y="671.5" fill="#321A00" width="25" height="25"/>
			<rect x="200.5" y="645.5" fill="#00C5E3" width="25" height="26"/>
			<rect x="200.5" y="619.5" fill="#767500" width="25" height="26"/>
			<rect x="200.5" y="593.5" fill="#767500" width="25" height="26"/>
			<rect x="200.5" y="567.5" fill="#767500" width="25" height="26"/>
			<rect x="200.5" y="542.5" fill="#767500" width="25" height="25"/>
			<rect x="200.5" y="516.5" fill="#767500" width="25" height="26"/>
			<rect x="200.5" y="490.5" fill="#767500" width="25" height="26"/>
			<rect x="200.5" y="464.5" fill="#767500" width="25" height="26"/>
			<rect x="200.5" y="438.5" fill="#767500" width="25" height="26"/>
			<rect x="200.5" y="412.5" fill="#767500" width="25" height="26"/>
			<rect x="200.5" y="387.5" fill="#767500" width="25" height="25"/>
			<rect x="200.5" y="361.5" fill="#999999" width="25" height="26"/>
			<rect x="200.5" y="335.5" fill="#999999" width="25" height="26"/>
			<rect x="200.5" y="258.5" fill="#999999" width="25" height="25"/>
			<rect x="175.5" y="696.5" fill="#321A00" width="25" height="26"/>
			<rect x="175.5" y="671.5" fill="#321A00" width="25" height="25"/>
			<rect x="175.5" y="645.5" fill="#00C5E3" width="25" height="26"/>
			<rect x="175.5" y="619.5" fill="#767500" width="25" height="26"/>
			<rect x="175.5" y="593.5" fill="#767500" width="25" height="26"/>
			<rect x="175.5" y="567.5" fill="#767500" width="25" height="26"/>
			<rect x="175.5" y="412.5" fill="#767500" width="25" height="26"/>
			<rect x="175.5" y="387.5" fill="#999999" width="25" height="25"/>
			<rect x="175.5" y="335.5" fill="#999999" width="25" height="26"/>
			<rect x="175.5" y="309.5" fill="#999999" width="25" height="26"/>
			<rect x="150.5" y="696.5" fill="#321A00" width="25" height="26"/>
			<rect x="150.5" y="671.5" fill="#321A00" width="25" height="25"/>
			<rect x="150.5" y="645.5" fill="#767500" width="25" height="26"/>
			<rect x="150.5" y="619.5" fill="#767500" width="25" height="26"/>
			<rect x="150.5" y="593.5" fill="#767500" width="25" height="26"/>
			<rect x="150.5" y="412.5" fill="#999999" width="25" height="26"/>
			<rect x="150.5" y="387.5" fill="#999999" width="25" height="25"/>
			<rect x="150.5" y="309.5" fill="#999999" width="25" height="26"/>
			<rect x="125.5" y="696.5" fill="#321A00" width="25" height="26"/>
			<rect x="125.5" y="671.5" fill="#767500" width="25" height="25"/>
			<rect x="125.5" y="645.5" fill="#767500" width="25" height="26"/>
			<rect x="125.5" y="619.5" fill="#767500" width="25" height="26"/>
			<rect x="125.5" y="593.5" fill="#767500" width="25" height="26"/>
			<rect x="125.5" y="387.5" fill="#999999" width="25" height="25"/>
			<rect x="125.5" y="361.5" fill="#999999" width="25" height="26"/>
			<rect x="100.5" y="696.5" fill="#321A00" width="25" height="26"/>
			<rect x="100.5" y="671.5" fill="#321A00" width="25" height="25"/>
			<rect x="100.5" y="645.5" fill="#767500" width="25" height="26"/>
			<rect x="100.5" y="619.5" fill="#321A00" width="25" height="26"/>
			<rect x="75.5" y="696.5" fill="#321A00" width="25" height="26"/>
			<rect x="75.5" y="671.5" fill="#321A00" width="25" height="25"/>
			<rect x="75.5" y="645.5" fill="#321A00" width="25" height="26"/>
			<rect x="75.5" y="619.5" fill="#321A00" width="25" height="26"/>
			<rect x="50.5" y="645.5" fill="#321A00" width="25" height="26"/>
		</g>
		<g>
		</g>
	</g>
</g>
</svg>
