<?xml version="1.0" encoding="utf-8"?>
<!-- Generator: Adobe Illustrator 18.0.0, SVG Export Plug-In . SVG Version: 6.00 Build 0)  -->
<!DOCTYPE svg PUBLIC "-//W3C//DTD SVG 1.1//EN" "http://www.w3.org/Graphics/SVG/1.1/DTD/svg11.dtd">
<svg version="1.1" xmlns="http://www.w3.org/2000/svg" xmlns:xlink="http://www.w3.org/1999/xlink" x="0px" y="0px"
	 viewBox="0 0 400 800" enable-background="new 0 0 400 800" xml:space="preserve">
<g id="Layer_1">
	<g>
		<g id="XMLID_1_">
			<g>
				<rect x="350.5" y="438" fill="#808080" width="25" height="26"/>
				<rect x="350.5" y="412" fill="#808080" width="25" height="26"/>
				<rect x="350.5" y="387" fill="#808080" width="25" height="25"/>
				<rect x="350.5" y="361" fill="#808080" width="25" height="26"/>
				<rect x="325.5" y="671" fill="#321A00" width="25" height="25"/>
				<rect x="325.5" y="645" fill="#321A00" width="25" height="26"/>
				<rect x="325.5" y="542" fill="#767500" width="25" height="25"/>
				<rect x="325.5" y="516" fill="#767500" width="25" height="26"/>
				<rect x="325.5" y="490" fill="#767500" width="25" height="26"/>
				<rect x="325.5" y="464" fill="#767500" width="25" height="26"/>
				<rect x="325.5" y="438" fill="#808080" width="25" height="26"/>
				<rect x="325.5" y="412" fill="#808080" width="25" height="26"/>
				<rect x="300.5" y="696" fill="#321A00" width="25" height="26"/>
				<rect x="300.5" y="671" fill="#321A00" width="25" height="25"/>
				<rect x="300.5" y="645" fill="#321A00" width="25" height="26"/>
				<rect x="300.5" y="619" fill="#767500" width="25" height="26"/>
				<rect x="300.5" y="593" fill="#767500" width="25" height="26"/>
				<rect x="300.5" y="567" fill="#767500" width="25" height="26"/>
				<rect x="300.5" y="542" fill="#767500" width="25" height="25"/>
				<rect x="300.5" y="516" fill="#767500" width="25" height="26"/>
				<rect x="300.5" y="490" fill="#767500" width="25" height="26"/>
				<rect x="300.5" y="464" fill="#767500" width="25" height="26"/>
				<rect x="300.5" y="438" fill="#767500" width="25" height="26"/>
				<rect x="275.5" y="696" fill="#321A00" width="25" height="26"/>
				<rect x="275.5" y="671" fill="#321A00" width="25" height="25"/>
				<rect x="275.5" y="645" fill="#767500" width="25" height="26"/>
				<rect x="275.5" y="619" fill="#767500" width="25" height="26"/>
				<rect x="275.5" y="593" fill="#767500" width="25" height="26"/>
				<rect x="275.5" y="567" fill="#767500" width="25" height="26"/>
				<rect x="275.5" y="542" fill="#767500" width="25" height="25"/>
				<rect x="275.5" y="516" fill="#00C5E3" width="25" height="26"/>
				<rect x="275.5" y="490" fill="#00C5E3" width="25" height="26"/>
				<rect x="275.5" y="464" fill="#767500" width="25" height="26"/>
				<rect x="275.5" y="438" fill="#767500" width="25" height="26"/>
				<rect x="275.5" y="412" fill="#808080" width="25" height="26"/>
				<rect x="275.5" y="387" fill="#808080" width="25" height="25"/>
				<rect x="275.5" y="361" fill="#808080" width="25" height="26"/>
				<rect x="250.5" y="696" fill="#321A00" width="25" height="26"/>
				<rect x="250.5" y="671" fill="#321A00" width="25" height="25"/>
				<rect x="250.5" y="645" fill="#767500" width="25" height="26"/>
				<rect x="250.5" y="619" fill="#767500" width="25" height="26"/>
				<rect x="250.5" y="593" fill="#00C5E3" width="25" height="26"/>
				<rect x="250.5" y="567" fill="#00C5E3" width="25" height="26"/>
				<rect x="250.5" y="542" fill="#767500" width="25" height="25"/>
				<rect x="250.5" y="516" fill="#00C5E3" width="25" height="26"/>
				<rect x="250.5" y="490" fill="#00C5E3" width="25" height="26"/>
				<rect x="250.5" y="464" fill="#767500" width="25" height="26"/>
				<rect x="250.5" y="438" fill="#767500" width="25" height="26"/>
				<rect x="250.5" y="412" fill="#808080" width="25" height="26"/>
				<rect x="250.5" y="387" fill="#808080" width="25" height="25"/>
				<rect x="250.5" y="361" fill="#808080" width="25" height="26"/>
				<rect x="250.5" y="335" fill="#808080" width="25" height="26"/>
				<rect x="225.5" y="696" fill="#321A00" width="25" height="26"/>
				<rect x="225.5" y="671" fill="#767500" width="25" height="25"/>
				<rect x="225.5" y="645" fill="#767500" width="25" height="26"/>
				<rect x="225.5" y="619" fill="#767500" width="25" height="26"/>
				<rect x="225.5" y="593" fill="#00C5E3" width="25" height="26"/>
				<rect x="225.5" y="567" fill="#00C5E3" width="25" height="26"/>
				<rect x="225.5" y="542" fill="#767500" width="25" height="25"/>
				<rect x="225.5" y="516" fill="#767500" width="25" height="26"/>
				<rect x="225.5" y="490" fill="#767500" width="25" height="26"/>
				<rect x="225.5" y="464" fill="#767500" width="25" height="26"/>
				<rect x="225.5" y="438" fill="#767500" width="25" height="26"/>
				<rect x="225.5" y="412" fill="#808080" width="25" height="26"/>
				<rect x="225.5" y="335" fill="#808080" width="25" height="26"/>
				<rect x="200.5" y="696" fill="#321A00" width="25" height="26"/>
				<rect x="200.5" y="671" fill="#321A00" width="25" height="25"/>
				<rect x="200.5" y="645" fill="#00C5E3" width="25" height="26"/>
				<rect x="200.5" y="619" fill="#767500" width="25" height="26"/>
				<rect x="200.5" y="593" fill="#767500" width="25" height="26"/>
				<rect x="200.5" y="567" fill="#767500" width="25" height="26"/>
				<rect x="200.5" y="542" fill="#767500" width="25" height="25"/>
				<rect x="200.5" y="516" fill="#767500" width="25" height="26"/>
				<rect x="200.5" y="490" fill="#767500" width="25" height="26"/>
				<rect x="200.5" y="464" fill="#767500" width="25" height="26"/>
				<rect x="200.5" y="438" fill="#767500" width="25" height="26"/>
				<rect x="175.5" y="696" fill="#321A00" width="25" height="26"/>
				<rect x="175.5" y="671" fill="#321A00" width="25" height="25"/>
				<rect x="175.5" y="645" fill="#00C5E3" width="25" height="26"/>
				<rect x="175.5" y="619" fill="#767500" width="25" height="26"/>
				<rect x="175.5" y="593" fill="#767500" width="25" height="26"/>
				<rect x="175.5" y="567" fill="#767500" width="25" height="26"/>
				<rect x="175.5" y="438" fill="#808080" width="25" height="26"/>
				<rect x="175.5" y="412" fill="#808080" width="25" height="26"/>
				<rect x="175.5" y="387" fill="#808080" width="25" height="25"/>
				<rect x="150.5" y="696" fill="#321A00" width="25" height="26"/>
				<rect x="150.5" y="671" fill="#321A00" width="25" height="25"/>
				<rect x="150.5" y="645" fill="#767500" width="25" height="26"/>
				<rect x="150.5" y="619" fill="#767500" width="25" height="26"/>
				<rect x="150.5" y="593" fill="#767500" width="25" height="26"/>
				<rect x="150.5" y="412" fill="#808080" width="25" height="26"/>
				<rect x="150.5" y="387" fill="#808080" width="25" height="25"/>
				<rect x="150.5" y="361" fill="#808080" width="25" height="26"/>
				<rect x="125.5" y="696" fill="#321A00" width="25" height="26"/>
				<rect x="125.5" y="671" fill="#767500" width="25" height="25"/>
				<rect x="125.5" y="645" fill="#767500" width="25" height="26"/>
				<rect x="125.5" y="619" fill="#767500" width="25" height="26"/>
				<rect x="125.5" y="593" fill="#767500" width="25" height="26"/>
				<rect x="100.5" y="696" fill="#321A00" width="25" height="26"/>
				<rect x="100.5" y="671" fill="#321A00" width="25" height="25"/>
				<rect x="100.5" y="645" fill="#767500" width="25" height="26"/>
				<rect x="100.5" y="619" fill="#321A00" width="25" height="26"/>
				<rect x="75.5" y="696" fill="#321A00" width="25" height="26"/>
				<rect x="75.5" y="671" fill="#321A00" width="25" height="25"/>
				<rect x="75.5" y="645" fill="#321A00" width="25" height="26"/>
				<rect x="75.5" y="619" fill="#321A00" width="25" height="26"/>
				<rect x="50.5" y="645" fill="#321A00" width="25" height="26"/>
			</g>
			<g>
			</g>
		</g>
	</g>
</g>
<g id="Layer_1_copy">
	<g>
		<g id="XMLID_2_">
			<g>
				<rect x="2124.8" y="-297.1" fill="#808080" width="25" height="26"/>
				<rect x="2124.8" y="-323.1" fill="#808080" width="25" height="26"/>
				<rect x="2124.8" y="-348.1" fill="#808080" width="25" height="25"/>
				<rect x="2124.8" y="-374.1" fill="#808080" width="25" height="26"/>
				<rect x="2099.8" y="-64.1" fill="#321A00" width="25" height="25"/>
				<rect x="2099.8" y="-90.1" fill="#321A00" width="25" height="26"/>
				<rect x="2099.8" y="-193.1" fill="#767500" width="25" height="25"/>
				<rect x="2099.8" y="-219.1" fill="#767500" width="25" height="26"/>
				<rect x="2099.8" y="-245.1" fill="#767500" width="25" height="26"/>
				<rect x="2099.8" y="-271.1" fill="#767500" width="25" height="26"/>
				<rect x="2099.8" y="-297.1" fill="#808080" width="25" height="26"/>
				<rect x="2099.8" y="-323.1" fill="#808080" width="25" height="26"/>
				<rect x="2074.8" y="-39.1" fill="#321A00" width="25" height="26"/>
				<rect x="2074.8" y="-64.1" fill="#321A00" width="25" height="25"/>
				<rect x="2074.8" y="-90.1" fill="#321A00" width="25" height="26"/>
				<rect x="2074.8" y="-116.1" fill="#767500" width="25" height="26"/>
				<rect x="2074.8" y="-142.1" fill="#767500" width="25" height="26"/>
				<rect x="2074.8" y="-168.1" fill="#767500" width="25" height="26"/>
				<rect x="2074.8" y="-193.1" fill="#767500" width="25" height="25"/>
				<rect x="2074.8" y="-219.1" fill="#767500" width="25" height="26"/>
				<rect x="2074.8" y="-245.1" fill="#767500" width="25" height="26"/>
				<rect x="2074.8" y="-271.1" fill="#767500" width="25" height="26"/>
				<rect x="2074.8" y="-297.1" fill="#767500" width="25" height="26"/>
				<rect x="2049.8" y="-39.1" fill="#321A00" width="25" height="26"/>
				<rect x="2049.8" y="-64.1" fill="#321A00" width="25" height="25"/>
				<rect x="2049.8" y="-90.1" fill="#767500" width="25" height="26"/>
				<rect x="2049.8" y="-116.1" fill="#767500" width="25" height="26"/>
				<rect x="2049.8" y="-142.1" fill="#767500" width="25" height="26"/>
				<rect x="2049.8" y="-168.1" fill="#767500" width="25" height="26"/>
				<rect x="2049.8" y="-193.1" fill="#767500" width="25" height="25"/>
				<rect x="2049.8" y="-219.1" fill="#00C5E3" width="25" height="26"/>
				<rect x="2049.8" y="-245.1" fill="#00C5E3" width="25" height="26"/>
				<rect x="2049.8" y="-271.1" fill="#767500" width="25" height="26"/>
				<rect x="2049.8" y="-297.1" fill="#767500" width="25" height="26"/>
				<rect x="2049.8" y="-323.1" fill="#808080" width="25" height="26"/>
				<rect x="2049.8" y="-348.1" fill="#808080" width="25" height="25"/>
				<rect x="2049.8" y="-374.1" fill="#808080" width="25" height="26"/>
				<rect x="2024.8" y="-39.1" fill="#321A00" width="25" height="26"/>
				<rect x="2024.8" y="-64.1" fill="#321A00" width="25" height="25"/>
				<rect x="2024.8" y="-90.1" fill="#767500" width="25" height="26"/>
				<rect x="2024.8" y="-116.1" fill="#767500" width="25" height="26"/>
				<rect x="2024.8" y="-142.1" fill="#00C5E3" width="25" height="26"/>
				<rect x="2024.8" y="-168.1" fill="#00C5E3" width="25" height="26"/>
				<rect x="2024.8" y="-193.1" fill="#767500" width="25" height="25"/>
				<rect x="2024.8" y="-219.1" fill="#00C5E3" width="25" height="26"/>
				<rect x="2024.8" y="-245.1" fill="#00C5E3" width="25" height="26"/>
				<rect x="2024.8" y="-271.1" fill="#767500" width="25" height="26"/>
				<rect x="2024.8" y="-297.1" fill="#767500" width="25" height="26"/>
				<rect x="2024.8" y="-323.1" fill="#808080" width="25" height="26"/>
				<rect x="2024.8" y="-348.1" fill="#808080" width="25" height="25"/>
				<rect x="2024.8" y="-374.1" fill="#808080" width="25" height="26"/>
				<rect x="2024.8" y="-400.1" fill="#808080" width="25" height="26"/>
				<rect x="1999.8" y="-39.1" fill="#321A00" width="25" height="26"/>
				<rect x="1999.8" y="-64.1" fill="#767500" width="25" height="25"/>
				<rect x="1999.8" y="-90.1" fill="#767500" width="25" height="26"/>
				<rect x="1999.8" y="-116.1" fill="#767500" width="25" height="26"/>
				<rect x="1999.8" y="-142.1" fill="#00C5E3" width="25" height="26"/>
				<rect x="1999.8" y="-168.1" fill="#00C5E3" width="25" height="26"/>
				<rect x="1999.8" y="-193.1" fill="#767500" width="25" height="25"/>
				<rect x="1999.8" y="-219.1" fill="#767500" width="25" height="26"/>
				<rect x="1999.8" y="-245.1" fill="#767500" width="25" height="26"/>
				<rect x="1999.8" y="-271.1" fill="#767500" width="25" height="26"/>
				<rect x="1999.8" y="-297.1" fill="#767500" width="25" height="26"/>
				<rect x="1999.8" y="-323.1" fill="#808080" width="25" height="26"/>
				<rect x="1999.8" y="-400.1" fill="#808080" width="25" height="26"/>
				<rect x="1974.8" y="-39.1" fill="#321A00" width="25" height="26"/>
				<rect x="1974.8" y="-64.1" fill="#321A00" width="25" height="25"/>
				<rect x="1974.8" y="-90.1" fill="#00C5E3" width="25" height="26"/>
				<rect x="1974.8" y="-116.1" fill="#767500" width="25" height="26"/>
				<rect x="1974.8" y="-142.1" fill="#767500" width="25" height="26"/>
				<rect x="1974.8" y="-168.1" fill="#767500" width="25" height="26"/>
				<rect x="1974.8" y="-193.1" fill="#767500" width="25" height="25"/>
				<rect x="1974.8" y="-219.1" fill="#767500" width="25" height="26"/>
				<rect x="1974.8" y="-245.1" fill="#767500" width="25" height="26"/>
				<rect x="1974.8" y="-271.1" fill="#767500" width="25" height="26"/>
				<rect x="1974.8" y="-297.1" fill="#767500" width="25" height="26"/>
				<rect x="1949.8" y="-39.1" fill="#321A00" width="25" height="26"/>
				<rect x="1949.8" y="-64.1" fill="#321A00" width="25" height="25"/>
				<rect x="1949.8" y="-90.1" fill="#00C5E3" width="25" height="26"/>
				<rect x="1949.8" y="-116.1" fill="#767500" width="25" height="26"/>
				<rect x="1949.8" y="-142.1" fill="#767500" width="25" height="26"/>
				<rect x="1949.8" y="-168.1" fill="#767500" width="25" height="26"/>
				<rect x="1949.8" y="-297.1" fill="#808080" width="25" height="26"/>
				<rect x="1949.8" y="-323.1" fill="#808080" width="25" height="26"/>
				<rect x="1949.8" y="-348.1" fill="#808080" width="25" height="25"/>
				<rect x="1924.8" y="-39.1" fill="#321A00" width="25" height="26"/>
				<rect x="1924.8" y="-64.1" fill="#321A00" width="25" height="25"/>
				<rect x="1924.8" y="-90.1" fill="#767500" width="25" height="26"/>
				<rect x="1924.8" y="-116.1" fill="#767500" width="25" height="26"/>
				<rect x="1924.8" y="-142.1" fill="#767500" width="25" height="26"/>
				<rect x="1924.8" y="-323.1" fill="#808080" width="25" height="26"/>
				<rect x="1924.8" y="-348.1" fill="#808080" width="25" height="25"/>
				<rect x="1924.8" y="-374.1" fill="#808080" width="25" height="26"/>
				<rect x="1899.8" y="-39.1" fill="#321A00" width="25" height="26"/>
				<rect x="1899.8" y="-64.1" fill="#767500" width="25" height="25"/>
				<rect x="1899.8" y="-90.1" fill="#767500" width="25" height="26"/>
				<rect x="1899.8" y="-116.1" fill="#767500" width="25" height="26"/>
				<rect x="1899.8" y="-142.1" fill="#767500" width="25" height="26"/>
				<rect x="1874.8" y="-39.1" fill="#321A00" width="25" height="26"/>
				<rect x="1874.8" y="-64.1" fill="#321A00" width="25" height="25"/>
				<rect x="1874.8" y="-90.1" fill="#767500" width="25" height="26"/>
				<rect x="1874.8" y="-116.1" fill="#321A00" width="25" height="26"/>
				<rect x="1849.8" y="-39.1" fill="#321A00" width="25" height="26"/>
				<rect x="1849.8" y="-64.1" fill="#321A00" width="25" height="25"/>
				<rect x="1849.8" y="-90.1" fill="#321A00" width="25" height="26"/>
				<rect x="1849.8" y="-116.1" fill="#321A00" width="25" height="26"/>
				<rect x="1824.8" y="-90.1" fill="#321A00" width="25" height="26"/>
			</g>
			<g>
			</g>
		</g>
	</g>
</g>
</svg>
