<?xml version="1.0" encoding="utf-8"?>
<!-- Generator: Adobe Illustrator 18.0.0, SVG Export Plug-In . SVG Version: 6.00 Build 0)  -->
<!DOCTYPE svg PUBLIC "-//W3C//DTD SVG 1.1//EN" "http://www.w3.org/Graphics/SVG/1.1/DTD/svg11.dtd">
<svg version="1.1" id="Layer_1" xmlns="http://www.w3.org/2000/svg" xmlns:xlink="http://www.w3.org/1999/xlink" x="0px" y="0px"
	 viewBox="0 0 400 400" enable-background="new 0 0 400 400" xml:space="preserve">
<g>
	<g id="XMLID_1_">
		<g>
			<rect x="374.5" y="257.5" width="12" height="13"/>
			<rect x="374.5" y="244.5" width="12" height="13"/>
			<rect x="374.5" y="180.5" fill="#FFFF00" width="12" height="13"/>
			<rect x="374.5" y="167.5" fill="#FFFF00" width="12" height="13"/>
			<rect x="374.5" y="154.5" fill="#FFFF00" width="12" height="13"/>
			<rect x="374.5" y="76.5" fill="#FFFF00" width="12" height="13"/>
			<rect x="374.5" y="64.5" fill="#FFFF00" width="12" height="12"/>
			<rect x="361.5" y="322.5" fill="#FFFF00" width="13" height="12"/>
			<rect x="361.5" y="309.5" fill="#FFFF00" width="13" height="13"/>
			<rect x="361.5" y="296.5" fill="#FFFF00" width="13" height="13"/>
			<rect x="361.5" y="270.5" width="13" height="13"/>
			<rect x="361.5" y="257.5" fill="#0000FF" width="13" height="13"/>
			<rect x="361.5" y="244.5" fill="#0000FF" width="13" height="13"/>
			<rect x="361.5" y="231.5" width="13" height="13"/>
			<rect x="361.5" y="180.5" fill="#FFFF00" width="13" height="13"/>
			<rect x="361.5" y="167.5" fill="#FFFF00" width="13" height="13"/>
			<rect x="361.5" y="154.5" fill="#FFFF00" width="13" height="13"/>
			<rect x="361.5" y="141.5" fill="#FFFF00" width="13" height="13"/>
			<rect x="361.5" y="102.5" fill="#FFFF00" width="13" height="13"/>
			<rect x="361.5" y="89.5" fill="#FFFF00" width="13" height="13"/>
			<rect x="361.5" y="76.5" fill="#FFFF00" width="13" height="13"/>
			<rect x="361.5" y="64.5" fill="#FFFF00" width="13" height="12"/>
			<rect x="348.5" y="296.5" fill="#C2C2C2" width="13" height="13"/>
			<rect x="348.5" y="283.5" fill="#C2C2C2" width="13" height="13"/>
			<rect x="348.5" y="270.5" width="13" height="13"/>
			<rect x="348.5" y="257.5" fill="#0000FF" width="13" height="13"/>
			<rect x="348.5" y="244.5" fill="#0000FF" width="13" height="13"/>
			<rect x="348.5" y="231.5" width="13" height="13"/>
			<rect x="348.5" y="218.5" width="13" height="13"/>
			<rect x="348.5" y="205.5" width="13" height="13"/>
			<rect x="348.5" y="193.5" width="13" height="12"/>
			<rect x="348.5" y="180.5" width="13" height="13"/>
			<rect x="348.5" y="167.5" width="13" height="13"/>
			<rect x="348.5" y="154.5" width="13" height="13"/>
			<rect x="348.5" y="141.5" width="13" height="13"/>
			<rect x="348.5" y="128.5" fill="#FFFF00" width="13" height="13"/>
			<rect x="348.5" y="115.5" fill="#FFFF00" width="13" height="13"/>
			<rect x="348.5" y="102.5" fill="#FFFF00" width="13" height="13"/>
			<rect x="348.5" y="89.5" fill="#FFFF00" width="13" height="13"/>
			<rect x="348.5" y="76.5" fill="#FFFF00" width="13" height="13"/>
			<rect x="335.5" y="334.5" fill="#FFFF00" width="13" height="13"/>
			<rect x="335.5" y="322.5" fill="#FFFF00" width="13" height="12"/>
			<rect x="335.5" y="309.5" fill="#FFFF00" width="13" height="13"/>
			<rect x="335.5" y="296.5" fill="#C2C2C2" width="13" height="13"/>
			<rect x="335.5" y="283.5" fill="#C2C2C2" width="13" height="13"/>
			<rect x="335.5" y="270.5" width="13" height="13"/>
			<rect x="335.5" y="257.5" fill="#0000FF" width="13" height="13"/>
			<rect x="335.5" y="244.5" fill="#0000FF" width="13" height="13"/>
			<rect x="335.5" y="231.5" width="13" height="13"/>
			<rect x="335.5" y="218.5" fill="#B3B3B3" width="13" height="13"/>
			<rect x="335.5" y="205.5" fill="#B3B3B3" width="13" height="13"/>
			<rect x="335.5" y="193.5" fill="#B3B3B3" width="13" height="12"/>
			<rect x="335.5" y="180.5" fill="#B3B3B3" width="13" height="13"/>
			<rect x="335.5" y="167.5" width="13" height="13"/>
			<rect x="335.5" y="154.5" fill="#B3B3B3" width="13" height="13"/>
			<rect x="335.5" y="141.5" fill="#B3B3B3" width="13" height="13"/>
			<rect x="335.5" y="128.5" width="13" height="13"/>
			<rect x="335.5" y="115.5" fill="#FFFF00" width="13" height="13"/>
			<rect x="335.5" y="102.5" fill="#FFFF00" width="13" height="13"/>
			<rect x="335.5" y="89.5" fill="#FFFF00" width="13" height="13"/>
			<rect x="322.5" y="309.5" fill="#FFFF00" width="13" height="13"/>
			<rect x="322.5" y="296.5" fill="#FFFF00" width="13" height="13"/>
			<rect x="322.5" y="283.5" fill="#FFFF00" width="13" height="13"/>
			<rect x="322.5" y="270.5" width="13" height="13"/>
			<rect x="322.5" y="257.5" fill="#0000FF" width="13" height="13"/>
			<rect x="322.5" y="244.5" fill="#0000FF" width="13" height="13"/>
			<rect x="322.5" y="231.5" width="13" height="13"/>
			<rect x="322.5" y="218.5" width="13" height="13"/>
			<rect x="322.5" y="205.5" fill="#B3B3B3" width="13" height="13"/>
			<rect x="322.5" y="193.5" fill="#B3B3B3" width="13" height="12"/>
			<rect x="322.5" y="180.5" width="13" height="13"/>
			<rect x="322.5" y="167.5" fill="#B3B3B3" width="13" height="13"/>
			<rect x="322.5" y="154.5" width="13" height="13"/>
			<rect x="322.5" y="141.5" width="13" height="13"/>
			<rect x="322.5" y="128.5" width="13" height="13"/>
			<rect x="322.5" y="115.5" width="13" height="13"/>
			<rect x="322.5" y="102.5" fill="#FFFF00" width="13" height="13"/>
			<rect x="322.5" y="64.5" width="13" height="12"/>
			<rect x="322.5" y="51.5" width="13" height="13"/>
			<rect x="322.5" y="38.5" width="13" height="13"/>
			<rect x="322.5" y="25.5" width="13" height="13"/>
			<rect x="309.5" y="296.5" fill="#C2C2C2" width="13" height="13"/>
			<rect x="309.5" y="283.5" fill="#C2C2C2" width="13" height="13"/>
			<rect x="309.5" y="270.5" width="13" height="13"/>
			<rect x="309.5" y="257.5" fill="#0000FF" width="13" height="13"/>
			<rect x="309.5" y="244.5" fill="#0000FF" width="13" height="13"/>
			<rect x="309.5" y="231.5" width="13" height="13"/>
			<rect x="309.5" y="218.5" fill="#B3B3B3" width="13" height="13"/>
			<rect x="309.5" y="205.5" width="13" height="13"/>
			<rect x="309.5" y="193.5" width="13" height="12"/>
			<rect x="309.5" y="180.5" fill="#B3B3B3" width="13" height="13"/>
			<rect x="309.5" y="167.5" fill="#B3B3B3" width="13" height="13"/>
			<rect x="309.5" y="154.5" fill="#B3B3B3" width="13" height="13"/>
			<rect x="309.5" y="141.5" width="13" height="13"/>
			<rect x="309.5" y="128.5" width="13" height="13"/>
			<rect x="309.5" y="115.5" width="13" height="13"/>
			<rect x="309.5" y="102.5" width="13" height="13"/>
			<rect x="309.5" y="89.5" width="13" height="13"/>
			<rect x="309.5" y="76.5" width="13" height="13"/>
			<rect x="309.5" y="64.5" width="13" height="12"/>
			<rect x="309.5" y="51.5" fill="#B3B3B3" width="13" height="13"/>
			<rect x="309.5" y="38.5" fill="#B3B3B3" width="13" height="13"/>
			<rect x="309.5" y="25.5" width="13" height="13"/>
			<rect x="296.5" y="322.5" fill="#FFFF00" width="13" height="12"/>
			<rect x="296.5" y="309.5" fill="#FFFF00" width="13" height="13"/>
			<rect x="296.5" y="296.5" fill="#FFFF00" width="13" height="13"/>
			<rect x="296.5" y="270.5" width="13" height="13"/>
			<rect x="296.5" y="257.5" fill="#0000FF" width="13" height="13"/>
			<rect x="296.5" y="244.5" width="13" height="13"/>
			<rect x="296.5" y="231.5" width="13" height="13"/>
			<rect x="296.5" y="218.5" width="13" height="13"/>
			<rect x="296.5" y="205.5" width="13" height="13"/>
			<rect x="296.5" y="193.5" width="13" height="12"/>
			<rect x="296.5" y="180.5" width="13" height="13"/>
			<rect x="296.5" y="167.5" width="13" height="13"/>
			<rect x="296.5" y="154.5" width="13" height="13"/>
			<rect x="296.5" y="141.5" width="13" height="13"/>
			<rect x="296.5" y="128.5" fill="#E6E6E6" width="13" height="13"/>
			<rect x="296.5" y="115.5" fill="#E6E6E6" width="13" height="13"/>
			<rect x="296.5" y="102.5" fill="#E6E6E6" width="13" height="13"/>
			<rect x="296.5" y="89.5" fill="#E6E6E6" width="13" height="13"/>
			<rect x="296.5" y="76.5" width="13" height="13"/>
			<rect x="296.5" y="64.5" fill="#B3B3B3" width="13" height="12"/>
			<rect x="296.5" y="51.5" fill="#3FA9F5" width="13" height="13"/>
			<rect x="296.5" y="38.5" fill="#3FA9F5" width="13" height="13"/>
			<rect x="296.5" y="25.5" width="13" height="13"/>
			<rect x="283.5" y="334.5" width="13" height="13"/>
			<rect x="283.5" y="322.5" width="13" height="12"/>
			<rect x="283.5" y="309.5" width="13" height="13"/>
			<rect x="283.5" y="296.5" width="13" height="13"/>
			<rect x="283.5" y="283.5" width="13" height="13"/>
			<rect x="283.5" y="270.5" width="13" height="13"/>
			<rect x="283.5" y="257.5" width="13" height="13"/>
			<rect x="283.5" y="244.5" width="13" height="13"/>
			<rect x="283.5" y="231.5" fill="#E6E6E6" width="13" height="13"/>
			<rect x="283.5" y="218.5" fill="#E6E6E6" width="13" height="13"/>
			<rect x="283.5" y="205.5" fill="#E6E6E6" width="13" height="13"/>
			<rect x="283.5" y="193.5" fill="#E6E6E6" width="13" height="12"/>
			<rect x="283.5" y="180.5" fill="#E6E6E6" width="13" height="13"/>
			<rect x="283.5" y="167.5" fill="#E6E6E6" width="13" height="13"/>
			<rect x="283.5" y="154.5" fill="#E6E6E6" width="13" height="13"/>
			<rect x="283.5" y="141.5" fill="#E6E6E6" width="13" height="13"/>
			<rect x="283.5" y="128.5" fill="#FAFAFA" width="13" height="13"/>
			<rect x="283.5" y="115.5" fill="#FAFAFA" width="13" height="13"/>
			<rect x="283.5" y="102.5" fill="#FAFAFA" width="13" height="13"/>
			<rect x="283.5" y="89.5" fill="#E6E6E6" width="13" height="13"/>
			<rect x="283.5" y="76.5" width="13" height="13"/>
			<rect x="283.5" y="64.5" fill="#B3B3B3" width="13" height="12"/>
			<rect x="283.5" y="51.5" fill="#808080" width="13" height="13"/>
			<rect x="283.5" y="38.5" fill="#808080" width="13" height="13"/>
			<rect x="283.5" y="25.5" width="13" height="13"/>
			<rect x="270.5" y="334.5" width="13" height="13"/>
			<rect x="270.5" y="322.5" fill="#FFFF00" width="13" height="12"/>
			<rect x="270.5" y="309.5" fill="#FFFF00" width="13" height="13"/>
			<rect x="270.5" y="296.5" fill="#FFFF00" width="13" height="13"/>
			<rect x="270.5" y="283.5" fill="#FFFF00" width="13" height="13"/>
			<rect x="270.5" y="270.5" fill="#FFFF00" width="13" height="13"/>
			<rect x="270.5" y="257.5" width="13" height="13"/>
			<rect x="270.5" y="244.5" fill="#E6E6E6" width="13" height="13"/>
			<rect x="270.5" y="231.5" fill="#FAFAFA" width="13" height="13"/>
			<rect x="270.5" y="218.5" fill="#FAFAFA" width="13" height="13"/>
			<rect x="270.5" y="205.5" fill="#E6E6E6" width="13" height="13"/>
			<rect x="270.5" y="193.5" fill="#FAFAFA" width="13" height="12"/>
			<rect x="270.5" y="180.5" fill="#FAFAFA" width="13" height="13"/>
			<rect x="270.5" y="167.5" fill="#FAFAFA" width="13" height="13"/>
			<rect x="270.5" y="154.5" fill="#FAFAFA" width="13" height="13"/>
			<rect x="270.5" y="141.5" fill="#FAFAFA" width="13" height="13"/>
			<rect x="270.5" y="128.5" fill="#FAFAFA" width="13" height="13"/>
			<rect x="270.5" y="115.5" fill="#E6E6E6" width="13" height="13"/>
			<rect x="270.5" y="102.5" fill="#E6E6E6" width="13" height="13"/>
			<rect x="270.5" y="89.5" fill="#FF7400" width="13" height="13"/>
			<rect x="270.5" y="76.5" fill="#FF7400" width="13" height="13"/>
			<rect x="270.5" y="64.5" fill="#B3B3B3" width="13" height="12"/>
			<rect x="270.5" y="51.5" fill="#B3B3B3" width="13" height="13"/>
			<rect x="270.5" y="38.5" fill="#B3B3B3" width="13" height="13"/>
			<rect x="270.5" y="25.5" width="13" height="13"/>
			<rect x="257.5" y="334.5" width="13" height="13"/>
			<rect x="257.5" y="322.5" fill="#29ABE2" width="13" height="12"/>
			<rect x="257.5" y="309.5" fill="#29ABE2" width="13" height="13"/>
			<rect x="257.5" y="296.5" fill="#29ABE2" width="13" height="13"/>
			<rect x="257.5" y="283.5" fill="#FFFF00" width="13" height="13"/>
			<rect x="257.5" y="270.5" fill="#FFFF00" width="13" height="13"/>
			<rect x="257.5" y="257.5" width="13" height="13"/>
			<rect x="257.5" y="244.5" fill="#E6E6E6" width="13" height="13"/>
			<rect x="257.5" y="231.5" fill="#E6E6E6" width="13" height="13"/>
			<rect x="257.5" y="218.5" fill="#E6E6E6" width="13" height="13"/>
			<rect x="257.5" y="205.5" fill="#E6E6E6" width="13" height="13"/>
			<rect x="257.5" y="193.5" fill="#E6E6E6" width="13" height="12"/>
			<rect x="257.5" y="180.5" fill="#E6E6E6" width="13" height="13"/>
			<rect x="257.5" y="167.5" fill="#E6E6E6" width="13" height="13"/>
			<rect x="257.5" y="154.5" fill="#E6E6E6" width="13" height="13"/>
			<rect x="257.5" y="141.5" fill="#E6E6E6" width="13" height="13"/>
			<rect x="257.5" y="128.5" fill="#E6E6E6" width="13" height="13"/>
			<rect x="257.5" y="115.5" fill="#E6E6E6" width="13" height="13"/>
			<rect x="257.5" y="102.5" fill="#FF7400" width="13" height="13"/>
			<rect x="257.5" y="89.5" fill="#FF7400" width="13" height="13"/>
			<rect x="257.5" y="76.5" fill="#FF7400" width="13" height="13"/>
			<rect x="257.5" y="64.5" fill="#B3B3B3" width="13" height="12"/>
			<rect x="257.5" y="51.5" fill="#FCEE21" width="13" height="13"/>
			<rect x="257.5" y="38.5" fill="#3FA9F5" width="13" height="13"/>
			<rect x="257.5" y="25.5" width="13" height="13"/>
			<rect x="245.5" y="334.5" width="12" height="13"/>
			<rect x="245.5" y="322.5" fill="#FFFF00" width="12" height="12"/>
			<rect x="245.5" y="309.5" fill="#FFFF00" width="12" height="13"/>
			<rect x="245.5" y="296.5" fill="#FFFF00" width="12" height="13"/>
			<rect x="245.5" y="283.5" fill="#FFFF00" width="12" height="13"/>
			<rect x="245.5" y="270.5" fill="#FFFF00" width="12" height="13"/>
			<rect x="245.5" y="257.5" width="12" height="13"/>
			<rect x="245.5" y="244.5" fill="#E6E6E6" width="12" height="13"/>
			<rect x="245.5" y="231.5" fill="#FFFF00" width="12" height="13"/>
			<rect x="245.5" y="218.5" fill="#E6E6E6" width="12" height="13"/>
			<rect x="245.5" y="205.5" fill="#E6E6E6" width="12" height="13"/>
			<rect x="245.5" y="193.5" fill="#E6E6E6" width="12" height="12"/>
			<rect x="245.5" y="180.5" fill="#E6E6E6" width="12" height="13"/>
			<rect x="245.5" y="167.5" fill="#FFD200" width="12" height="13"/>
			<rect x="245.5" y="154.5" fill="#FFD200" width="12" height="13"/>
			<rect x="245.5" y="141.5" fill="#FFD200" width="12" height="13"/>
			<rect x="245.5" y="128.5" fill="#E6E6E6" width="12" height="13"/>
			<rect x="245.5" y="115.5" fill="#E6E6E6" width="12" height="13"/>
			<rect x="245.5" y="102.5" fill="#FF7400" width="12" height="13"/>
			<rect x="245.5" y="89.5" fill="#FF7400" width="12" height="13"/>
			<rect x="245.5" y="76.5" width="12" height="13"/>
			<rect x="245.5" y="64.5" fill="#B3B3B3" width="12" height="12"/>
			<rect x="245.5" y="51.5" fill="#3FA9F5" width="12" height="13"/>
			<rect x="245.5" y="38.5" fill="#FCEE21" width="12" height="13"/>
			<rect x="245.5" y="25.5" width="12" height="13"/>
			<rect x="232.5" y="334.5" width="13" height="13"/>
			<rect x="232.5" y="322.5" width="13" height="12"/>
			<rect x="232.5" y="309.5" width="13" height="13"/>
			<rect x="232.5" y="296.5" width="13" height="13"/>
			<rect x="232.5" y="283.5" width="13" height="13"/>
			<rect x="232.5" y="270.5" width="13" height="13"/>
			<rect x="232.5" y="257.5" width="13" height="13"/>
			<rect x="232.5" y="244.5" fill="#E6E6E6" width="13" height="13"/>
			<rect x="232.5" y="231.5" fill="#FFFF00" width="13" height="13"/>
			<rect x="232.5" y="218.5" fill="#FFFF00" width="13" height="13"/>
			<rect x="232.5" y="205.5" fill="#E6E6E6" width="13" height="13"/>
			<rect x="232.5" y="193.5" fill="#E6E6E6" width="13" height="12"/>
			<rect x="232.5" y="180.5" fill="#E6E6E6" width="13" height="13"/>
			<rect x="232.5" y="167.5" fill="#FFD200" width="13" height="13"/>
			<rect x="232.5" y="154.5" fill="#FFD200" width="13" height="13"/>
			<rect x="232.5" y="141.5" fill="#FFD200" width="13" height="13"/>
			<rect x="232.5" y="128.5" fill="#E6E6E6" width="13" height="13"/>
			<rect x="232.5" y="115.5" fill="#FF9600" width="13" height="13"/>
			<rect x="232.5" y="102.5" fill="#FF9600" width="13" height="13"/>
			<rect x="232.5" y="89.5" fill="#E6E6E6" width="13" height="13"/>
			<rect x="232.5" y="76.5" width="13" height="13"/>
			<rect x="232.5" y="64.5" fill="#B3B3B3" width="13" height="12"/>
			<rect x="232.5" y="51.5" fill="#FCEE21" width="13" height="13"/>
			<rect x="232.5" y="38.5" fill="#3FA9F5" width="13" height="13"/>
			<rect x="232.5" y="25.5" width="13" height="13"/>
			<rect x="219.5" y="257.5" width="13" height="13"/>
			<rect x="219.5" y="244.5" fill="#E6E6E6" width="13" height="13"/>
			<rect x="219.5" y="231.5" fill="#FFFF00" width="13" height="13"/>
			<rect x="219.5" y="218.5" fill="#FFFFFF" width="13" height="13"/>
			<rect x="219.5" y="205.5" fill="#FFFF00" width="13" height="13"/>
			<rect x="219.5" y="193.5" fill="#E6E6E6" width="13" height="12"/>
			<rect x="219.5" y="180.5" fill="#E6E6E6" width="13" height="13"/>
			<rect x="219.5" y="167.5" fill="#E6E6E6" width="13" height="13"/>
			<rect x="219.5" y="154.5" fill="#E6E6E6" width="13" height="13"/>
			<rect x="219.5" y="141.5" fill="#E6E6E6" width="13" height="13"/>
			<rect x="219.5" y="128.5" fill="#FFB600" width="13" height="13"/>
			<rect x="219.5" y="115.5" fill="#FFB600" width="13" height="13"/>
			<rect x="219.5" y="102.5" fill="#E6E6E6" width="13" height="13"/>
			<rect x="219.5" y="89.5" fill="#E6E6E6" width="13" height="13"/>
			<rect x="219.5" y="76.5" width="13" height="13"/>
			<rect x="219.5" y="64.5" fill="#B3B3B3" width="13" height="12"/>
			<rect x="219.5" y="51.5" fill="#3FA9F5" width="13" height="13"/>
			<rect x="219.5" y="38.5" fill="#FCEE21" width="13" height="13"/>
			<rect x="219.5" y="25.5" width="13" height="13"/>
			<rect x="206.5" y="257.5" width="13" height="13"/>
			<rect x="206.5" y="244.5" fill="#E6E6E6" width="13" height="13"/>
			<rect x="206.5" y="231.5" fill="#FFFF00" width="13" height="13"/>
			<rect x="206.5" y="218.5" fill="#FFFFFF" width="13" height="13"/>
			<rect x="206.5" y="205.5" fill="#FFFFFF" width="13" height="13"/>
			<rect x="206.5" y="193.5" fill="#FFFF00" width="13" height="12"/>
			<rect x="206.5" y="180.5" fill="#E6E6E6" width="13" height="13"/>
			<rect x="206.5" y="167.5" fill="#E6E6E6" width="13" height="13"/>
			<rect x="206.5" y="154.5" fill="#E6E6E6" width="13" height="13"/>
			<rect x="206.5" y="141.5" fill="#FFD200" width="13" height="13"/>
			<rect x="206.5" y="128.5" fill="#E6E6E6" width="13" height="13"/>
			<rect x="206.5" y="115.5" fill="#E6E6E6" width="13" height="13"/>
			<rect x="206.5" y="102.5" fill="#E6E6E6" width="13" height="13"/>
			<rect x="206.5" y="89.5" fill="#E6E6E6" width="13" height="13"/>
			<rect x="206.5" y="76.5" width="13" height="13"/>
			<rect x="206.5" y="64.5" fill="#B3B3B3" width="13" height="12"/>
			<rect x="206.5" y="51.5" fill="#FCEE21" width="13" height="13"/>
			<rect x="206.5" y="38.5" fill="#3FA9F5" width="13" height="13"/>
			<rect x="206.5" y="25.5" width="13" height="13"/>
			<rect x="193.5" y="257.5" width="13" height="13"/>
			<rect x="193.5" y="244.5" fill="#E6E6E6" width="13" height="13"/>
			<rect x="193.5" y="231.5" fill="#FFFF00" width="13" height="13"/>
			<rect x="193.5" y="218.5" fill="#FFFFFF" width="13" height="13"/>
			<rect x="193.5" y="205.5" fill="#FFFFFF" width="13" height="13"/>
			<rect x="193.5" y="193.5" fill="#FFFFFF" width="13" height="12"/>
			<rect x="193.5" y="180.5" fill="#FFFF00" width="13" height="13"/>
			<rect x="193.5" y="167.5" fill="#E6E6E6" width="13" height="13"/>
			<rect x="193.5" y="154.5" fill="#E6E6E6" width="13" height="13"/>
			<rect x="193.5" y="141.5" fill="#E6E6E6" width="13" height="13"/>
			<rect x="193.5" y="128.5" fill="#E6E6E6" width="13" height="13"/>
			<rect x="193.5" y="115.5" fill="#E6E6E6" width="13" height="13"/>
			<rect x="193.5" y="102.5" fill="#E6E6E6" width="13" height="13"/>
			<rect x="193.5" y="89.5" fill="#E6E6E6" width="13" height="13"/>
			<rect x="193.5" y="76.5" width="13" height="13"/>
			<rect x="193.5" y="64.5" fill="#B3B3B3" width="13" height="12"/>
			<rect x="193.5" y="51.5" fill="#3FA9F5" width="13" height="13"/>
			<rect x="193.5" y="38.5" fill="#FCEE21" width="13" height="13"/>
			<rect x="193.5" y="25.5" width="13" height="13"/>
			<rect x="193.5" y="12.5" fill="#F7931E" width="13" height="13"/>
			<polygon fill="#F7931E" points="206.5,0 206.5,12.5 193.5,12.5 193.5,0 193.5,-0.5 206.5,-0.5 			"/>
			<rect x="180.5" y="257.5" width="13" height="13"/>
			<rect x="180.5" y="244.5" fill="#E6E6E6" width="13" height="13"/>
			<rect x="180.5" y="231.5" fill="#FFFF00" width="13" height="13"/>
			<rect x="180.5" y="218.5" fill="#FFFFFF" width="13" height="13"/>
			<rect x="180.5" y="205.5" fill="#FFFFFF" width="13" height="13"/>
			<rect x="180.5" y="193.5" fill="#FFFF00" width="13" height="12"/>
			<rect x="180.5" y="180.5" fill="#E6E6E6" width="13" height="13"/>
			<rect x="180.5" y="167.5" fill="#E6E6E6" width="13" height="13"/>
			<rect x="180.5" y="154.5" fill="#E6E6E6" width="13" height="13"/>
			<rect x="180.5" y="141.5" fill="#FFD200" width="13" height="13"/>
			<rect x="180.5" y="128.5" fill="#E6E6E6" width="13" height="13"/>
			<rect x="180.5" y="115.5" fill="#E6E6E6" width="13" height="13"/>
			<rect x="180.5" y="102.5" fill="#E6E6E6" width="13" height="13"/>
			<rect x="180.5" y="89.5" fill="#E6E6E6" width="13" height="13"/>
			<rect x="180.5" y="76.5" width="13" height="13"/>
			<rect x="180.5" y="64.5" fill="#B3B3B3" width="13" height="12"/>
			<rect x="180.5" y="51.5" fill="#FCEE21" width="13" height="13"/>
			<rect x="180.5" y="38.5" fill="#3FA9F5" width="13" height="13"/>
			<rect x="180.5" y="25.5" width="13" height="13"/>
			<rect x="180.5" y="12.5" fill="#F7931E" width="13" height="13"/>
			<polygon fill="#F7931E" points="193.5,0 193.5,12.5 180.5,12.5 180.5,0 180.5,-0.5 193.5,-0.5 			"/>
			<rect x="167.5" y="257.5" width="13" height="13"/>
			<rect x="167.5" y="244.5" fill="#E6E6E6" width="13" height="13"/>
			<rect x="167.5" y="231.5" fill="#FFFF00" width="13" height="13"/>
			<rect x="167.5" y="218.5" fill="#FFFFFF" width="13" height="13"/>
			<rect x="167.5" y="205.5" fill="#FFFF00" width="13" height="13"/>
			<rect x="167.5" y="193.5" fill="#E6E6E6" width="13" height="12"/>
			<rect x="167.5" y="180.5" fill="#E6E6E6" width="13" height="13"/>
			<rect x="167.5" y="167.5" fill="#E6E6E6" width="13" height="13"/>
			<rect x="167.5" y="154.5" fill="#E6E6E6" width="13" height="13"/>
			<rect x="167.5" y="141.5" fill="#E6E6E6" width="13" height="13"/>
			<rect x="167.5" y="128.5" fill="#FFB600" width="13" height="13"/>
			<rect x="167.5" y="115.5" fill="#FFB600" width="13" height="13"/>
			<rect x="167.5" y="102.5" fill="#E6E6E6" width="13" height="13"/>
			<rect x="167.5" y="89.5" fill="#E6E6E6" width="13" height="13"/>
			<rect x="167.5" y="76.5" width="13" height="13"/>
			<rect x="167.5" y="64.5" fill="#B3B3B3" width="13" height="12"/>
			<rect x="167.5" y="51.5" fill="#3FA9F5" width="13" height="13"/>
			<rect x="167.5" y="38.5" fill="#FCEE21" width="13" height="13"/>
			<rect x="167.5" y="25.5" width="13" height="13"/>
			<rect x="154.5" y="296.5" width="13" height="13"/>
			<rect x="154.5" y="283.5" width="13" height="13"/>
			<rect x="154.5" y="270.5" width="13" height="13"/>
			<rect x="154.5" y="257.5" width="13" height="13"/>
			<rect x="154.5" y="244.5" fill="#E6E6E6" width="13" height="13"/>
			<rect x="154.5" y="231.5" fill="#FFFF00" width="13" height="13"/>
			<rect x="154.5" y="218.5" fill="#FFFF00" width="13" height="13"/>
			<rect x="154.5" y="205.5" fill="#E6E6E6" width="13" height="13"/>
			<rect x="154.5" y="193.5" fill="#E6E6E6" width="13" height="12"/>
			<rect x="154.5" y="180.5" fill="#E6E6E6" width="13" height="13"/>
			<rect x="154.5" y="167.5" fill="#FFD200" width="13" height="13"/>
			<rect x="154.5" y="154.5" fill="#FFD200" width="13" height="13"/>
			<rect x="154.5" y="141.5" fill="#FFD200" width="13" height="13"/>
			<rect x="154.5" y="128.5" fill="#E6E6E6" width="13" height="13"/>
			<rect x="154.5" y="115.5" fill="#FF9600" width="13" height="13"/>
			<rect x="154.5" y="102.5" fill="#FF9600" width="13" height="13"/>
			<rect x="154.5" y="89.5" fill="#E6E6E6" width="13" height="13"/>
			<rect x="154.5" y="76.5" width="13" height="13"/>
			<rect x="154.5" y="64.5" fill="#B3B3B3" width="13" height="12"/>
			<rect x="154.5" y="51.5" fill="#FCEE21" width="13" height="13"/>
			<rect x="154.5" y="38.5" fill="#3FA9F5" width="13" height="13"/>
			<rect x="154.5" y="25.5" width="13" height="13"/>
			<rect x="141.5" y="296.5" width="13" height="13"/>
			<rect x="141.5" y="283.5" fill="#FFFF00" width="13" height="13"/>
			<rect x="141.5" y="270.5" fill="#FFFF00" width="13" height="13"/>
			<rect x="141.5" y="257.5" width="13" height="13"/>
			<rect x="141.5" y="244.5" fill="#E6E6E6" width="13" height="13"/>
			<rect x="141.5" y="231.5" fill="#FFFF00" width="13" height="13"/>
			<rect x="141.5" y="218.5" fill="#E6E6E6" width="13" height="13"/>
			<rect x="141.5" y="205.5" fill="#E6E6E6" width="13" height="13"/>
			<rect x="141.5" y="193.5" fill="#E6E6E6" width="13" height="12"/>
			<rect x="141.5" y="180.5" fill="#E6E6E6" width="13" height="13"/>
			<rect x="141.5" y="167.5" fill="#FFD200" width="13" height="13"/>
			<rect x="141.5" y="154.5" fill="#FFD200" width="13" height="13"/>
			<rect x="141.5" y="141.5" fill="#FFD200" width="13" height="13"/>
			<rect x="141.5" y="128.5" fill="#E6E6E6" width="13" height="13"/>
			<rect x="141.5" y="115.5" fill="#E6E6E6" width="13" height="13"/>
			<rect x="141.5" y="102.5" fill="#FF7400" width="13" height="13"/>
			<rect x="141.5" y="89.5" fill="#FF7400" width="13" height="13"/>
			<rect x="141.5" y="76.5" width="13" height="13"/>
			<rect x="141.5" y="64.5" fill="#B3B3B3" width="13" height="12"/>
			<rect x="141.5" y="51.5" fill="#3FA9F5" width="13" height="13"/>
			<rect x="141.5" y="38.5" fill="#FCEE21" width="13" height="13"/>
			<rect x="141.5" y="25.5" width="13" height="13"/>
			<rect x="128.5" y="296.5" width="13" height="13"/>
			<rect x="128.5" y="283.5" fill="#29ABE2" width="13" height="13"/>
			<rect x="128.5" y="270.5" fill="#29ABE2" width="13" height="13"/>
			<rect x="128.5" y="257.5" width="13" height="13"/>
			<rect x="128.5" y="244.5" fill="#E6E6E6" width="13" height="13"/>
			<rect x="128.5" y="231.5" fill="#E6E6E6" width="13" height="13"/>
			<rect x="128.5" y="218.5" fill="#E6E6E6" width="13" height="13"/>
			<rect x="128.5" y="205.5" fill="#E6E6E6" width="13" height="13"/>
			<rect x="128.5" y="193.5" fill="#E6E6E6" width="13" height="12"/>
			<rect x="128.5" y="180.5" fill="#E6E6E6" width="13" height="13"/>
			<rect x="128.5" y="167.5" fill="#E6E6E6" width="13" height="13"/>
			<rect x="128.5" y="154.5" fill="#E6E6E6" width="13" height="13"/>
			<rect x="128.5" y="141.5" fill="#E6E6E6" width="13" height="13"/>
			<rect x="128.5" y="128.5" fill="#E6E6E6" width="13" height="13"/>
			<rect x="128.5" y="115.5" fill="#E6E6E6" width="13" height="13"/>
			<rect x="128.5" y="102.5" fill="#FF7400" width="13" height="13"/>
			<rect x="128.5" y="89.5" fill="#FF7400" width="13" height="13"/>
			<rect x="128.5" y="76.5" fill="#FF7400" width="13" height="13"/>
			<rect x="128.5" y="64.5" fill="#B3B3B3" width="13" height="12"/>
			<rect x="128.5" y="51.5" fill="#FCEE21" width="13" height="13"/>
			<rect x="128.5" y="38.5" fill="#3FA9F5" width="13" height="13"/>
			<rect x="128.5" y="25.5" width="13" height="13"/>
			<rect x="116.5" y="296.5" width="12" height="13"/>
			<rect x="116.5" y="283.5" fill="#FFFF00" width="12" height="13"/>
			<rect x="116.5" y="270.5" fill="#FFFF00" width="12" height="13"/>
			<rect x="116.5" y="257.5" width="12" height="13"/>
			<rect x="116.5" y="244.5" fill="#E6E6E6" width="12" height="13"/>
			<rect x="116.5" y="231.5" fill="#E6E6E6" width="12" height="13"/>
			<rect x="116.5" y="218.5" fill="#E6E6E6" width="12" height="13"/>
			<rect x="116.5" y="205.5" fill="#E6E6E6" width="12" height="13"/>
			<rect x="116.5" y="193.5" fill="#E6E6E6" width="12" height="12"/>
			<rect x="116.5" y="180.5" fill="#E6E6E6" width="12" height="13"/>
			<rect x="116.5" y="167.5" fill="#E6E6E6" width="12" height="13"/>
			<rect x="116.5" y="154.5" fill="#E6E6E6" width="12" height="13"/>
			<rect x="116.5" y="141.5" fill="#E6E6E6" width="12" height="13"/>
			<rect x="116.5" y="128.5" fill="#E6E6E6" width="12" height="13"/>
			<rect x="116.5" y="115.5" fill="#E6E6E6" width="12" height="13"/>
			<rect x="116.5" y="102.5" fill="#E6E6E6" width="12" height="13"/>
			<rect x="116.5" y="89.5" fill="#FF7400" width="12" height="13"/>
			<rect x="116.5" y="76.5" fill="#FF7400" width="12" height="13"/>
			<rect x="116.5" y="64.5" fill="#B3B3B3" width="12" height="12"/>
			<rect x="116.5" y="51.5" fill="#B3B3B3" width="12" height="13"/>
			<rect x="116.5" y="38.5" fill="#B3B3B3" width="12" height="13"/>
			<rect x="116.5" y="25.5" width="12" height="13"/>
			<rect x="103.5" y="296.5" width="13" height="13"/>
			<rect x="103.5" y="283.5" width="13" height="13"/>
			<rect x="103.5" y="270.5" width="13" height="13"/>
			<rect x="103.5" y="257.5" width="13" height="13"/>
			<rect x="103.5" y="244.5" width="13" height="13"/>
			<rect x="103.5" y="231.5" fill="#E6E6E6" width="13" height="13"/>
			<rect x="103.5" y="218.5" fill="#E6E6E6" width="13" height="13"/>
			<rect x="103.5" y="205.5" fill="#E6E6E6" width="13" height="13"/>
			<rect x="103.5" y="193.5" fill="#E6E6E6" width="13" height="12"/>
			<rect x="103.5" y="180.5" fill="#E6E6E6" width="13" height="13"/>
			<rect x="103.5" y="167.5" fill="#E6E6E6" width="13" height="13"/>
			<rect x="103.5" y="154.5" fill="#E6E6E6" width="13" height="13"/>
			<rect x="103.5" y="141.5" fill="#E6E6E6" width="13" height="13"/>
			<rect x="103.5" y="128.5" fill="#E6E6E6" width="13" height="13"/>
			<rect x="103.5" y="115.5" fill="#E6E6E6" width="13" height="13"/>
			<rect x="103.5" y="102.5" fill="#E6E6E6" width="13" height="13"/>
			<rect x="103.5" y="89.5" fill="#E6E6E6" width="13" height="13"/>
			<rect x="103.5" y="76.5" width="13" height="13"/>
			<rect x="103.5" y="64.5" fill="#B3B3B3" width="13" height="12"/>
			<rect x="103.5" y="51.5" fill="#808080" width="13" height="13"/>
			<rect x="103.5" y="38.5" fill="#808080" width="13" height="13"/>
			<rect x="103.5" y="25.5" width="13" height="13"/>
			<rect x="90.5" y="309.5" fill="#4D4D4D" width="13" height="13"/>
			<rect x="90.5" y="296.5" fill="#4D4D4D" width="13" height="13"/>
			<rect x="90.5" y="270.5" width="13" height="13"/>
			<rect x="90.5" y="257.5" fill="#0000FF" width="13" height="13"/>
			<rect x="90.5" y="244.5" width="13" height="13"/>
			<rect x="90.5" y="231.5" width="13" height="13"/>
			<rect x="90.5" y="218.5" width="13" height="13"/>
			<rect x="90.5" y="205.5" width="13" height="13"/>
			<rect x="90.5" y="193.5" width="13" height="12"/>
			<rect x="90.5" y="180.5" width="13" height="13"/>
			<rect x="90.5" y="167.5" width="13" height="13"/>
			<rect x="90.5" y="154.5" width="13" height="13"/>
			<rect x="90.5" y="141.5" width="13" height="13"/>
			<rect x="90.5" y="128.5" fill="#E6E6E6" width="13" height="13"/>
			<rect x="90.5" y="115.5" fill="#E6E6E6" width="13" height="13"/>
			<rect x="90.5" y="102.5" fill="#E6E6E6" width="13" height="13"/>
			<rect x="90.5" y="89.5" fill="#E6E6E6" width="13" height="13"/>
			<rect x="90.5" y="76.5" width="13" height="13"/>
			<rect x="90.5" y="64.5" fill="#B3B3B3" width="13" height="12"/>
			<rect x="90.5" y="51.5" fill="#3FA9F5" width="13" height="13"/>
			<rect x="90.5" y="38.5" fill="#3FA9F5" width="13" height="13"/>
			<rect x="90.5" y="25.5" width="13" height="13"/>
			<rect x="77.5" y="296.5" fill="#C2C2C2" width="13" height="13"/>
			<rect x="77.5" y="283.5" fill="#C2C2C2" width="13" height="13"/>
			<rect x="77.5" y="270.5" width="13" height="13"/>
			<rect x="77.5" y="257.5" fill="#0000FF" width="13" height="13"/>
			<rect x="77.5" y="244.5" fill="#0000FF" width="13" height="13"/>
			<rect x="77.5" y="231.5" width="13" height="13"/>
			<rect x="77.5" y="218.5" fill="#B3B3B3" width="13" height="13"/>
			<rect x="77.5" y="205.5" fill="#B3B3B3" width="13" height="13"/>
			<rect x="77.5" y="193.5" fill="#B3B3B3" width="13" height="12"/>
			<rect x="77.5" y="180.5" fill="#00FFFF" width="13" height="13"/>
			<rect x="77.5" y="167.5" fill="#00FFFF" width="13" height="13"/>
			<rect x="77.5" y="154.5" fill="#B3B3B3" width="13" height="13"/>
			<rect x="77.5" y="141.5" width="13" height="13"/>
			<rect x="77.5" y="128.5" width="13" height="13"/>
			<rect x="77.5" y="115.5" width="13" height="13"/>
			<rect x="77.5" y="102.5" width="13" height="13"/>
			<rect x="77.5" y="89.5" width="13" height="13"/>
			<rect x="77.5" y="76.5" width="13" height="13"/>
			<rect x="77.5" y="64.5" width="13" height="12"/>
			<rect x="77.5" y="51.5" fill="#B3B3B3" width="13" height="13"/>
			<rect x="77.5" y="38.5" fill="#B3B3B3" width="13" height="13"/>
			<rect x="77.5" y="25.5" width="13" height="13"/>
			<rect x="64.5" y="322.5" fill="#4D4D4D" width="13" height="12"/>
			<rect x="64.5" y="309.5" fill="#4D4D4D" width="13" height="13"/>
			<rect x="64.5" y="296.5" fill="#4D4D4D" width="13" height="13"/>
			<rect x="64.5" y="283.5" fill="#C2C2C2" width="13" height="13"/>
			<rect x="64.5" y="270.5" width="13" height="13"/>
			<rect x="64.5" y="257.5" fill="#0000FF" width="13" height="13"/>
			<rect x="64.5" y="244.5" fill="#0000FF" width="13" height="13"/>
			<rect x="64.5" y="231.5" width="13" height="13"/>
			<rect x="64.5" y="218.5" fill="#00FFFF" width="13" height="13"/>
			<rect x="64.5" y="205.5" fill="#00FFFF" width="13" height="13"/>
			<rect x="64.5" y="193.5" fill="#B3B3B3" width="13" height="12"/>
			<rect x="64.5" y="180.5" fill="#00FFFF" width="13" height="13"/>
			<rect x="64.5" y="167.5" fill="#B3B3B3" width="13" height="13"/>
			<rect x="64.5" y="154.5" fill="#00FFFF" width="13" height="13"/>
			<rect x="64.5" y="141.5" fill="#00FFFF" width="13" height="13"/>
			<rect x="64.5" y="128.5" fill="#00FFFF" width="13" height="13"/>
			<rect x="64.5" y="115.5" width="13" height="13"/>
			<rect x="64.5" y="102.5" fill="#FFFF00" width="13" height="13"/>
			<rect x="64.5" y="64.5" width="13" height="12"/>
			<rect x="64.5" y="51.5" width="13" height="13"/>
			<rect x="64.5" y="38.5" width="13" height="13"/>
			<rect x="64.5" y="25.5" width="13" height="13"/>
			<rect x="51.5" y="322.5" fill="#4D4D4D" width="13" height="12"/>
			<rect x="51.5" y="309.5" fill="#4D4D4D" width="13" height="13"/>
			<rect x="51.5" y="296.5" fill="#4D4D4D" width="13" height="13"/>
			<rect x="51.5" y="283.5" fill="#C2C2C2" width="13" height="13"/>
			<rect x="51.5" y="270.5" width="13" height="13"/>
			<rect x="51.5" y="257.5" fill="#0000FF" width="13" height="13"/>
			<rect x="51.5" y="244.5" fill="#0000FF" width="13" height="13"/>
			<rect x="51.5" y="231.5" width="13" height="13"/>
			<rect x="51.5" y="218.5" fill="#B3B3B3" width="13" height="13"/>
			<rect x="51.5" y="205.5" fill="#00FFFF" width="13" height="13"/>
			<rect x="51.5" y="193.5" fill="#00FFFF" width="13" height="12"/>
			<rect x="51.5" y="180.5" fill="#00FFFF" width="13" height="13"/>
			<rect x="51.5" y="167.5" fill="#B3B3B3" width="13" height="13"/>
			<rect x="51.5" y="154.5" fill="#B3B3B3" width="13" height="13"/>
			<rect x="51.5" y="141.5" fill="#B3B3B3" width="13" height="13"/>
			<rect x="51.5" y="128.5" width="13" height="13"/>
			<rect x="51.5" y="115.5" fill="#FFFF00" width="13" height="13"/>
			<rect x="51.5" y="102.5" fill="#FFFF00" width="13" height="13"/>
			<rect x="51.5" y="89.5" fill="#FFFF00" width="13" height="13"/>
			<rect x="38.5" y="296.5" fill="#C2C2C2" width="13" height="13"/>
			<rect x="38.5" y="283.5" fill="#C2C2C2" width="13" height="13"/>
			<rect x="38.5" y="270.5" width="13" height="13"/>
			<rect x="38.5" y="257.5" fill="#0000FF" width="13" height="13"/>
			<rect x="38.5" y="244.5" fill="#0000FF" width="13" height="13"/>
			<rect x="38.5" y="231.5" width="13" height="13"/>
			<rect x="38.5" y="218.5" width="13" height="13"/>
			<rect x="38.5" y="205.5" width="13" height="13"/>
			<rect x="38.5" y="193.5" width="13" height="12"/>
			<rect x="38.5" y="180.5" width="13" height="13"/>
			<rect x="38.5" y="167.5" width="13" height="13"/>
			<rect x="38.5" y="154.5" width="13" height="13"/>
			<rect x="38.5" y="141.5" width="13" height="13"/>
			<rect x="38.5" y="128.5" fill="#FFFF00" width="13" height="13"/>
			<rect x="38.5" y="115.5" fill="#FFFF00" width="13" height="13"/>
			<rect x="38.5" y="102.5" fill="#FFFF00" width="13" height="13"/>
			<rect x="38.5" y="89.5" fill="#FFFF00" width="13" height="13"/>
			<rect x="38.5" y="76.5" fill="#FFFF00" width="13" height="13"/>
			<rect x="25.5" y="322.5" fill="#4D4D4D" width="13" height="12"/>
			<rect x="25.5" y="309.5" fill="#4D4D4D" width="13" height="13"/>
			<rect x="25.5" y="296.5" fill="#4D4D4D" width="13" height="13"/>
			<rect x="25.5" y="270.5" width="13" height="13"/>
			<rect x="25.5" y="257.5" fill="#0000FF" width="13" height="13"/>
			<rect x="25.5" y="244.5" fill="#0000FF" width="13" height="13"/>
			<rect x="25.5" y="231.5" width="13" height="13"/>
			<rect x="25.5" y="180.5" fill="#FFFF00" width="13" height="13"/>
			<rect x="25.5" y="167.5" fill="#FFFF00" width="13" height="13"/>
			<rect x="25.5" y="154.5" fill="#FFFF00" width="13" height="13"/>
			<rect x="25.5" y="141.5" fill="#FFFF00" width="13" height="13"/>
			<rect x="25.5" y="102.5" fill="#FFFF00" width="13" height="13"/>
			<rect x="25.5" y="89.5" fill="#FFFF00" width="13" height="13"/>
			<rect x="25.5" y="76.5" fill="#FFFF00" width="13" height="13"/>
			<rect x="25.5" y="64.5" fill="#FFFF00" width="13" height="12"/>
			<rect x="12.5" y="322.5" fill="#4D4D4D" width="13" height="12"/>
			<rect x="12.5" y="309.5" fill="#4D4D4D" width="13" height="13"/>
			<rect x="12.5" y="257.5" width="13" height="13"/>
			<rect x="12.5" y="244.5" width="13" height="13"/>
			<rect x="12.5" y="180.5" fill="#FFFF00" width="13" height="13"/>
			<rect x="12.5" y="167.5" fill="#FFFF00" width="13" height="13"/>
			<rect x="12.5" y="154.5" fill="#FFFF00" width="13" height="13"/>
			<rect x="12.5" y="76.5" fill="#FFFF00" width="13" height="13"/>
			<rect x="12.5" y="64.5" fill="#FFFF00" width="13" height="12"/>
		</g>
		<g>
		</g>
	</g>
</g>
</svg>
