<?xml version="1.0" encoding="utf-8"?>
<!-- Generator: Adobe Illustrator 18.0.0, SVG Export Plug-In . SVG Version: 6.00 Build 0)  -->
<!DOCTYPE svg PUBLIC "-//W3C//DTD SVG 1.1//EN" "http://www.w3.org/Graphics/SVG/1.1/DTD/svg11.dtd">
<svg version="1.1" id="Layer_1" xmlns="http://www.w3.org/2000/svg" xmlns:xlink="http://www.w3.org/1999/xlink" x="0px" y="0px"
	 viewBox="0 0 400 400" enable-background="new 0 0 400 400" xml:space="preserve">
<g>
	<g id="XMLID_1_">
		<g>
			<rect x="375" y="257.5" width="12" height="13"/>
			<rect x="375" y="244.5" width="12" height="13"/>
			<rect x="375" y="180.5" fill="#FFFF00" width="12" height="13"/>
			<rect x="375" y="167.5" fill="#FFFF00" width="12" height="13"/>
			<rect x="375" y="154.5" fill="#FFFF00" width="12" height="13"/>
			<rect x="375" y="76.5" fill="#FFFF00" width="12" height="13"/>
			<rect x="375" y="64.5" fill="#FFFF00" width="12" height="12"/>
			<rect x="362" y="322.5" fill="#FFFF00" width="13" height="12"/>
			<rect x="362" y="309.5" fill="#FFFF00" width="13" height="13"/>
			<rect x="362" y="296.5" fill="#FFFF00" width="13" height="13"/>
			<rect x="362" y="270.5" width="13" height="13"/>
			<rect x="362" y="257.5" fill="#0000FF" width="13" height="13"/>
			<rect x="362" y="244.5" fill="#0000FF" width="13" height="13"/>
			<rect x="362" y="231.5" width="13" height="13"/>
			<rect x="362" y="180.5" fill="#FFFF00" width="13" height="13"/>
			<rect x="362" y="167.5" fill="#FFFF00" width="13" height="13"/>
			<rect x="362" y="154.5" fill="#FFFF00" width="13" height="13"/>
			<rect x="362" y="141.5" fill="#FFFF00" width="13" height="13"/>
			<rect x="362" y="102.5" fill="#FFFF00" width="13" height="13"/>
			<rect x="362" y="89.5" fill="#FFFF00" width="13" height="13"/>
			<rect x="362" y="76.5" fill="#FFFF00" width="13" height="13"/>
			<rect x="362" y="64.5" fill="#FFFF00" width="13" height="12"/>
			<rect x="349" y="296.5" fill="#C2C2C2" width="13" height="13"/>
			<rect x="349" y="283.5" fill="#C2C2C2" width="13" height="13"/>
			<rect x="349" y="270.5" width="13" height="13"/>
			<rect x="349" y="257.5" fill="#0000FF" width="13" height="13"/>
			<rect x="349" y="244.5" fill="#0000FF" width="13" height="13"/>
			<rect x="349" y="231.5" width="13" height="13"/>
			<rect x="349" y="218.5" width="13" height="13"/>
			<rect x="349" y="205.5" width="13" height="13"/>
			<rect x="349" y="193.5" width="13" height="12"/>
			<rect x="349" y="180.5" width="13" height="13"/>
			<rect x="349" y="167.5" width="13" height="13"/>
			<rect x="349" y="154.5" width="13" height="13"/>
			<rect x="349" y="141.5" width="13" height="13"/>
			<rect x="349" y="128.5" fill="#FFFF00" width="13" height="13"/>
			<rect x="349" y="115.5" fill="#FFFF00" width="13" height="13"/>
			<rect x="349" y="102.5" fill="#FFFF00" width="13" height="13"/>
			<rect x="349" y="89.5" fill="#FFFF00" width="13" height="13"/>
			<rect x="349" y="76.5" fill="#FFFF00" width="13" height="13"/>
			<rect x="336" y="334.5" fill="#FFFF00" width="13" height="13"/>
			<rect x="336" y="322.5" fill="#FFFF00" width="13" height="12"/>
			<rect x="336" y="309.5" fill="#FFFF00" width="13" height="13"/>
			<rect x="336" y="296.5" fill="#C2C2C2" width="13" height="13"/>
			<rect x="336" y="283.5" fill="#C2C2C2" width="13" height="13"/>
			<rect x="336" y="270.5" width="13" height="13"/>
			<rect x="336" y="257.5" fill="#0000FF" width="13" height="13"/>
			<rect x="336" y="244.5" fill="#0000FF" width="13" height="13"/>
			<rect x="336" y="231.5" width="13" height="13"/>
			<rect x="336" y="218.5" fill="#B3B3B3" width="13" height="13"/>
			<rect x="336" y="205.5" fill="#B3B3B3" width="13" height="13"/>
			<rect x="336" y="193.5" fill="#B3B3B3" width="13" height="12"/>
			<rect x="336" y="180.5" fill="#B3B3B3" width="13" height="13"/>
			<rect x="336" y="167.5" width="13" height="13"/>
			<rect x="336" y="154.5" fill="#B3B3B3" width="13" height="13"/>
			<rect x="336" y="141.5" fill="#B3B3B3" width="13" height="13"/>
			<rect x="336" y="128.5" width="13" height="13"/>
			<rect x="336" y="115.5" fill="#FFFF00" width="13" height="13"/>
			<rect x="336" y="102.5" fill="#FFFF00" width="13" height="13"/>
			<rect x="336" y="89.5" fill="#FFFF00" width="13" height="13"/>
			<rect x="323" y="309.5" fill="#FFFF00" width="13" height="13"/>
			<rect x="323" y="296.5" fill="#FFFF00" width="13" height="13"/>
			<rect x="323" y="283.5" fill="#FFFF00" width="13" height="13"/>
			<rect x="323" y="270.5" width="13" height="13"/>
			<rect x="323" y="257.5" fill="#0000FF" width="13" height="13"/>
			<rect x="323" y="244.5" fill="#0000FF" width="13" height="13"/>
			<rect x="323" y="231.5" width="13" height="13"/>
			<rect x="323" y="218.5" width="13" height="13"/>
			<rect x="323" y="205.5" fill="#B3B3B3" width="13" height="13"/>
			<rect x="323" y="193.5" fill="#B3B3B3" width="13" height="12"/>
			<rect x="323" y="180.5" width="13" height="13"/>
			<rect x="323" y="167.5" fill="#B3B3B3" width="13" height="13"/>
			<rect x="323" y="154.5" width="13" height="13"/>
			<rect x="323" y="141.5" width="13" height="13"/>
			<rect x="323" y="128.5" width="13" height="13"/>
			<rect x="323" y="115.5" width="13" height="13"/>
			<rect x="323" y="102.5" fill="#FFFF00" width="13" height="13"/>
			<rect x="323" y="64.5" width="13" height="12"/>
			<rect x="323" y="51.5" width="13" height="13"/>
			<rect x="323" y="38.5" width="13" height="13"/>
			<rect x="323" y="25.5" width="13" height="13"/>
			<rect x="310" y="296.5" fill="#C2C2C2" width="13" height="13"/>
			<rect x="310" y="283.5" fill="#C2C2C2" width="13" height="13"/>
			<rect x="310" y="270.5" width="13" height="13"/>
			<rect x="310" y="257.5" fill="#0000FF" width="13" height="13"/>
			<rect x="310" y="244.5" fill="#0000FF" width="13" height="13"/>
			<rect x="310" y="231.5" width="13" height="13"/>
			<rect x="310" y="218.5" fill="#B3B3B3" width="13" height="13"/>
			<rect x="310" y="205.5" width="13" height="13"/>
			<rect x="310" y="193.5" width="13" height="12"/>
			<rect x="310" y="180.5" fill="#B3B3B3" width="13" height="13"/>
			<rect x="310" y="167.5" fill="#B3B3B3" width="13" height="13"/>
			<rect x="310" y="154.5" fill="#B3B3B3" width="13" height="13"/>
			<rect x="310" y="141.5" width="13" height="13"/>
			<rect x="310" y="128.5" width="13" height="13"/>
			<rect x="310" y="115.5" width="13" height="13"/>
			<rect x="310" y="102.5" width="13" height="13"/>
			<rect x="310" y="89.5" width="13" height="13"/>
			<rect x="310" y="76.5" width="13" height="13"/>
			<rect x="310" y="64.5" width="13" height="12"/>
			<rect x="310" y="51.5" fill="#B3B3B3" width="13" height="13"/>
			<rect x="310" y="38.5" fill="#B3B3B3" width="13" height="13"/>
			<rect x="310" y="25.5" width="13" height="13"/>
			<rect x="297" y="322.5" fill="#FFFF00" width="13" height="12"/>
			<rect x="297" y="309.5" fill="#FFFF00" width="13" height="13"/>
			<rect x="297" y="296.5" fill="#FFFF00" width="13" height="13"/>
			<rect x="297" y="270.5" width="13" height="13"/>
			<rect x="297" y="257.5" fill="#0000FF" width="13" height="13"/>
			<rect x="297" y="244.5" width="13" height="13"/>
			<rect x="297" y="231.5" width="13" height="13"/>
			<rect x="297" y="218.5" width="13" height="13"/>
			<rect x="297" y="205.5" width="13" height="13"/>
			<rect x="297" y="193.5" width="13" height="12"/>
			<rect x="297" y="180.5" width="13" height="13"/>
			<rect x="297" y="167.5" width="13" height="13"/>
			<rect x="297" y="154.5" width="13" height="13"/>
			<rect x="297" y="141.5" width="13" height="13"/>
			<rect x="297" y="128.5" fill="#E6E6E6" width="13" height="13"/>
			<rect x="297" y="115.5" fill="#E6E6E6" width="13" height="13"/>
			<rect x="297" y="102.5" fill="#E6E6E6" width="13" height="13"/>
			<rect x="297" y="89.5" fill="#E6E6E6" width="13" height="13"/>
			<rect x="297" y="76.5" width="13" height="13"/>
			<rect x="297" y="64.5" fill="#B3B3B3" width="13" height="12"/>
			<rect x="297" y="51.5" fill="#3FA9F5" width="13" height="13"/>
			<rect x="297" y="38.5" fill="#3FA9F5" width="13" height="13"/>
			<rect x="297" y="25.5" width="13" height="13"/>
			<rect x="284" y="322.5" width="13" height="12"/>
			<rect x="284" y="309.5" width="13" height="13"/>
			<rect x="284" y="296.5" width="13" height="13"/>
			<rect x="284" y="283.5" width="13" height="13"/>
			<rect x="284" y="270.5" width="13" height="13"/>
			<rect x="284" y="257.5" width="13" height="13"/>
			<rect x="284" y="244.5" width="13" height="13"/>
			<rect x="284" y="231.5" fill="#E6E6E6" width="13" height="13"/>
			<rect x="284" y="218.5" fill="#E6E6E6" width="13" height="13"/>
			<rect x="284" y="205.5" fill="#E6E6E6" width="13" height="13"/>
			<rect x="284" y="193.5" fill="#E6E6E6" width="13" height="12"/>
			<rect x="284" y="180.5" fill="#E6E6E6" width="13" height="13"/>
			<rect x="284" y="167.5" fill="#E6E6E6" width="13" height="13"/>
			<rect x="284" y="154.5" fill="#E6E6E6" width="13" height="13"/>
			<rect x="284" y="141.5" fill="#E6E6E6" width="13" height="13"/>
			<rect x="284" y="128.5" fill="#FAFAFA" width="13" height="13"/>
			<rect x="284" y="115.5" fill="#FAFAFA" width="13" height="13"/>
			<rect x="284" y="102.5" fill="#FAFAFA" width="13" height="13"/>
			<rect x="284" y="89.5" fill="#E6E6E6" width="13" height="13"/>
			<rect x="284" y="76.5" width="13" height="13"/>
			<rect x="284" y="64.5" fill="#B3B3B3" width="13" height="12"/>
			<rect x="284" y="51.5" fill="#808080" width="13" height="13"/>
			<rect x="284" y="38.5" fill="#808080" width="13" height="13"/>
			<rect x="284" y="25.5" width="13" height="13"/>
			<rect x="271" y="322.5" width="13" height="12"/>
			<rect x="271" y="309.5" fill="#FFFF00" width="13" height="13"/>
			<rect x="271" y="296.5" fill="#FFFF00" width="13" height="13"/>
			<rect x="271" y="283.5" fill="#FFFF00" width="13" height="13"/>
			<rect x="271" y="270.5" fill="#FFFF00" width="13" height="13"/>
			<rect x="271" y="257.5" width="13" height="13"/>
			<rect x="271" y="244.5" fill="#E6E6E6" width="13" height="13"/>
			<rect x="271" y="231.5" fill="#FAFAFA" width="13" height="13"/>
			<rect x="271" y="218.5" fill="#FAFAFA" width="13" height="13"/>
			<rect x="271" y="205.5" fill="#E6E6E6" width="13" height="13"/>
			<rect x="271" y="193.5" fill="#FAFAFA" width="13" height="12"/>
			<rect x="271" y="180.5" fill="#FAFAFA" width="13" height="13"/>
			<rect x="271" y="167.5" fill="#FAFAFA" width="13" height="13"/>
			<rect x="271" y="154.5" fill="#FAFAFA" width="13" height="13"/>
			<rect x="271" y="141.5" fill="#FAFAFA" width="13" height="13"/>
			<rect x="271" y="128.5" fill="#FAFAFA" width="13" height="13"/>
			<rect x="271" y="115.5" fill="#E6E6E6" width="13" height="13"/>
			<rect x="271" y="102.5" fill="#E6E6E6" width="13" height="13"/>
			<rect x="271" y="89.5" fill="#FF7400" width="13" height="13"/>
			<rect x="271" y="76.5" fill="#FF7400" width="13" height="13"/>
			<rect x="271" y="64.5" fill="#B3B3B3" width="13" height="12"/>
			<rect x="271" y="51.5" fill="#B3B3B3" width="13" height="13"/>
			<rect x="271" y="38.5" fill="#B3B3B3" width="13" height="13"/>
			<rect x="271" y="25.5" width="13" height="13"/>
			<rect x="258" y="322.5" width="13" height="12"/>
			<rect x="258" y="309.5" fill="#29ABE2" width="13" height="13"/>
			<rect x="258" y="296.5" fill="#29ABE2" width="13" height="13"/>
			<rect x="258" y="283.5" fill="#FFFF00" width="13" height="13"/>
			<rect x="258" y="270.5" fill="#FFFF00" width="13" height="13"/>
			<rect x="258" y="257.5" width="13" height="13"/>
			<rect x="258" y="244.5" fill="#E6E6E6" width="13" height="13"/>
			<rect x="258" y="231.5" fill="#E6E6E6" width="13" height="13"/>
			<rect x="258" y="218.5" fill="#E6E6E6" width="13" height="13"/>
			<rect x="258" y="205.5" fill="#E6E6E6" width="13" height="13"/>
			<rect x="258" y="193.5" fill="#E6E6E6" width="13" height="12"/>
			<rect x="258" y="180.5" fill="#E6E6E6" width="13" height="13"/>
			<rect x="258" y="167.5" fill="#E6E6E6" width="13" height="13"/>
			<rect x="258" y="154.5" fill="#E6E6E6" width="13" height="13"/>
			<rect x="258" y="141.5" fill="#E6E6E6" width="13" height="13"/>
			<rect x="258" y="128.5" fill="#E6E6E6" width="13" height="13"/>
			<rect x="258" y="115.5" fill="#E6E6E6" width="13" height="13"/>
			<rect x="258" y="102.5" fill="#FF7400" width="13" height="13"/>
			<rect x="258" y="89.5" fill="#FF7400" width="13" height="13"/>
			<rect x="258" y="76.5" fill="#FF7400" width="13" height="13"/>
			<rect x="258" y="64.5" fill="#B3B3B3" width="13" height="12"/>
			<rect x="258" y="51.5" fill="#FCEE21" width="13" height="13"/>
			<rect x="258" y="38.5" fill="#3FA9F5" width="13" height="13"/>
			<rect x="258" y="25.5" width="13" height="13"/>
			<rect x="246" y="322.5" width="12" height="12"/>
			<rect x="246" y="309.5" fill="#FFFF00" width="12" height="13"/>
			<rect x="246" y="296.5" fill="#FFFF00" width="12" height="13"/>
			<rect x="246" y="283.5" fill="#FFFF00" width="12" height="13"/>
			<rect x="246" y="270.5" fill="#FFFF00" width="12" height="13"/>
			<rect x="246" y="257.5" width="12" height="13"/>
			<rect x="246" y="244.5" fill="#E6E6E6" width="12" height="13"/>
			<rect x="246" y="231.5" fill="#FFFF00" width="12" height="13"/>
			<rect x="246" y="218.5" fill="#E6E6E6" width="12" height="13"/>
			<rect x="246" y="205.5" fill="#E6E6E6" width="12" height="13"/>
			<rect x="246" y="193.5" fill="#E6E6E6" width="12" height="12"/>
			<rect x="246" y="180.5" fill="#E6E6E6" width="12" height="13"/>
			<rect x="246" y="167.5" fill="#FFD200" width="12" height="13"/>
			<rect x="246" y="154.5" fill="#FFD200" width="12" height="13"/>
			<rect x="246" y="141.5" fill="#FFD200" width="12" height="13"/>
			<rect x="246" y="128.5" fill="#E6E6E6" width="12" height="13"/>
			<rect x="246" y="115.5" fill="#E6E6E6" width="12" height="13"/>
			<rect x="246" y="102.5" fill="#FF7400" width="12" height="13"/>
			<rect x="246" y="89.5" fill="#FF7400" width="12" height="13"/>
			<rect x="246" y="76.5" width="12" height="13"/>
			<rect x="246" y="64.5" fill="#B3B3B3" width="12" height="12"/>
			<rect x="246" y="51.5" fill="#3FA9F5" width="12" height="13"/>
			<rect x="246" y="38.5" fill="#FCEE21" width="12" height="13"/>
			<rect x="246" y="25.5" width="12" height="13"/>
			<rect x="233" y="322.5" width="13" height="12"/>
			<rect x="233" y="309.5" width="13" height="13"/>
			<rect x="233" y="296.5" width="13" height="13"/>
			<rect x="233" y="283.5" width="13" height="13"/>
			<rect x="233" y="270.5" width="13" height="13"/>
			<rect x="233" y="257.5" width="13" height="13"/>
			<rect x="233" y="244.5" fill="#E6E6E6" width="13" height="13"/>
			<rect x="233" y="231.5" fill="#FFFF00" width="13" height="13"/>
			<rect x="233" y="218.5" fill="#FFFF00" width="13" height="13"/>
			<rect x="233" y="205.5" fill="#E6E6E6" width="13" height="13"/>
			<rect x="233" y="193.5" fill="#E6E6E6" width="13" height="12"/>
			<rect x="233" y="180.5" fill="#E6E6E6" width="13" height="13"/>
			<rect x="233" y="167.5" fill="#FFD200" width="13" height="13"/>
			<rect x="233" y="154.5" fill="#FFD200" width="13" height="13"/>
			<rect x="233" y="141.5" fill="#FFD200" width="13" height="13"/>
			<rect x="233" y="128.5" fill="#E6E6E6" width="13" height="13"/>
			<rect x="233" y="115.5" fill="#FF9600" width="13" height="13"/>
			<rect x="233" y="102.5" fill="#FF9600" width="13" height="13"/>
			<rect x="233" y="89.5" fill="#E6E6E6" width="13" height="13"/>
			<rect x="233" y="76.5" width="13" height="13"/>
			<rect x="233" y="64.5" fill="#B3B3B3" width="13" height="12"/>
			<rect x="233" y="51.5" fill="#FCEE21" width="13" height="13"/>
			<rect x="233" y="38.5" fill="#3FA9F5" width="13" height="13"/>
			<rect x="233" y="25.5" width="13" height="13"/>
			<rect x="220" y="257.5" width="13" height="13"/>
			<rect x="220" y="244.5" fill="#E6E6E6" width="13" height="13"/>
			<rect x="220" y="231.5" fill="#FFFF00" width="13" height="13"/>
			<rect x="220" y="218.5" fill="#FFFFFF" width="13" height="13"/>
			<rect x="220" y="205.5" fill="#FFFF00" width="13" height="13"/>
			<rect x="220" y="193.5" fill="#E6E6E6" width="13" height="12"/>
			<rect x="220" y="180.5" fill="#E6E6E6" width="13" height="13"/>
			<rect x="220" y="167.5" fill="#E6E6E6" width="13" height="13"/>
			<rect x="220" y="154.5" fill="#E6E6E6" width="13" height="13"/>
			<rect x="220" y="141.5" fill="#E6E6E6" width="13" height="13"/>
			<rect x="220" y="128.5" fill="#FFB600" width="13" height="13"/>
			<rect x="220" y="115.5" fill="#FFB600" width="13" height="13"/>
			<rect x="220" y="102.5" fill="#E6E6E6" width="13" height="13"/>
			<rect x="220" y="89.5" fill="#E6E6E6" width="13" height="13"/>
			<rect x="220" y="76.5" width="13" height="13"/>
			<rect x="220" y="64.5" fill="#B3B3B3" width="13" height="12"/>
			<rect x="220" y="51.5" fill="#3FA9F5" width="13" height="13"/>
			<rect x="220" y="38.5" fill="#FCEE21" width="13" height="13"/>
			<rect x="220" y="25.5" width="13" height="13"/>
			<rect x="207" y="257.5" width="13" height="13"/>
			<rect x="207" y="244.5" fill="#E6E6E6" width="13" height="13"/>
			<rect x="207" y="231.5" fill="#FFFF00" width="13" height="13"/>
			<rect x="207" y="218.5" fill="#FFFFFF" width="13" height="13"/>
			<rect x="207" y="205.5" fill="#FFFFFF" width="13" height="13"/>
			<rect x="207" y="193.5" fill="#FFFF00" width="13" height="12"/>
			<rect x="207" y="180.5" fill="#E6E6E6" width="13" height="13"/>
			<rect x="207" y="167.5" fill="#E6E6E6" width="13" height="13"/>
			<rect x="207" y="154.5" fill="#E6E6E6" width="13" height="13"/>
			<rect x="207" y="141.5" fill="#FFD200" width="13" height="13"/>
			<rect x="207" y="128.5" fill="#E6E6E6" width="13" height="13"/>
			<rect x="207" y="115.5" fill="#E6E6E6" width="13" height="13"/>
			<rect x="207" y="102.5" fill="#E6E6E6" width="13" height="13"/>
			<rect x="207" y="89.5" fill="#E6E6E6" width="13" height="13"/>
			<rect x="207" y="76.5" width="13" height="13"/>
			<rect x="207" y="64.5" fill="#B3B3B3" width="13" height="12"/>
			<rect x="207" y="51.5" fill="#FCEE21" width="13" height="13"/>
			<rect x="207" y="38.5" fill="#3FA9F5" width="13" height="13"/>
			<rect x="207" y="25.5" width="13" height="13"/>
			<rect x="194" y="257.5" width="13" height="13"/>
			<rect x="194" y="244.5" fill="#E6E6E6" width="13" height="13"/>
			<rect x="194" y="231.5" fill="#FFFF00" width="13" height="13"/>
			<rect x="194" y="218.5" fill="#FFFFFF" width="13" height="13"/>
			<rect x="194" y="205.5" fill="#FFFFFF" width="13" height="13"/>
			<rect x="194" y="193.5" fill="#FFFFFF" width="13" height="12"/>
			<rect x="194" y="180.5" fill="#FFFF00" width="13" height="13"/>
			<rect x="194" y="167.5" fill="#E6E6E6" width="13" height="13"/>
			<rect x="194" y="154.5" fill="#E6E6E6" width="13" height="13"/>
			<rect x="194" y="141.5" fill="#E6E6E6" width="13" height="13"/>
			<rect x="194" y="128.5" fill="#E6E6E6" width="13" height="13"/>
			<rect x="194" y="115.5" fill="#E6E6E6" width="13" height="13"/>
			<rect x="194" y="102.5" fill="#E6E6E6" width="13" height="13"/>
			<rect x="194" y="89.5" fill="#E6E6E6" width="13" height="13"/>
			<rect x="194" y="76.5" width="13" height="13"/>
			<rect x="194" y="64.5" fill="#B3B3B3" width="13" height="12"/>
			<rect x="194" y="51.5" fill="#3FA9F5" width="13" height="13"/>
			<rect x="194" y="38.5" fill="#FCEE21" width="13" height="13"/>
			<rect x="194" y="25.5" width="13" height="13"/>
			<rect x="194" y="12.5" fill="#F7931E" width="13" height="13"/>
			<polygon fill="#F7931E" points="207,0 207,12.5 194,12.5 194,0 194,-0.5 207,-0.5 			"/>
			<rect x="181" y="257.5" width="13" height="13"/>
			<rect x="181" y="244.5" fill="#E6E6E6" width="13" height="13"/>
			<rect x="181" y="231.5" fill="#FFFF00" width="13" height="13"/>
			<rect x="181" y="218.5" fill="#FFFFFF" width="13" height="13"/>
			<rect x="181" y="205.5" fill="#FFFFFF" width="13" height="13"/>
			<rect x="181" y="193.5" fill="#FFFF00" width="13" height="12"/>
			<rect x="181" y="180.5" fill="#E6E6E6" width="13" height="13"/>
			<rect x="181" y="167.5" fill="#E6E6E6" width="13" height="13"/>
			<rect x="181" y="154.5" fill="#E6E6E6" width="13" height="13"/>
			<rect x="181" y="141.5" fill="#FFD200" width="13" height="13"/>
			<rect x="181" y="128.5" fill="#E6E6E6" width="13" height="13"/>
			<rect x="181" y="115.5" fill="#E6E6E6" width="13" height="13"/>
			<rect x="181" y="102.5" fill="#E6E6E6" width="13" height="13"/>
			<rect x="181" y="89.5" fill="#E6E6E6" width="13" height="13"/>
			<rect x="181" y="76.5" width="13" height="13"/>
			<rect x="181" y="64.5" fill="#B3B3B3" width="13" height="12"/>
			<rect x="181" y="51.5" fill="#FCEE21" width="13" height="13"/>
			<rect x="181" y="38.5" fill="#3FA9F5" width="13" height="13"/>
			<rect x="181" y="25.5" width="13" height="13"/>
			<rect x="181" y="12.5" fill="#F7931E" width="13" height="13"/>
			<polygon fill="#F7931E" points="194,0 194,12.5 181,12.5 181,0 181,-0.5 194,-0.5 			"/>
			<rect x="168" y="257.5" width="13" height="13"/>
			<rect x="168" y="244.5" fill="#E6E6E6" width="13" height="13"/>
			<rect x="168" y="231.5" fill="#FFFF00" width="13" height="13"/>
			<rect x="168" y="218.5" fill="#FFFFFF" width="13" height="13"/>
			<rect x="168" y="205.5" fill="#FFFF00" width="13" height="13"/>
			<rect x="168" y="193.5" fill="#E6E6E6" width="13" height="12"/>
			<rect x="168" y="180.5" fill="#E6E6E6" width="13" height="13"/>
			<rect x="168" y="167.5" fill="#E6E6E6" width="13" height="13"/>
			<rect x="168" y="154.5" fill="#E6E6E6" width="13" height="13"/>
			<rect x="168" y="141.5" fill="#E6E6E6" width="13" height="13"/>
			<rect x="168" y="128.5" fill="#FFB600" width="13" height="13"/>
			<rect x="168" y="115.5" fill="#FFB600" width="13" height="13"/>
			<rect x="168" y="102.5" fill="#E6E6E6" width="13" height="13"/>
			<rect x="168" y="89.5" fill="#E6E6E6" width="13" height="13"/>
			<rect x="168" y="76.5" width="13" height="13"/>
			<rect x="168" y="64.5" fill="#B3B3B3" width="13" height="12"/>
			<rect x="168" y="51.5" fill="#3FA9F5" width="13" height="13"/>
			<rect x="168" y="38.5" fill="#FCEE21" width="13" height="13"/>
			<rect x="168" y="25.5" width="13" height="13"/>
			<rect x="155" y="334.5" width="13" height="13"/>
			<rect x="155" y="322.5" width="13" height="12"/>
			<rect x="155" y="309.5" width="13" height="13"/>
			<rect x="155" y="296.5" width="13" height="13"/>
			<rect x="155" y="283.5" width="13" height="13"/>
			<rect x="155" y="270.5" width="13" height="13"/>
			<rect x="155" y="257.5" width="13" height="13"/>
			<rect x="155" y="244.5" fill="#E6E6E6" width="13" height="13"/>
			<rect x="155" y="231.5" fill="#FFFF00" width="13" height="13"/>
			<rect x="155" y="218.5" fill="#FFFF00" width="13" height="13"/>
			<rect x="155" y="205.5" fill="#E6E6E6" width="13" height="13"/>
			<rect x="155" y="193.5" fill="#E6E6E6" width="13" height="12"/>
			<rect x="155" y="180.5" fill="#E6E6E6" width="13" height="13"/>
			<rect x="155" y="167.5" fill="#FFD200" width="13" height="13"/>
			<rect x="155" y="154.5" fill="#FFD200" width="13" height="13"/>
			<rect x="155" y="141.5" fill="#FFD200" width="13" height="13"/>
			<rect x="155" y="128.5" fill="#E6E6E6" width="13" height="13"/>
			<rect x="155" y="115.5" fill="#FF9600" width="13" height="13"/>
			<rect x="155" y="102.5" fill="#FF9600" width="13" height="13"/>
			<rect x="155" y="89.5" fill="#E6E6E6" width="13" height="13"/>
			<rect x="155" y="76.5" width="13" height="13"/>
			<rect x="155" y="64.5" fill="#B3B3B3" width="13" height="12"/>
			<rect x="155" y="51.5" fill="#FCEE21" width="13" height="13"/>
			<rect x="155" y="38.5" fill="#3FA9F5" width="13" height="13"/>
			<rect x="155" y="25.5" width="13" height="13"/>
			<rect x="142" y="334.5" width="13" height="13"/>
			<rect x="142" y="322.5" fill="#FFFF00" width="13" height="12"/>
			<rect x="142" y="309.5" fill="#FFFF00" width="13" height="13"/>
			<rect x="142" y="296.5" fill="#FFFF00" width="13" height="13"/>
			<rect x="142" y="283.5" fill="#FFFF00" width="13" height="13"/>
			<rect x="142" y="270.5" fill="#FFFF00" width="13" height="13"/>
			<rect x="142" y="257.5" width="13" height="13"/>
			<rect x="142" y="244.5" fill="#E6E6E6" width="13" height="13"/>
			<rect x="142" y="231.5" fill="#FFFF00" width="13" height="13"/>
			<rect x="142" y="218.5" fill="#E6E6E6" width="13" height="13"/>
			<rect x="142" y="205.5" fill="#E6E6E6" width="13" height="13"/>
			<rect x="142" y="193.5" fill="#E6E6E6" width="13" height="12"/>
			<rect x="142" y="180.5" fill="#E6E6E6" width="13" height="13"/>
			<rect x="142" y="167.5" fill="#FFD200" width="13" height="13"/>
			<rect x="142" y="154.5" fill="#FFD200" width="13" height="13"/>
			<rect x="142" y="141.5" fill="#FFD200" width="13" height="13"/>
			<rect x="142" y="128.5" fill="#E6E6E6" width="13" height="13"/>
			<rect x="142" y="115.5" fill="#E6E6E6" width="13" height="13"/>
			<rect x="142" y="102.5" fill="#FF7400" width="13" height="13"/>
			<rect x="142" y="89.5" fill="#FF7400" width="13" height="13"/>
			<rect x="142" y="76.5" width="13" height="13"/>
			<rect x="142" y="64.5" fill="#B3B3B3" width="13" height="12"/>
			<rect x="142" y="51.5" fill="#3FA9F5" width="13" height="13"/>
			<rect x="142" y="38.5" fill="#FCEE21" width="13" height="13"/>
			<rect x="142" y="25.5" width="13" height="13"/>
			<rect x="129" y="334.5" width="13" height="13"/>
			<rect x="129" y="322.5" fill="#29ABE2" width="13" height="12"/>
			<rect x="129" y="309.5" fill="#29ABE2" width="13" height="13"/>
			<rect x="129" y="296.5" fill="#29ABE2" width="13" height="13"/>
			<rect x="129" y="283.5" fill="#FFFF00" width="13" height="13"/>
			<rect x="129" y="270.5" fill="#29ABE2" width="13" height="13"/>
			<rect x="129" y="257.5" width="13" height="13"/>
			<rect x="129" y="244.5" fill="#E6E6E6" width="13" height="13"/>
			<rect x="129" y="231.5" fill="#E6E6E6" width="13" height="13"/>
			<rect x="129" y="218.5" fill="#E6E6E6" width="13" height="13"/>
			<rect x="129" y="205.5" fill="#E6E6E6" width="13" height="13"/>
			<rect x="129" y="193.5" fill="#E6E6E6" width="13" height="12"/>
			<rect x="129" y="180.5" fill="#E6E6E6" width="13" height="13"/>
			<rect x="129" y="167.5" fill="#E6E6E6" width="13" height="13"/>
			<rect x="129" y="154.5" fill="#E6E6E6" width="13" height="13"/>
			<rect x="129" y="141.5" fill="#E6E6E6" width="13" height="13"/>
			<rect x="129" y="128.5" fill="#E6E6E6" width="13" height="13"/>
			<rect x="129" y="115.5" fill="#E6E6E6" width="13" height="13"/>
			<rect x="129" y="102.5" fill="#FF7400" width="13" height="13"/>
			<rect x="129" y="89.5" fill="#FF7400" width="13" height="13"/>
			<rect x="129" y="76.5" fill="#FF7400" width="13" height="13"/>
			<rect x="129" y="64.5" fill="#B3B3B3" width="13" height="12"/>
			<rect x="129" y="51.5" fill="#FCEE21" width="13" height="13"/>
			<rect x="129" y="38.5" fill="#3FA9F5" width="13" height="13"/>
			<rect x="129" y="25.5" width="13" height="13"/>
			<rect x="117" y="334.5" width="12" height="13"/>
			<rect x="117" y="322.5" fill="#FFFF00" width="12" height="12"/>
			<rect x="117" y="309.5" fill="#FFFF00" width="12" height="13"/>
			<rect x="117" y="296.5" fill="#FFFF00" width="12" height="13"/>
			<rect x="117" y="283.5" fill="#FFFF00" width="12" height="13"/>
			<rect x="117" y="270.5" fill="#FFFF00" width="12" height="13"/>
			<rect x="117" y="257.5" width="12" height="13"/>
			<rect x="117" y="244.5" fill="#E6E6E6" width="12" height="13"/>
			<rect x="117" y="231.5" fill="#E6E6E6" width="12" height="13"/>
			<rect x="117" y="218.5" fill="#E6E6E6" width="12" height="13"/>
			<rect x="117" y="205.5" fill="#E6E6E6" width="12" height="13"/>
			<rect x="117" y="193.5" fill="#E6E6E6" width="12" height="12"/>
			<rect x="117" y="180.5" fill="#E6E6E6" width="12" height="13"/>
			<rect x="117" y="167.5" fill="#E6E6E6" width="12" height="13"/>
			<rect x="117" y="154.5" fill="#E6E6E6" width="12" height="13"/>
			<rect x="117" y="141.5" fill="#E6E6E6" width="12" height="13"/>
			<rect x="117" y="128.5" fill="#E6E6E6" width="12" height="13"/>
			<rect x="117" y="115.5" fill="#E6E6E6" width="12" height="13"/>
			<rect x="117" y="102.5" fill="#E6E6E6" width="12" height="13"/>
			<rect x="117" y="89.5" fill="#FF7400" width="12" height="13"/>
			<rect x="117" y="76.5" fill="#FF7400" width="12" height="13"/>
			<rect x="117" y="64.5" fill="#B3B3B3" width="12" height="12"/>
			<rect x="117" y="51.5" fill="#B3B3B3" width="12" height="13"/>
			<rect x="117" y="38.5" fill="#B3B3B3" width="12" height="13"/>
			<rect x="117" y="25.5" width="12" height="13"/>
			<rect x="104" y="334.5" width="13" height="13"/>
			<rect x="104" y="322.5" width="13" height="12"/>
			<rect x="104" y="309.5" width="13" height="13"/>
			<rect x="104" y="296.5" width="13" height="13"/>
			<rect x="104" y="283.5" width="13" height="13"/>
			<rect x="104" y="270.5" width="13" height="13"/>
			<rect x="104" y="257.5" width="13" height="13"/>
			<rect x="104" y="244.5" width="13" height="13"/>
			<rect x="104" y="231.5" fill="#E6E6E6" width="13" height="13"/>
			<rect x="104" y="218.5" fill="#E6E6E6" width="13" height="13"/>
			<rect x="104" y="205.5" fill="#E6E6E6" width="13" height="13"/>
			<rect x="104" y="193.5" fill="#E6E6E6" width="13" height="12"/>
			<rect x="104" y="180.5" fill="#E6E6E6" width="13" height="13"/>
			<rect x="104" y="167.5" fill="#E6E6E6" width="13" height="13"/>
			<rect x="104" y="154.5" fill="#E6E6E6" width="13" height="13"/>
			<rect x="104" y="141.5" fill="#E6E6E6" width="13" height="13"/>
			<rect x="104" y="128.5" fill="#E6E6E6" width="13" height="13"/>
			<rect x="104" y="115.5" fill="#E6E6E6" width="13" height="13"/>
			<rect x="104" y="102.5" fill="#E6E6E6" width="13" height="13"/>
			<rect x="104" y="89.5" fill="#E6E6E6" width="13" height="13"/>
			<rect x="104" y="76.5" width="13" height="13"/>
			<rect x="104" y="64.5" fill="#B3B3B3" width="13" height="12"/>
			<rect x="104" y="51.5" fill="#808080" width="13" height="13"/>
			<rect x="104" y="38.5" fill="#808080" width="13" height="13"/>
			<rect x="104" y="25.5" width="13" height="13"/>
			<rect x="91" y="322.5" fill="#4D4D4D" width="13" height="12"/>
			<rect x="91" y="309.5" fill="#4D4D4D" width="13" height="13"/>
			<rect x="91" y="296.5" fill="#4D4D4D" width="13" height="13"/>
			<rect x="91" y="270.5" width="13" height="13"/>
			<rect x="91" y="257.5" fill="#0000FF" width="13" height="13"/>
			<rect x="91" y="244.5" width="13" height="13"/>
			<rect x="91" y="231.5" width="13" height="13"/>
			<rect x="91" y="218.5" width="13" height="13"/>
			<rect x="91" y="205.5" width="13" height="13"/>
			<rect x="91" y="193.5" width="13" height="12"/>
			<rect x="91" y="180.5" width="13" height="13"/>
			<rect x="91" y="167.5" width="13" height="13"/>
			<rect x="91" y="154.5" width="13" height="13"/>
			<rect x="91" y="141.5" width="13" height="13"/>
			<rect x="91" y="128.5" fill="#E6E6E6" width="13" height="13"/>
			<rect x="91" y="115.5" fill="#E6E6E6" width="13" height="13"/>
			<rect x="91" y="102.5" fill="#E6E6E6" width="13" height="13"/>
			<rect x="91" y="89.5" fill="#E6E6E6" width="13" height="13"/>
			<rect x="91" y="76.5" width="13" height="13"/>
			<rect x="91" y="64.5" fill="#B3B3B3" width="13" height="12"/>
			<rect x="91" y="51.5" fill="#3FA9F5" width="13" height="13"/>
			<rect x="91" y="38.5" fill="#3FA9F5" width="13" height="13"/>
			<rect x="91" y="25.5" width="13" height="13"/>
			<rect x="78" y="296.5" fill="#C2C2C2" width="13" height="13"/>
			<rect x="78" y="283.5" fill="#C2C2C2" width="13" height="13"/>
			<rect x="78" y="270.5" width="13" height="13"/>
			<rect x="78" y="257.5" fill="#0000FF" width="13" height="13"/>
			<rect x="78" y="244.5" fill="#0000FF" width="13" height="13"/>
			<rect x="78" y="231.5" width="13" height="13"/>
			<rect x="78" y="218.5" fill="#B3B3B3" width="13" height="13"/>
			<rect x="78" y="205.5" fill="#B3B3B3" width="13" height="13"/>
			<rect x="78" y="193.5" fill="#B3B3B3" width="13" height="12"/>
			<rect x="78" y="180.5" fill="#00FFFF" width="13" height="13"/>
			<rect x="78" y="167.5" fill="#00FFFF" width="13" height="13"/>
			<rect x="78" y="154.5" fill="#B3B3B3" width="13" height="13"/>
			<rect x="78" y="141.5" width="13" height="13"/>
			<rect x="78" y="128.5" width="13" height="13"/>
			<rect x="78" y="115.5" width="13" height="13"/>
			<rect x="78" y="102.5" width="13" height="13"/>
			<rect x="78" y="89.5" width="13" height="13"/>
			<rect x="78" y="76.5" width="13" height="13"/>
			<rect x="78" y="64.5" width="13" height="12"/>
			<rect x="78" y="51.5" fill="#B3B3B3" width="13" height="13"/>
			<rect x="78" y="38.5" fill="#B3B3B3" width="13" height="13"/>
			<rect x="78" y="25.5" width="13" height="13"/>
			<rect x="65" y="322.5" fill="#4D4D4D" width="13" height="12"/>
			<rect x="65" y="309.5" fill="#4D4D4D" width="13" height="13"/>
			<rect x="65" y="296.5" fill="#4D4D4D" width="13" height="13"/>
			<rect x="65" y="283.5" fill="#C2C2C2" width="13" height="13"/>
			<rect x="65" y="270.5" width="13" height="13"/>
			<rect x="65" y="257.5" fill="#0000FF" width="13" height="13"/>
			<rect x="65" y="244.5" fill="#0000FF" width="13" height="13"/>
			<rect x="65" y="231.5" width="13" height="13"/>
			<rect x="65" y="218.5" fill="#00FFFF" width="13" height="13"/>
			<rect x="65" y="205.5" fill="#00FFFF" width="13" height="13"/>
			<rect x="65" y="193.5" fill="#B3B3B3" width="13" height="12"/>
			<rect x="65" y="180.5" fill="#00FFFF" width="13" height="13"/>
			<rect x="65" y="167.5" fill="#B3B3B3" width="13" height="13"/>
			<rect x="65" y="154.5" fill="#00FFFF" width="13" height="13"/>
			<rect x="65" y="141.5" fill="#00FFFF" width="13" height="13"/>
			<rect x="65" y="128.5" fill="#00FFFF" width="13" height="13"/>
			<rect x="65" y="115.5" width="13" height="13"/>
			<rect x="65" y="102.5" fill="#FFFF00" width="13" height="13"/>
			<rect x="65" y="64.5" width="13" height="12"/>
			<rect x="65" y="51.5" width="13" height="13"/>
			<rect x="65" y="38.5" width="13" height="13"/>
			<rect x="65" y="25.5" width="13" height="13"/>
			<rect x="52" y="322.5" fill="#4D4D4D" width="13" height="12"/>
			<rect x="52" y="309.5" fill="#4D4D4D" width="13" height="13"/>
			<rect x="52" y="296.5" fill="#4D4D4D" width="13" height="13"/>
			<rect x="52" y="283.5" fill="#C2C2C2" width="13" height="13"/>
			<rect x="52" y="270.5" width="13" height="13"/>
			<rect x="52" y="257.5" fill="#0000FF" width="13" height="13"/>
			<rect x="52" y="244.5" fill="#0000FF" width="13" height="13"/>
			<rect x="52" y="231.5" width="13" height="13"/>
			<rect x="52" y="218.5" fill="#B3B3B3" width="13" height="13"/>
			<rect x="52" y="205.5" fill="#00FFFF" width="13" height="13"/>
			<rect x="52" y="193.5" fill="#00FFFF" width="13" height="12"/>
			<rect x="52" y="180.5" fill="#00FFFF" width="13" height="13"/>
			<rect x="52" y="167.5" fill="#B3B3B3" width="13" height="13"/>
			<rect x="52" y="154.5" fill="#B3B3B3" width="13" height="13"/>
			<rect x="52" y="141.5" fill="#B3B3B3" width="13" height="13"/>
			<rect x="52" y="128.5" width="13" height="13"/>
			<rect x="52" y="115.5" fill="#FFFF00" width="13" height="13"/>
			<rect x="52" y="102.5" fill="#FFFF00" width="13" height="13"/>
			<rect x="52" y="89.5" fill="#FFFF00" width="13" height="13"/>
			<rect x="39" y="296.5" fill="#C2C2C2" width="13" height="13"/>
			<rect x="39" y="283.5" fill="#C2C2C2" width="13" height="13"/>
			<rect x="39" y="270.5" width="13" height="13"/>
			<rect x="39" y="257.5" fill="#0000FF" width="13" height="13"/>
			<rect x="39" y="244.5" fill="#0000FF" width="13" height="13"/>
			<rect x="39" y="231.5" width="13" height="13"/>
			<rect x="39" y="218.5" width="13" height="13"/>
			<rect x="39" y="205.5" width="13" height="13"/>
			<rect x="39" y="193.5" width="13" height="12"/>
			<rect x="39" y="180.5" width="13" height="13"/>
			<rect x="39" y="167.5" width="13" height="13"/>
			<rect x="39" y="154.5" width="13" height="13"/>
			<rect x="39" y="141.5" width="13" height="13"/>
			<rect x="39" y="128.5" fill="#FFFF00" width="13" height="13"/>
			<rect x="39" y="115.5" fill="#FFFF00" width="13" height="13"/>
			<rect x="39" y="102.5" fill="#FFFF00" width="13" height="13"/>
			<rect x="39" y="89.5" fill="#FFFF00" width="13" height="13"/>
			<rect x="39" y="76.5" fill="#FFFF00" width="13" height="13"/>
			<rect x="26" y="322.5" fill="#4D4D4D" width="13" height="12"/>
			<rect x="26" y="309.5" fill="#4D4D4D" width="13" height="13"/>
			<rect x="26" y="296.5" fill="#4D4D4D" width="13" height="13"/>
			<rect x="26" y="270.5" width="13" height="13"/>
			<rect x="26" y="257.5" fill="#0000FF" width="13" height="13"/>
			<rect x="26" y="244.5" fill="#0000FF" width="13" height="13"/>
			<rect x="26" y="231.5" width="13" height="13"/>
			<rect x="26" y="180.5" fill="#FFFF00" width="13" height="13"/>
			<rect x="26" y="167.5" fill="#FFFF00" width="13" height="13"/>
			<rect x="26" y="154.5" fill="#FFFF00" width="13" height="13"/>
			<rect x="26" y="141.5" fill="#FFFF00" width="13" height="13"/>
			<rect x="26" y="102.5" fill="#FFFF00" width="13" height="13"/>
			<rect x="26" y="89.5" fill="#FFFF00" width="13" height="13"/>
			<rect x="26" y="76.5" fill="#FFFF00" width="13" height="13"/>
			<rect x="26" y="64.5" fill="#FFFF00" width="13" height="12"/>
			<rect x="13" y="322.5" fill="#4D4D4D" width="13" height="12"/>
			<rect x="13" y="309.5" fill="#4D4D4D" width="13" height="13"/>
			<rect x="13" y="257.5" width="13" height="13"/>
			<rect x="13" y="244.5" width="13" height="13"/>
			<rect x="13" y="180.5" fill="#FFFF00" width="13" height="13"/>
			<rect x="13" y="167.5" fill="#FFFF00" width="13" height="13"/>
			<rect x="13" y="154.5" fill="#FFFF00" width="13" height="13"/>
			<rect x="13" y="76.5" fill="#FFFF00" width="13" height="13"/>
			<rect x="13" y="64.5" fill="#FFFF00" width="13" height="12"/>
		</g>
		<g>
		</g>
	</g>
</g>
</svg>
