<?xml version="1.0" encoding="utf-8"?>
<!-- Generator: Adobe Illustrator 18.0.0, SVG Export Plug-In . SVG Version: 6.00 Build 0)  -->
<!DOCTYPE svg PUBLIC "-//W3C//DTD SVG 1.1//EN" "http://www.w3.org/Graphics/SVG/1.1/DTD/svg11.dtd">
<svg version="1.1" id="Layer_1" xmlns="http://www.w3.org/2000/svg" xmlns:xlink="http://www.w3.org/1999/xlink" x="0px" y="0px"
	 viewBox="0 0 400 400" enable-background="new 0 0 400 400" xml:space="preserve">
<g>
	<g id="XMLID_1_">
		<g>
			<rect x="374.5" y="258" width="12" height="13"/>
			<rect x="374.5" y="245" width="12" height="13"/>
			<rect x="374.5" y="181" width="12" height="13"/>
			<rect x="374.5" y="168" width="12" height="13"/>
			<rect x="374.5" y="155" width="12" height="13"/>
			<rect x="374.5" y="77" width="12" height="13"/>
			<rect x="374.5" y="65" width="12" height="12"/>
			<rect x="361.5" y="323" width="13" height="12"/>
			<rect x="361.5" y="310" width="13" height="13"/>
			<rect x="361.5" y="297" width="13" height="13"/>
			<rect x="361.5" y="271" width="13" height="13"/>
			<rect x="361.5" y="258" fill="#0000FF" width="13" height="13"/>
			<rect x="361.5" y="245" fill="#0000FF" width="13" height="13"/>
			<rect x="361.5" y="232" width="13" height="13"/>
			<rect x="361.5" y="181" width="13" height="13"/>
			<rect x="361.5" y="168" width="13" height="13"/>
			<rect x="361.5" y="155" width="13" height="13"/>
			<rect x="361.5" y="142" width="13" height="13"/>
			<rect x="361.5" y="103" width="13" height="13"/>
			<rect x="361.5" y="90" width="13" height="13"/>
			<rect x="361.5" y="77" width="13" height="13"/>
			<rect x="361.5" y="65" width="13" height="12"/>
			<rect x="348.5" y="297" fill="#C2C2C2" width="13" height="13"/>
			<rect x="348.5" y="284" fill="#C2C2C2" width="13" height="13"/>
			<rect x="348.5" y="271" width="13" height="13"/>
			<rect x="348.5" y="258" fill="#0000FF" width="13" height="13"/>
			<rect x="348.5" y="245" fill="#0000FF" width="13" height="13"/>
			<rect x="348.5" y="232" width="13" height="13"/>
			<rect x="348.5" y="219" width="13" height="13"/>
			<rect x="348.5" y="206" width="13" height="13"/>
			<rect x="348.5" y="194" width="13" height="12"/>
			<rect x="348.5" y="181" width="13" height="13"/>
			<rect x="348.5" y="168" width="13" height="13"/>
			<rect x="348.5" y="155" width="13" height="13"/>
			<rect x="348.5" y="142" width="13" height="13"/>
			<rect x="348.5" y="129" width="13" height="13"/>
			<rect x="348.5" y="116" width="13" height="13"/>
			<rect x="348.5" y="103" width="13" height="13"/>
			<rect x="348.5" y="90" width="13" height="13"/>
			<rect x="348.5" y="77" width="13" height="13"/>
			<rect x="335.5" y="335" width="13" height="13"/>
			<rect x="335.5" y="323" width="13" height="12"/>
			<rect x="335.5" y="310" width="13" height="13"/>
			<rect x="335.5" y="297" fill="#C2C2C2" width="13" height="13"/>
			<rect x="335.5" y="284" fill="#C2C2C2" width="13" height="13"/>
			<rect x="335.5" y="271" width="13" height="13"/>
			<rect x="335.5" y="258" fill="#0000FF" width="13" height="13"/>
			<rect x="335.5" y="245" fill="#0000FF" width="13" height="13"/>
			<rect x="335.5" y="232" width="13" height="13"/>
			<rect x="335.5" y="219" fill="#B3B3B3" width="13" height="13"/>
			<rect x="335.5" y="206" fill="#B3B3B3" width="13" height="13"/>
			<rect x="335.5" y="194" fill="#B3B3B3" width="13" height="12"/>
			<rect x="335.5" y="181" fill="#B3B3B3" width="13" height="13"/>
			<rect x="335.5" y="168" width="13" height="13"/>
			<rect x="335.5" y="155" fill="#B3B3B3" width="13" height="13"/>
			<rect x="335.5" y="142" fill="#B3B3B3" width="13" height="13"/>
			<rect x="335.5" y="129" width="13" height="13"/>
			<rect x="335.5" y="116" width="13" height="13"/>
			<rect x="335.5" y="103" width="13" height="13"/>
			<rect x="335.5" y="90" width="13" height="13"/>
			<rect x="322.5" y="310" width="13" height="13"/>
			<rect x="322.5" y="297" width="13" height="13"/>
			<rect x="322.5" y="284" width="13" height="13"/>
			<rect x="322.5" y="271" width="13" height="13"/>
			<rect x="322.5" y="258" fill="#0000FF" width="13" height="13"/>
			<rect x="322.5" y="245" fill="#0000FF" width="13" height="13"/>
			<rect x="322.5" y="232" width="13" height="13"/>
			<rect x="322.5" y="219" width="13" height="13"/>
			<rect x="322.5" y="206" fill="#B3B3B3" width="13" height="13"/>
			<rect x="322.5" y="194" fill="#B3B3B3" width="13" height="12"/>
			<rect x="322.5" y="181" width="13" height="13"/>
			<rect x="322.5" y="168" fill="#B3B3B3" width="13" height="13"/>
			<rect x="322.5" y="155" width="13" height="13"/>
			<rect x="322.5" y="142" width="13" height="13"/>
			<rect x="322.5" y="129" width="13" height="13"/>
			<rect x="322.5" y="116" width="13" height="13"/>
			<rect x="322.5" y="103" width="13" height="13"/>
			<rect x="322.5" y="65" width="13" height="12"/>
			<rect x="322.5" y="52" width="13" height="13"/>
			<rect x="322.5" y="39" width="13" height="13"/>
			<rect x="322.5" y="26" width="13" height="13"/>
			<rect x="309.5" y="297" fill="#C2C2C2" width="13" height="13"/>
			<rect x="309.5" y="284" fill="#C2C2C2" width="13" height="13"/>
			<rect x="309.5" y="271" width="13" height="13"/>
			<rect x="309.5" y="258" fill="#0000FF" width="13" height="13"/>
			<rect x="309.5" y="245" fill="#0000FF" width="13" height="13"/>
			<rect x="309.5" y="232" width="13" height="13"/>
			<rect x="309.5" y="219" fill="#B3B3B3" width="13" height="13"/>
			<rect x="309.5" y="206" width="13" height="13"/>
			<rect x="309.5" y="194" width="13" height="12"/>
			<rect x="309.5" y="181" fill="#B3B3B3" width="13" height="13"/>
			<rect x="309.5" y="168" fill="#B3B3B3" width="13" height="13"/>
			<rect x="309.5" y="155" fill="#B3B3B3" width="13" height="13"/>
			<rect x="309.5" y="142" width="13" height="13"/>
			<rect x="309.5" y="129" width="13" height="13"/>
			<rect x="309.5" y="116" width="13" height="13"/>
			<rect x="309.5" y="103" width="13" height="13"/>
			<rect x="309.5" y="90" width="13" height="13"/>
			<rect x="309.5" y="77" width="13" height="13"/>
			<rect x="309.5" y="65" width="13" height="12"/>
			<rect x="309.5" y="52" fill="#B3B3B3" width="13" height="13"/>
			<rect x="309.5" y="39" fill="#B3B3B3" width="13" height="13"/>
			<rect x="309.5" y="26" width="13" height="13"/>
			<rect x="296.5" y="323" width="13" height="12"/>
			<rect x="296.5" y="310" width="13" height="13"/>
			<rect x="296.5" y="297" width="13" height="13"/>
			<rect x="296.5" y="271" width="13" height="13"/>
			<rect x="296.5" y="258" fill="#0000FF" width="13" height="13"/>
			<rect x="296.5" y="245" width="13" height="13"/>
			<rect x="296.5" y="232" width="13" height="13"/>
			<rect x="296.5" y="219" width="13" height="13"/>
			<rect x="296.5" y="206" width="13" height="13"/>
			<rect x="296.5" y="194" width="13" height="12"/>
			<rect x="296.5" y="181" width="13" height="13"/>
			<rect x="296.5" y="168" width="13" height="13"/>
			<rect x="296.5" y="155" width="13" height="13"/>
			<rect x="296.5" y="142" width="13" height="13"/>
			<rect x="296.5" y="129" fill="#E6E6E6" width="13" height="13"/>
			<rect x="296.5" y="116" fill="#E6E6E6" width="13" height="13"/>
			<rect x="296.5" y="103" fill="#E6E6E6" width="13" height="13"/>
			<rect x="296.5" y="90" fill="#E6E6E6" width="13" height="13"/>
			<rect x="296.5" y="77" width="13" height="13"/>
			<rect x="296.5" y="65" fill="#B3B3B3" width="13" height="12"/>
			<rect x="296.5" y="52" fill="#3FA9F5" width="13" height="13"/>
			<rect x="296.5" y="39" fill="#3FA9F5" width="13" height="13"/>
			<rect x="296.5" y="26" width="13" height="13"/>
			<rect x="283.5" y="335" width="13" height="13"/>
			<rect x="283.5" y="323" width="13" height="12"/>
			<rect x="283.5" y="310" width="13" height="13"/>
			<rect x="283.5" y="297" width="13" height="13"/>
			<rect x="283.5" y="284" width="13" height="13"/>
			<rect x="283.5" y="271" width="13" height="13"/>
			<rect x="283.5" y="258" width="13" height="13"/>
			<rect x="283.5" y="245" width="13" height="13"/>
			<rect x="283.5" y="232" fill="#E6E6E6" width="13" height="13"/>
			<rect x="283.5" y="219" fill="#E6E6E6" width="13" height="13"/>
			<rect x="283.5" y="206" fill="#E6E6E6" width="13" height="13"/>
			<rect x="283.5" y="194" fill="#E6E6E6" width="13" height="12"/>
			<rect x="283.5" y="181" fill="#E6E6E6" width="13" height="13"/>
			<rect x="283.5" y="168" fill="#E6E6E6" width="13" height="13"/>
			<rect x="283.5" y="155" fill="#E6E6E6" width="13" height="13"/>
			<rect x="283.5" y="142" fill="#E6E6E6" width="13" height="13"/>
			<rect x="283.5" y="129" fill="#FAFAFA" width="13" height="13"/>
			<rect x="283.5" y="116" fill="#FAFAFA" width="13" height="13"/>
			<rect x="283.5" y="103" fill="#FAFAFA" width="13" height="13"/>
			<rect x="283.5" y="90" fill="#E6E6E6" width="13" height="13"/>
			<rect x="283.5" y="77" width="13" height="13"/>
			<rect x="283.5" y="65" fill="#B3B3B3" width="13" height="12"/>
			<rect x="283.5" y="52" fill="#808080" width="13" height="13"/>
			<rect x="283.5" y="39" fill="#808080" width="13" height="13"/>
			<rect x="283.5" y="26" width="13" height="13"/>
			<rect x="270.5" y="335" width="13" height="13"/>
			<rect x="270.5" y="323" width="13" height="12"/>
			<rect x="270.5" y="310" width="13" height="13"/>
			<rect x="270.5" y="297" width="13" height="13"/>
			<rect x="270.5" y="284" width="13" height="13"/>
			<rect x="270.5" y="271" width="13" height="13"/>
			<rect x="270.5" y="258" width="13" height="13"/>
			<rect x="270.5" y="245" fill="#E6E6E6" width="13" height="13"/>
			<rect x="270.5" y="232" fill="#FAFAFA" width="13" height="13"/>
			<rect x="270.5" y="219" fill="#FAFAFA" width="13" height="13"/>
			<rect x="270.5" y="206" fill="#E6E6E6" width="13" height="13"/>
			<rect x="270.5" y="194" fill="#FAFAFA" width="13" height="12"/>
			<rect x="270.5" y="181" fill="#FAFAFA" width="13" height="13"/>
			<rect x="270.5" y="168" fill="#FAFAFA" width="13" height="13"/>
			<rect x="270.5" y="155" fill="#FAFAFA" width="13" height="13"/>
			<rect x="270.5" y="142" fill="#FAFAFA" width="13" height="13"/>
			<rect x="270.5" y="129" width="13" height="13"/>
			<rect x="270.5" y="116" fill="#E6E6E6" width="13" height="13"/>
			<rect x="270.5" y="103" fill="#E6E6E6" width="13" height="13"/>
			<rect x="270.5" y="90" fill="#E6E6E6" width="13" height="13"/>
			<rect x="270.5" y="77" width="13" height="13"/>
			<rect x="270.5" y="65" fill="#B3B3B3" width="13" height="12"/>
			<rect x="270.5" y="52" fill="#B3B3B3" width="13" height="13"/>
			<rect x="270.5" y="39" fill="#B3B3B3" width="13" height="13"/>
			<rect x="270.5" y="26" width="13" height="13"/>
			<rect x="257.5" y="335" width="13" height="13"/>
			<rect x="257.5" y="323" fill="#CCCCCC" width="13" height="12"/>
			<rect x="257.5" y="310" fill="#CCCCCC" width="13" height="13"/>
			<rect x="257.5" y="297" fill="#CCCCCC" width="13" height="13"/>
			<rect x="257.5" y="284" width="13" height="13"/>
			<rect x="257.5" y="271" width="13" height="13"/>
			<rect x="257.5" y="258" width="13" height="13"/>
			<rect x="257.5" y="245" fill="#E6E6E6" width="13" height="13"/>
			<rect x="257.5" y="232" fill="#E6E6E6" width="13" height="13"/>
			<rect x="257.5" y="219" fill="#E6E6E6" width="13" height="13"/>
			<rect x="257.5" y="206" fill="#E6E6E6" width="13" height="13"/>
			<rect x="257.5" y="194" fill="#E6E6E6" width="13" height="12"/>
			<rect x="257.5" y="181" fill="#E6E6E6" width="13" height="13"/>
			<rect x="257.5" y="168" fill="#E6E6E6" width="13" height="13"/>
			<rect x="257.5" y="155" fill="#E6E6E6" width="13" height="13"/>
			<rect x="257.5" y="142" fill="#E6E6E6" width="13" height="13"/>
			<rect x="257.5" y="129" width="13" height="13"/>
			<rect x="257.5" y="116" width="13" height="13"/>
			<rect x="257.5" y="103" fill="#E6E6E6" width="13" height="13"/>
			<rect x="257.5" y="90" fill="#E6E6E6" width="13" height="13"/>
			<rect x="257.5" y="77" width="13" height="13"/>
			<rect x="257.5" y="65" fill="#B3B3B3" width="13" height="12"/>
			<rect x="257.5" y="52" width="13" height="13"/>
			<rect x="257.5" y="39" fill="#3FA9F5" width="13" height="13"/>
			<rect x="257.5" y="26" width="13" height="13"/>
			<rect x="245.5" y="335" width="12" height="13"/>
			<rect x="245.5" y="323" width="12" height="12"/>
			<rect x="245.5" y="310" width="12" height="13"/>
			<rect x="245.5" y="297" width="12" height="13"/>
			<rect x="245.5" y="284" width="12" height="13"/>
			<rect x="245.5" y="271" width="12" height="13"/>
			<rect x="245.5" y="258" width="12" height="13"/>
			<rect x="245.5" y="245" fill="#E6E6E6" width="12" height="13"/>
			<rect x="245.5" y="232" width="12" height="13"/>
			<rect x="245.5" y="219" fill="#E6E6E6" width="12" height="13"/>
			<rect x="245.5" y="206" fill="#E6E6E6" width="12" height="13"/>
			<rect x="245.5" y="194" fill="#E6E6E6" width="12" height="12"/>
			<rect x="245.5" y="181" fill="#E6E6E6" width="12" height="13"/>
			<rect x="245.5" y="168" width="12" height="13"/>
			<rect x="245.5" y="155" fill="#E6E6E6" width="12" height="13"/>
			<rect x="245.5" y="142" width="12" height="13"/>
			<rect x="245.5" y="129" fill="#E6E6E6" width="12" height="13"/>
			<rect x="245.5" y="116" width="12" height="13"/>
			<rect x="245.5" y="103" width="12" height="13"/>
			<rect x="245.5" y="90" fill="#E6E6E6" width="12" height="13"/>
			<rect x="245.5" y="77" width="12" height="13"/>
			<rect x="245.5" y="65" fill="#B3B3B3" width="12" height="12"/>
			<rect x="245.5" y="52" fill="#3FA9F5" width="12" height="13"/>
			<rect x="245.5" y="39" width="12" height="13"/>
			<rect x="245.5" y="26" width="12" height="13"/>
			<rect x="232.5" y="335" width="13" height="13"/>
			<rect x="232.5" y="323" width="13" height="12"/>
			<rect x="232.5" y="310" width="13" height="13"/>
			<rect x="232.5" y="297" width="13" height="13"/>
			<rect x="232.5" y="284" width="13" height="13"/>
			<rect x="232.5" y="271" width="13" height="13"/>
			<rect x="232.5" y="258" width="13" height="13"/>
			<rect x="232.5" y="245" fill="#E6E6E6" width="13" height="13"/>
			<rect x="232.5" y="232" width="13" height="13"/>
			<rect x="232.5" y="219" width="13" height="13"/>
			<rect x="232.5" y="206" fill="#E6E6E6" width="13" height="13"/>
			<rect x="232.5" y="194" fill="#E6E6E6" width="13" height="12"/>
			<rect x="232.5" y="181" fill="#E6E6E6" width="13" height="13"/>
			<rect x="232.5" y="168" fill="#E6E6E6" width="13" height="13"/>
			<rect x="232.5" y="155" width="13" height="13"/>
			<rect x="232.5" y="142" fill="#E6E6E6" width="13" height="13"/>
			<rect x="232.5" y="129" fill="#E6E6E6" width="13" height="13"/>
			<rect x="232.5" y="116" fill="#E6E6E6" width="13" height="13"/>
			<rect x="232.5" y="103" fill="#E6E6E6" width="13" height="13"/>
			<rect x="232.5" y="90" fill="#E6E6E6" width="13" height="13"/>
			<rect x="232.5" y="77" width="13" height="13"/>
			<rect x="232.5" y="65" fill="#B3B3B3" width="13" height="12"/>
			<rect x="232.5" y="52" width="13" height="13"/>
			<rect x="232.5" y="39" fill="#3FA9F5" width="13" height="13"/>
			<rect x="232.5" y="26" width="13" height="13"/>
			<rect x="219.5" y="258" width="13" height="13"/>
			<rect x="219.5" y="245" fill="#E6E6E6" width="13" height="13"/>
			<rect x="219.5" y="232" width="13" height="13"/>
			<rect x="219.5" y="219" fill="#FFFFFF" width="13" height="13"/>
			<rect x="219.5" y="206" width="13" height="13"/>
			<rect x="219.5" y="194" fill="#E6E6E6" width="13" height="12"/>
			<rect x="219.5" y="181" fill="#E6E6E6" width="13" height="13"/>
			<rect x="219.5" y="168" width="13" height="13"/>
			<rect x="219.5" y="155" fill="#E6E6E6" width="13" height="13"/>
			<rect x="219.5" y="142" width="13" height="13"/>
			<rect x="219.5" y="129" fill="#E6E6E6" width="13" height="13"/>
			<rect x="219.5" y="116" fill="#E6E6E6" width="13" height="13"/>
			<rect x="219.5" y="103" fill="#E6E6E6" width="13" height="13"/>
			<rect x="219.5" y="90" fill="#E6E6E6" width="13" height="13"/>
			<rect x="219.5" y="77" width="13" height="13"/>
			<rect x="219.5" y="65" fill="#B3B3B3" width="13" height="12"/>
			<rect x="219.5" y="52" fill="#3FA9F5" width="13" height="13"/>
			<rect x="219.5" y="39" width="13" height="13"/>
			<rect x="219.5" y="26" width="13" height="13"/>
			<rect x="206.5" y="258" width="13" height="13"/>
			<rect x="206.5" y="245" fill="#E6E6E6" width="13" height="13"/>
			<rect x="206.5" y="232" width="13" height="13"/>
			<rect x="206.5" y="219" fill="#FFFFFF" width="13" height="13"/>
			<rect x="206.5" y="206" fill="#FFFFFF" width="13" height="13"/>
			<rect x="206.5" y="194" width="13" height="12"/>
			<rect x="206.5" y="181" fill="#E6E6E6" width="13" height="13"/>
			<rect x="206.5" y="168" fill="#E6E6E6" width="13" height="13"/>
			<rect x="206.5" y="155" fill="#E6E6E6" width="13" height="13"/>
			<rect x="206.5" y="142" fill="#E6E6E6" width="13" height="13"/>
			<rect x="206.5" y="129" fill="#E6E6E6" width="13" height="13"/>
			<rect x="206.5" y="116" fill="#E6E6E6" width="13" height="13"/>
			<rect x="206.5" y="103" fill="#E6E6E6" width="13" height="13"/>
			<rect x="206.5" y="90" fill="#E6E6E6" width="13" height="13"/>
			<rect x="206.5" y="77" width="13" height="13"/>
			<rect x="206.5" y="65" fill="#B3B3B3" width="13" height="12"/>
			<rect x="206.5" y="52" width="13" height="13"/>
			<rect x="206.5" y="39" fill="#3FA9F5" width="13" height="13"/>
			<rect x="206.5" y="26" width="13" height="13"/>
			<rect x="193.5" y="258" width="13" height="13"/>
			<rect x="193.5" y="245" fill="#E6E6E6" width="13" height="13"/>
			<rect x="193.5" y="232" width="13" height="13"/>
			<rect x="193.5" y="219" fill="#FFFFFF" width="13" height="13"/>
			<rect x="193.5" y="206" fill="#FFFFFF" width="13" height="13"/>
			<rect x="193.5" y="194" fill="#FFFFFF" width="13" height="12"/>
			<rect x="193.5" y="181" width="13" height="13"/>
			<rect x="193.5" y="168" fill="#E6E6E6" width="13" height="13"/>
			<rect x="193.5" y="155" fill="#E6E6E6" width="13" height="13"/>
			<rect x="193.5" y="142" fill="#E6E6E6" width="13" height="13"/>
			<rect x="193.5" y="129" fill="#E6E6E6" width="13" height="13"/>
			<rect x="193.5" y="116" fill="#E6E6E6" width="13" height="13"/>
			<rect x="193.5" y="103" fill="#E6E6E6" width="13" height="13"/>
			<rect x="193.5" y="90" fill="#E6E6E6" width="13" height="13"/>
			<rect x="193.5" y="77" width="13" height="13"/>
			<rect x="193.5" y="65" fill="#B3B3B3" width="13" height="12"/>
			<rect x="193.5" y="52" fill="#3FA9F5" width="13" height="13"/>
			<rect x="193.5" y="39" width="13" height="13"/>
			<rect x="193.5" y="26" width="13" height="13"/>
			<rect x="193.5" y="13" width="13" height="13"/>
			<polygon points="206.5,0.5 206.5,13 193.5,13 193.5,0.5 193.5,0 206.5,0 			"/>
			<rect x="180.5" y="258" width="13" height="13"/>
			<rect x="180.5" y="245" fill="#E6E6E6" width="13" height="13"/>
			<rect x="180.5" y="232" width="13" height="13"/>
			<rect x="180.5" y="219" fill="#FFFFFF" width="13" height="13"/>
			<rect x="180.5" y="206" fill="#FFFFFF" width="13" height="13"/>
			<rect x="180.5" y="194" width="13" height="12"/>
			<rect x="180.5" y="181" fill="#E6E6E6" width="13" height="13"/>
			<rect x="180.5" y="168" fill="#E6E6E6" width="13" height="13"/>
			<rect x="180.5" y="155" fill="#E6E6E6" width="13" height="13"/>
			<rect x="180.5" y="142" fill="#E6E6E6" width="13" height="13"/>
			<rect x="180.5" y="129" fill="#E6E6E6" width="13" height="13"/>
			<rect x="180.5" y="116" fill="#E6E6E6" width="13" height="13"/>
			<rect x="180.5" y="103" fill="#E6E6E6" width="13" height="13"/>
			<rect x="180.5" y="90" fill="#E6E6E6" width="13" height="13"/>
			<rect x="180.5" y="77" width="13" height="13"/>
			<rect x="180.5" y="65" fill="#B3B3B3" width="13" height="12"/>
			<rect x="180.5" y="52" width="13" height="13"/>
			<rect x="180.5" y="39" fill="#3FA9F5" width="13" height="13"/>
			<rect x="180.5" y="26" width="13" height="13"/>
			<rect x="180.5" y="13" width="13" height="13"/>
			<polygon points="193.5,0.5 193.5,13 180.5,13 180.5,0.5 180.5,0 193.5,0 			"/>
			<rect x="167.5" y="258" width="13" height="13"/>
			<rect x="167.5" y="245" fill="#E6E6E6" width="13" height="13"/>
			<rect x="167.5" y="232" width="13" height="13"/>
			<rect x="167.5" y="219" fill="#FFFFFF" width="13" height="13"/>
			<rect x="167.5" y="206" width="13" height="13"/>
			<rect x="167.5" y="194" fill="#E6E6E6" width="13" height="12"/>
			<rect x="167.5" y="181" fill="#E6E6E6" width="13" height="13"/>
			<rect x="167.5" y="168" width="13" height="13"/>
			<rect x="167.5" y="155" fill="#E6E6E6" width="13" height="13"/>
			<rect x="167.5" y="142" width="13" height="13"/>
			<rect x="167.5" y="129" fill="#E6E6E6" width="13" height="13"/>
			<rect x="167.5" y="116" fill="#E6E6E6" width="13" height="13"/>
			<rect x="167.5" y="103" fill="#E6E6E6" width="13" height="13"/>
			<rect x="167.5" y="90" fill="#E6E6E6" width="13" height="13"/>
			<rect x="167.5" y="77" width="13" height="13"/>
			<rect x="167.5" y="65" fill="#B3B3B3" width="13" height="12"/>
			<rect x="167.5" y="52" fill="#3FA9F5" width="13" height="13"/>
			<rect x="167.5" y="39" width="13" height="13"/>
			<rect x="167.5" y="26" width="13" height="13"/>
			<rect x="154.5" y="335" width="13" height="13"/>
			<rect x="154.5" y="323" width="13" height="12"/>
			<rect x="154.5" y="310" width="13" height="13"/>
			<rect x="154.5" y="297" width="13" height="13"/>
			<rect x="154.5" y="284" width="13" height="13"/>
			<rect x="154.5" y="271" width="13" height="13"/>
			<rect x="154.5" y="258" width="13" height="13"/>
			<rect x="154.5" y="245" fill="#E6E6E6" width="13" height="13"/>
			<rect x="154.5" y="232" width="13" height="13"/>
			<rect x="154.5" y="219" width="13" height="13"/>
			<rect x="154.5" y="206" fill="#E6E6E6" width="13" height="13"/>
			<rect x="154.5" y="194" fill="#E6E6E6" width="13" height="12"/>
			<rect x="154.5" y="181" fill="#E6E6E6" width="13" height="13"/>
			<rect x="154.5" y="168" fill="#E6E6E6" width="13" height="13"/>
			<rect x="154.5" y="155" width="13" height="13"/>
			<rect x="154.5" y="142" fill="#E6E6E6" width="13" height="13"/>
			<rect x="154.5" y="129" fill="#E6E6E6" width="13" height="13"/>
			<rect x="154.5" y="116" fill="#E6E6E6" width="13" height="13"/>
			<rect x="154.5" y="103" fill="#E6E6E6" width="13" height="13"/>
			<rect x="154.5" y="90" fill="#E6E6E6" width="13" height="13"/>
			<rect x="154.5" y="77" width="13" height="13"/>
			<rect x="154.5" y="65" fill="#B3B3B3" width="13" height="12"/>
			<rect x="154.5" y="52" width="13" height="13"/>
			<rect x="154.5" y="39" fill="#3FA9F5" width="13" height="13"/>
			<rect x="154.5" y="26" width="13" height="13"/>
			<rect x="141.5" y="335" width="13" height="13"/>
			<rect x="141.5" y="323" width="13" height="12"/>
			<rect x="141.5" y="310" width="13" height="13"/>
			<rect x="141.5" y="297" width="13" height="13"/>
			<rect x="141.5" y="284" width="13" height="13"/>
			<rect x="141.5" y="271" width="13" height="13"/>
			<rect x="141.5" y="258" width="13" height="13"/>
			<rect x="141.5" y="245" fill="#E6E6E6" width="13" height="13"/>
			<rect x="141.5" y="232" width="13" height="13"/>
			<rect x="141.5" y="219" fill="#E6E6E6" width="13" height="13"/>
			<rect x="141.5" y="206" fill="#E6E6E6" width="13" height="13"/>
			<rect x="141.5" y="194" fill="#E6E6E6" width="13" height="12"/>
			<rect x="141.5" y="181" fill="#E6E6E6" width="13" height="13"/>
			<rect x="141.5" y="168" width="13" height="13"/>
			<rect x="141.5" y="155" fill="#E6E6E6" width="13" height="13"/>
			<rect x="141.5" y="142" width="13" height="13"/>
			<rect x="141.5" y="129" fill="#E6E6E6" width="13" height="13"/>
			<rect x="141.5" y="116" width="13" height="13"/>
			<rect x="141.5" y="103" width="13" height="13"/>
			<rect x="141.5" y="90" fill="#E6E6E6" width="13" height="13"/>
			<rect x="141.5" y="77" width="13" height="13"/>
			<rect x="141.5" y="65" fill="#B3B3B3" width="13" height="12"/>
			<rect x="141.5" y="52" fill="#3FA9F5" width="13" height="13"/>
			<rect x="141.5" y="39" width="13" height="13"/>
			<rect x="141.5" y="26" width="13" height="13"/>
			<rect x="128.5" y="335" width="13" height="13"/>
			<rect x="128.5" y="323" fill="#CCCCCC" width="13" height="12"/>
			<rect x="128.5" y="310" fill="#CCCCCC" width="13" height="13"/>
			<rect x="128.5" y="297" fill="#CCCCCC" width="13" height="13"/>
			<rect x="128.5" y="284" fill="#CCCCCC" width="13" height="13"/>
			<rect x="128.5" y="271" fill="#CCCCCC" width="13" height="13"/>
			<rect x="128.5" y="258" width="13" height="13"/>
			<rect x="128.5" y="245" fill="#E6E6E6" width="13" height="13"/>
			<rect x="128.5" y="232" fill="#E6E6E6" width="13" height="13"/>
			<rect x="128.5" y="219" fill="#E6E6E6" width="13" height="13"/>
			<rect x="128.5" y="206" fill="#E6E6E6" width="13" height="13"/>
			<rect x="128.5" y="194" fill="#E6E6E6" width="13" height="12"/>
			<rect x="128.5" y="181" fill="#E6E6E6" width="13" height="13"/>
			<rect x="128.5" y="168" fill="#E6E6E6" width="13" height="13"/>
			<rect x="128.5" y="155" fill="#E6E6E6" width="13" height="13"/>
			<rect x="128.5" y="142" fill="#E6E6E6" width="13" height="13"/>
			<rect x="128.5" y="129" width="13" height="13"/>
			<rect x="128.5" y="116" width="13" height="13"/>
			<rect x="128.5" y="103" fill="#E6E6E6" width="13" height="13"/>
			<rect x="128.5" y="90" fill="#E6E6E6" width="13" height="13"/>
			<rect x="128.5" y="77" width="13" height="13"/>
			<rect x="128.5" y="65" fill="#B3B3B3" width="13" height="12"/>
			<rect x="128.5" y="52" width="13" height="13"/>
			<rect x="128.5" y="39" fill="#3FA9F5" width="13" height="13"/>
			<rect x="128.5" y="26" width="13" height="13"/>
			<rect x="116.5" y="335" width="12" height="13"/>
			<rect x="116.5" y="323" width="12" height="12"/>
			<rect x="116.5" y="310" width="12" height="13"/>
			<rect x="116.5" y="297" width="12" height="13"/>
			<rect x="116.5" y="284" width="12" height="13"/>
			<rect x="116.5" y="271" width="12" height="13"/>
			<rect x="116.5" y="258" width="12" height="13"/>
			<rect x="116.5" y="245" fill="#E6E6E6" width="12" height="13"/>
			<rect x="116.5" y="232" fill="#E6E6E6" width="12" height="13"/>
			<rect x="116.5" y="219" fill="#E6E6E6" width="12" height="13"/>
			<rect x="116.5" y="206" fill="#E6E6E6" width="12" height="13"/>
			<rect x="116.5" y="194" fill="#E6E6E6" width="12" height="12"/>
			<rect x="116.5" y="181" fill="#E6E6E6" width="12" height="13"/>
			<rect x="116.5" y="168" fill="#E6E6E6" width="12" height="13"/>
			<rect x="116.5" y="155" fill="#E6E6E6" width="12" height="13"/>
			<rect x="116.5" y="142" fill="#E6E6E6" width="12" height="13"/>
			<rect x="116.5" y="129" width="12" height="13"/>
			<rect x="116.5" y="116" fill="#E6E6E6" width="12" height="13"/>
			<rect x="116.5" y="103" fill="#E6E6E6" width="12" height="13"/>
			<rect x="116.5" y="90" fill="#E6E6E6" width="12" height="13"/>
			<rect x="116.5" y="77" width="12" height="13"/>
			<rect x="116.5" y="65" fill="#B3B3B3" width="12" height="12"/>
			<rect x="116.5" y="52" fill="#B3B3B3" width="12" height="13"/>
			<rect x="116.5" y="39" fill="#B3B3B3" width="12" height="13"/>
			<rect x="116.5" y="26" width="12" height="13"/>
			<path fill="#FFFFFF" d="M118.5,367.3c1.8,0.5,3.6,1,5.5,1.6c-0.3,0.2-0.6,0.4-0.9,0.7C121.6,368.7,120.1,368,118.5,367.3z"/>
			<rect x="103.5" y="335" width="13" height="13"/>
			<rect x="103.5" y="323" width="13" height="12"/>
			<rect x="103.5" y="310" width="13" height="13"/>
			<rect x="103.5" y="297" width="13" height="13"/>
			<rect x="103.5" y="284" width="13" height="13"/>
			<rect x="103.5" y="271" width="13" height="13"/>
			<rect x="103.5" y="258" width="13" height="13"/>
			<rect x="103.5" y="245" width="13" height="13"/>
			<rect x="103.5" y="232" fill="#E6E6E6" width="13" height="13"/>
			<rect x="103.5" y="219" fill="#E6E6E6" width="13" height="13"/>
			<rect x="103.5" y="206" fill="#E6E6E6" width="13" height="13"/>
			<rect x="103.5" y="194" fill="#E6E6E6" width="13" height="12"/>
			<rect x="103.5" y="181" fill="#E6E6E6" width="13" height="13"/>
			<rect x="103.5" y="168" fill="#E6E6E6" width="13" height="13"/>
			<rect x="103.5" y="155" fill="#E6E6E6" width="13" height="13"/>
			<rect x="103.5" y="142" fill="#E6E6E6" width="13" height="13"/>
			<rect x="103.5" y="129" fill="#E6E6E6" width="13" height="13"/>
			<rect x="103.5" y="116" fill="#E6E6E6" width="13" height="13"/>
			<rect x="103.5" y="103" fill="#E6E6E6" width="13" height="13"/>
			<rect x="103.5" y="90" fill="#E6E6E6" width="13" height="13"/>
			<rect x="103.5" y="77" width="13" height="13"/>
			<rect x="103.5" y="65" fill="#B3B3B3" width="13" height="12"/>
			<rect x="103.5" y="52" fill="#808080" width="13" height="13"/>
			<rect x="103.5" y="39" fill="#808080" width="13" height="13"/>
			<rect x="103.5" y="26" width="13" height="13"/>
			<rect x="90.5" y="323" fill="#4D4D4D" width="13" height="12"/>
			<rect x="90.5" y="310" fill="#4D4D4D" width="13" height="13"/>
			<rect x="90.5" y="297" fill="#4D4D4D" width="13" height="13"/>
			<rect x="90.5" y="271" width="13" height="13"/>
			<rect x="90.5" y="258" fill="#0000FF" width="13" height="13"/>
			<rect x="90.5" y="245" width="13" height="13"/>
			<rect x="90.5" y="232" width="13" height="13"/>
			<rect x="90.5" y="219" width="13" height="13"/>
			<rect x="90.5" y="206" width="13" height="13"/>
			<rect x="90.5" y="194" width="13" height="12"/>
			<rect x="90.5" y="181" width="13" height="13"/>
			<rect x="90.5" y="168" width="13" height="13"/>
			<rect x="90.5" y="155" width="13" height="13"/>
			<rect x="90.5" y="142" width="13" height="13"/>
			<rect x="90.5" y="129" fill="#E6E6E6" width="13" height="13"/>
			<rect x="90.5" y="116" fill="#E6E6E6" width="13" height="13"/>
			<rect x="90.5" y="103" fill="#E6E6E6" width="13" height="13"/>
			<rect x="90.5" y="90" fill="#E6E6E6" width="13" height="13"/>
			<rect x="90.5" y="77" width="13" height="13"/>
			<rect x="90.5" y="65" fill="#B3B3B3" width="13" height="12"/>
			<rect x="90.5" y="52" fill="#3FA9F5" width="13" height="13"/>
			<rect x="90.5" y="39" fill="#3FA9F5" width="13" height="13"/>
			<rect x="90.5" y="26" width="13" height="13"/>
			<rect x="77.5" y="297" fill="#C2C2C2" width="13" height="13"/>
			<rect x="77.5" y="284" fill="#C2C2C2" width="13" height="13"/>
			<rect x="77.5" y="271" width="13" height="13"/>
			<rect x="77.5" y="258" fill="#0000FF" width="13" height="13"/>
			<rect x="77.5" y="245" fill="#0000FF" width="13" height="13"/>
			<rect x="77.5" y="232" width="13" height="13"/>
			<rect x="77.5" y="219" fill="#B3B3B3" width="13" height="13"/>
			<rect x="77.5" y="206" fill="#B3B3B3" width="13" height="13"/>
			<rect x="77.5" y="194" fill="#B3B3B3" width="13" height="12"/>
			<rect x="77.5" y="181" width="13" height="13"/>
			<rect x="77.5" y="168" width="13" height="13"/>
			<rect x="77.5" y="155" fill="#B3B3B3" width="13" height="13"/>
			<rect x="77.5" y="142" width="13" height="13"/>
			<rect x="77.5" y="129" width="13" height="13"/>
			<rect x="77.5" y="116" width="13" height="13"/>
			<rect x="77.5" y="103" width="13" height="13"/>
			<rect x="77.5" y="90" width="13" height="13"/>
			<rect x="77.5" y="77" width="13" height="13"/>
			<rect x="77.5" y="65" width="13" height="12"/>
			<rect x="77.5" y="52" fill="#B3B3B3" width="13" height="13"/>
			<rect x="77.5" y="39" fill="#B3B3B3" width="13" height="13"/>
			<rect x="77.5" y="26" width="13" height="13"/>
			<rect x="64.5" y="323" fill="#4D4D4D" width="13" height="12"/>
			<rect x="64.5" y="310" fill="#4D4D4D" width="13" height="13"/>
			<rect x="64.5" y="297" fill="#4D4D4D" width="13" height="13"/>
			<rect x="64.5" y="284" fill="#C2C2C2" width="13" height="13"/>
			<rect x="64.5" y="271" width="13" height="13"/>
			<rect x="64.5" y="258" fill="#0000FF" width="13" height="13"/>
			<rect x="64.5" y="245" fill="#0000FF" width="13" height="13"/>
			<rect x="64.5" y="232" width="13" height="13"/>
			<rect x="64.5" y="219" width="13" height="13"/>
			<rect x="64.5" y="206" width="13" height="13"/>
			<rect x="64.5" y="194" fill="#B3B3B3" width="13" height="12"/>
			<rect x="64.5" y="181" width="13" height="13"/>
			<rect x="64.5" y="168" fill="#B3B3B3" width="13" height="13"/>
			<rect x="64.5" y="155" width="13" height="13"/>
			<rect x="64.5" y="142" width="13" height="13"/>
			<rect x="64.5" y="129" width="13" height="13"/>
			<rect x="64.5" y="116" width="13" height="13"/>
			<rect x="64.5" y="103" width="13" height="13"/>
			<rect x="64.5" y="65" width="13" height="12"/>
			<rect x="64.5" y="52" width="13" height="13"/>
			<rect x="64.5" y="39" width="13" height="13"/>
			<rect x="64.5" y="26" width="13" height="13"/>
			<rect x="51.5" y="323" fill="#4D4D4D" width="13" height="12"/>
			<rect x="51.5" y="310" fill="#4D4D4D" width="13" height="13"/>
			<rect x="51.5" y="297" fill="#4D4D4D" width="13" height="13"/>
			<rect x="51.5" y="284" fill="#C2C2C2" width="13" height="13"/>
			<rect x="51.5" y="271" width="13" height="13"/>
			<rect x="51.5" y="258" fill="#0000FF" width="13" height="13"/>
			<rect x="51.5" y="245" fill="#0000FF" width="13" height="13"/>
			<rect x="51.5" y="232" width="13" height="13"/>
			<rect x="51.5" y="219" fill="#B3B3B3" width="13" height="13"/>
			<rect x="51.5" y="206" width="13" height="13"/>
			<rect x="51.5" y="194" width="13" height="12"/>
			<rect x="51.5" y="181" width="13" height="13"/>
			<rect x="51.5" y="168" fill="#B3B3B3" width="13" height="13"/>
			<rect x="51.5" y="155" fill="#B3B3B3" width="13" height="13"/>
			<rect x="51.5" y="142" fill="#B3B3B3" width="13" height="13"/>
			<rect x="51.5" y="129" width="13" height="13"/>
			<rect x="51.5" y="116" width="13" height="13"/>
			<rect x="51.5" y="103" width="13" height="13"/>
			<rect x="51.5" y="90" width="13" height="13"/>
			<rect x="38.5" y="297" fill="#C2C2C2" width="13" height="13"/>
			<rect x="38.5" y="284" fill="#C2C2C2" width="13" height="13"/>
			<rect x="38.5" y="271" width="13" height="13"/>
			<rect x="38.5" y="258" fill="#0000FF" width="13" height="13"/>
			<rect x="38.5" y="245" fill="#0000FF" width="13" height="13"/>
			<rect x="38.5" y="232" width="13" height="13"/>
			<rect x="38.5" y="219" width="13" height="13"/>
			<rect x="38.5" y="206" width="13" height="13"/>
			<rect x="38.5" y="194" width="13" height="12"/>
			<rect x="38.5" y="181" width="13" height="13"/>
			<rect x="38.5" y="168" width="13" height="13"/>
			<rect x="38.5" y="155" width="13" height="13"/>
			<rect x="38.5" y="142" width="13" height="13"/>
			<rect x="38.5" y="129" width="13" height="13"/>
			<rect x="38.5" y="116" width="13" height="13"/>
			<rect x="38.5" y="103" width="13" height="13"/>
			<rect x="38.5" y="90" width="13" height="13"/>
			<rect x="38.5" y="77" width="13" height="13"/>
			<rect x="25.5" y="323" fill="#4D4D4D" width="13" height="12"/>
			<rect x="25.5" y="310" fill="#4D4D4D" width="13" height="13"/>
			<rect x="25.5" y="297" fill="#4D4D4D" width="13" height="13"/>
			<rect x="25.5" y="271" width="13" height="13"/>
			<rect x="25.5" y="258" fill="#0000FF" width="13" height="13"/>
			<rect x="25.5" y="245" fill="#0000FF" width="13" height="13"/>
			<rect x="25.5" y="232" width="13" height="13"/>
			<rect x="25.5" y="181" width="13" height="13"/>
			<rect x="25.5" y="168" width="13" height="13"/>
			<rect x="25.5" y="155" width="13" height="13"/>
			<rect x="25.5" y="142" width="13" height="13"/>
			<rect x="25.5" y="103" width="13" height="13"/>
			<rect x="25.5" y="90" width="13" height="13"/>
			<rect x="25.5" y="77" width="13" height="13"/>
			<rect x="25.5" y="65" width="13" height="12"/>
			<rect x="12.5" y="323" fill="#4D4D4D" width="13" height="12"/>
			<rect x="12.5" y="310" fill="#4D4D4D" width="13" height="13"/>
			<rect x="12.5" y="258" width="13" height="13"/>
			<rect x="12.5" y="245" width="13" height="13"/>
			<rect x="12.5" y="181" width="13" height="13"/>
			<rect x="12.5" y="168" width="13" height="13"/>
			<rect x="12.5" y="155" width="13" height="13"/>
			<rect x="12.5" y="77" width="13" height="13"/>
			<rect x="12.5" y="65" width="13" height="12"/>
		</g>
		<g>
		</g>
	</g>
</g>
<line fill="none" x1="193" y1="197" x2="193" y2="233"/>
<line fill="none" x1="206" y1="195" x2="206" y2="233"/>
<line fill="none" x1="219" y1="220" x2="219" y2="224"/>
<line fill="none" x1="219" y1="220" x2="219" y2="232"/>
<line fill="none" x1="232" y1="220" x2="232" y2="232"/>
<line fill="none" x1="180" y1="220" x2="180" y2="233"/>
<line fill="none" x1="167" y1="220" x2="167" y2="233"/>
</svg>
