<?xml version="1.0" encoding="utf-8"?>
<!-- Generator: Adobe Illustrator 18.0.0, SVG Export Plug-In . SVG Version: 6.00 Build 0)  -->
<!DOCTYPE svg PUBLIC "-//W3C//DTD SVG 1.1//EN" "http://www.w3.org/Graphics/SVG/1.1/DTD/svg11.dtd">
<svg version="1.1" id="Layer_1" xmlns="http://www.w3.org/2000/svg" xmlns:xlink="http://www.w3.org/1999/xlink" x="0px" y="0px"
	 viewBox="0 0 400 400" enable-background="new 0 0 400 400" xml:space="preserve">
<g>
	<g id="XMLID_1_">
		<g>
			<rect x="374.5" y="258" width="12" height="13"/>
			<rect x="374.5" y="245" width="12" height="13"/>
			<rect x="374.5" y="181" fill="#FFFF00" width="12" height="13"/>
			<rect x="374.5" y="168" fill="#FFFF00" width="12" height="13"/>
			<rect x="374.5" y="155" fill="#FFFF00" width="12" height="13"/>
			<rect x="374.5" y="77" fill="#FFFF00" width="12" height="13"/>
			<rect x="374.5" y="65" fill="#FFFF00" width="12" height="12"/>
			<rect x="361.5" y="323" fill="#FFFF00" width="13" height="12"/>
			<rect x="361.5" y="310" fill="#FFFF00" width="13" height="13"/>
			<rect x="361.5" y="297" fill="#FFFF00" width="13" height="13"/>
			<rect x="361.5" y="271" width="13" height="13"/>
			<rect x="361.5" y="258" fill="#0000FF" width="13" height="13"/>
			<rect x="361.5" y="245" fill="#0000FF" width="13" height="13"/>
			<rect x="361.5" y="232" width="13" height="13"/>
			<rect x="361.5" y="181" fill="#FFFF00" width="13" height="13"/>
			<rect x="361.5" y="168" fill="#FFFF00" width="13" height="13"/>
			<rect x="361.5" y="155" fill="#FFFF00" width="13" height="13"/>
			<rect x="361.5" y="142" fill="#FFFF00" width="13" height="13"/>
			<rect x="361.5" y="103" fill="#FFFF00" width="13" height="13"/>
			<rect x="361.5" y="90" fill="#FFFF00" width="13" height="13"/>
			<rect x="361.5" y="77" fill="#FFFF00" width="13" height="13"/>
			<rect x="361.5" y="65" fill="#FFFF00" width="13" height="12"/>
			<rect x="348.5" y="297" fill="#C2C2C2" width="13" height="13"/>
			<rect x="348.5" y="284" fill="#C2C2C2" width="13" height="13"/>
			<rect x="348.5" y="271" width="13" height="13"/>
			<rect x="348.5" y="258" fill="#0000FF" width="13" height="13"/>
			<rect x="348.5" y="245" fill="#0000FF" width="13" height="13"/>
			<rect x="348.5" y="232" width="13" height="13"/>
			<rect x="348.5" y="219" width="13" height="13"/>
			<rect x="348.5" y="206" width="13" height="13"/>
			<rect x="348.5" y="194" width="13" height="12"/>
			<rect x="348.5" y="181" width="13" height="13"/>
			<rect x="348.5" y="168" width="13" height="13"/>
			<rect x="348.5" y="155" width="13" height="13"/>
			<rect x="348.5" y="142" width="13" height="13"/>
			<rect x="348.5" y="129" fill="#FFFF00" width="13" height="13"/>
			<rect x="348.5" y="116" fill="#FFFF00" width="13" height="13"/>
			<rect x="348.5" y="103" fill="#FFFF00" width="13" height="13"/>
			<rect x="348.5" y="90" fill="#FFFF00" width="13" height="13"/>
			<rect x="348.5" y="77" fill="#FFFF00" width="13" height="13"/>
			<rect x="335.5" y="335" fill="#FFFF00" width="13" height="13"/>
			<rect x="335.5" y="323" fill="#FFFF00" width="13" height="12"/>
			<rect x="335.5" y="310" fill="#FFFF00" width="13" height="13"/>
			<rect x="335.5" y="297" fill="#C2C2C2" width="13" height="13"/>
			<rect x="335.5" y="284" fill="#C2C2C2" width="13" height="13"/>
			<rect x="335.5" y="271" width="13" height="13"/>
			<rect x="335.5" y="258" fill="#0000FF" width="13" height="13"/>
			<rect x="335.5" y="245" fill="#0000FF" width="13" height="13"/>
			<rect x="335.5" y="232" width="13" height="13"/>
			<rect x="335.5" y="219" fill="#B3B3B3" width="13" height="13"/>
			<rect x="335.5" y="206" fill="#B3B3B3" width="13" height="13"/>
			<rect x="335.5" y="194" fill="#B3B3B3" width="13" height="12"/>
			<rect x="335.5" y="181" fill="#B3B3B3" width="13" height="13"/>
			<rect x="335.5" y="168" width="13" height="13"/>
			<rect x="335.5" y="155" fill="#B3B3B3" width="13" height="13"/>
			<rect x="335.5" y="142" fill="#B3B3B3" width="13" height="13"/>
			<rect x="335.5" y="129" width="13" height="13"/>
			<rect x="335.5" y="116" fill="#FFFF00" width="13" height="13"/>
			<rect x="335.5" y="103" fill="#FFFF00" width="13" height="13"/>
			<rect x="335.5" y="90" fill="#FFFF00" width="13" height="13"/>
			<rect x="322.5" y="310" fill="#FFFF00" width="13" height="13"/>
			<rect x="322.5" y="297" fill="#FFFF00" width="13" height="13"/>
			<rect x="322.5" y="284" fill="#FFFF00" width="13" height="13"/>
			<rect x="322.5" y="271" width="13" height="13"/>
			<rect x="322.5" y="258" fill="#0000FF" width="13" height="13"/>
			<rect x="322.5" y="245" fill="#0000FF" width="13" height="13"/>
			<rect x="322.5" y="232" width="13" height="13"/>
			<rect x="322.5" y="219" width="13" height="13"/>
			<rect x="322.5" y="206" fill="#B3B3B3" width="13" height="13"/>
			<rect x="322.5" y="194" fill="#B3B3B3" width="13" height="12"/>
			<rect x="322.5" y="181" width="13" height="13"/>
			<rect x="322.5" y="168" fill="#B3B3B3" width="13" height="13"/>
			<rect x="322.5" y="155" width="13" height="13"/>
			<rect x="322.5" y="142" width="13" height="13"/>
			<rect x="322.5" y="129" width="13" height="13"/>
			<rect x="322.5" y="116" width="13" height="13"/>
			<rect x="322.5" y="103" fill="#FFFF00" width="13" height="13"/>
			<rect x="322.5" y="65" width="13" height="12"/>
			<rect x="322.5" y="52" width="13" height="13"/>
			<rect x="322.5" y="39" width="13" height="13"/>
			<rect x="322.5" y="26" width="13" height="13"/>
			<rect x="309.5" y="297" fill="#C2C2C2" width="13" height="13"/>
			<rect x="309.5" y="284" fill="#C2C2C2" width="13" height="13"/>
			<rect x="309.5" y="271" width="13" height="13"/>
			<rect x="309.5" y="258" fill="#0000FF" width="13" height="13"/>
			<rect x="309.5" y="245" fill="#0000FF" width="13" height="13"/>
			<rect x="309.5" y="232" width="13" height="13"/>
			<rect x="309.5" y="219" fill="#B3B3B3" width="13" height="13"/>
			<rect x="309.5" y="206" width="13" height="13"/>
			<rect x="309.5" y="194" width="13" height="12"/>
			<rect x="309.5" y="181" fill="#B3B3B3" width="13" height="13"/>
			<rect x="309.5" y="168" fill="#B3B3B3" width="13" height="13"/>
			<rect x="309.5" y="155" fill="#B3B3B3" width="13" height="13"/>
			<rect x="309.5" y="142" width="13" height="13"/>
			<rect x="309.5" y="129" width="13" height="13"/>
			<rect x="309.5" y="116" width="13" height="13"/>
			<rect x="309.5" y="103" width="13" height="13"/>
			<rect x="309.5" y="90" width="13" height="13"/>
			<rect x="309.5" y="77" width="13" height="13"/>
			<rect x="309.5" y="65" width="13" height="12"/>
			<rect x="309.5" y="52" fill="#B3B3B3" width="13" height="13"/>
			<rect x="309.5" y="39" fill="#B3B3B3" width="13" height="13"/>
			<rect x="309.5" y="26" width="13" height="13"/>
			<rect x="296.5" y="323" fill="#FFFF00" width="13" height="12"/>
			<rect x="296.5" y="310" fill="#FFFF00" width="13" height="13"/>
			<rect x="296.5" y="297" fill="#FFFF00" width="13" height="13"/>
			<rect x="296.5" y="271" width="13" height="13"/>
			<rect x="296.5" y="258" fill="#0000FF" width="13" height="13"/>
			<rect x="296.5" y="245" width="13" height="13"/>
			<rect x="296.5" y="232" width="13" height="13"/>
			<rect x="296.5" y="219" width="13" height="13"/>
			<rect x="296.5" y="206" width="13" height="13"/>
			<rect x="296.5" y="194" width="13" height="12"/>
			<rect x="296.5" y="181" width="13" height="13"/>
			<rect x="296.5" y="168" width="13" height="13"/>
			<rect x="296.5" y="155" width="13" height="13"/>
			<rect x="296.5" y="142" width="13" height="13"/>
			<rect x="296.5" y="129" fill="#E6E6E6" width="13" height="13"/>
			<rect x="296.5" y="116" fill="#E6E6E6" width="13" height="13"/>
			<rect x="296.5" y="103" fill="#E6E6E6" width="13" height="13"/>
			<rect x="296.5" y="90" fill="#E6E6E6" width="13" height="13"/>
			<rect x="296.5" y="77" width="13" height="13"/>
			<rect x="296.5" y="65" fill="#B3B3B3" width="13" height="12"/>
			<rect x="296.5" y="52" fill="#3FA9F5" width="13" height="13"/>
			<rect x="296.5" y="39" fill="#3FA9F5" width="13" height="13"/>
			<rect x="296.5" y="26" width="13" height="13"/>
			<rect x="283.5" y="335" width="13" height="13"/>
			<rect x="283.5" y="323" width="13" height="12"/>
			<rect x="283.5" y="310" width="13" height="13"/>
			<rect x="283.5" y="297" width="13" height="13"/>
			<rect x="283.5" y="284" width="13" height="13"/>
			<rect x="283.5" y="271" width="13" height="13"/>
			<rect x="283.5" y="258" width="13" height="13"/>
			<rect x="283.5" y="245" width="13" height="13"/>
			<rect x="283.5" y="232" fill="#E6E6E6" width="13" height="13"/>
			<rect x="283.5" y="219" fill="#E6E6E6" width="13" height="13"/>
			<rect x="283.5" y="206" fill="#E6E6E6" width="13" height="13"/>
			<rect x="283.5" y="194" fill="#E6E6E6" width="13" height="12"/>
			<rect x="283.5" y="181" fill="#E6E6E6" width="13" height="13"/>
			<rect x="283.5" y="168" fill="#E6E6E6" width="13" height="13"/>
			<rect x="283.5" y="155" fill="#E6E6E6" width="13" height="13"/>
			<rect x="283.5" y="142" fill="#E6E6E6" width="13" height="13"/>
			<rect x="283.5" y="129" fill="#FAFAFA" width="13" height="13"/>
			<rect x="283.5" y="116" fill="#FAFAFA" width="13" height="13"/>
			<rect x="283.5" y="103" fill="#FAFAFA" width="13" height="13"/>
			<rect x="283.5" y="90" fill="#E6E6E6" width="13" height="13"/>
			<rect x="283.5" y="77" width="13" height="13"/>
			<rect x="283.5" y="65" fill="#B3B3B3" width="13" height="12"/>
			<rect x="283.5" y="52" fill="#808080" width="13" height="13"/>
			<rect x="283.5" y="39" fill="#808080" width="13" height="13"/>
			<rect x="283.5" y="26" width="13" height="13"/>
			<rect x="270.5" y="335" width="13" height="13"/>
			<rect x="270.5" y="323" fill="#FFFF00" width="13" height="12"/>
			<rect x="270.5" y="310" fill="#FFFF00" width="13" height="13"/>
			<rect x="270.5" y="297" fill="#FFFF00" width="13" height="13"/>
			<rect x="270.5" y="284" fill="#FFFF00" width="13" height="13"/>
			<rect x="270.5" y="271" fill="#FFFF00" width="13" height="13"/>
			<rect x="270.5" y="258" width="13" height="13"/>
			<rect x="270.5" y="245" fill="#E6E6E6" width="13" height="13"/>
			<rect x="270.5" y="232" fill="#FAFAFA" width="13" height="13"/>
			<rect x="270.5" y="219" fill="#FAFAFA" width="13" height="13"/>
			<rect x="270.5" y="206" fill="#E6E6E6" width="13" height="13"/>
			<rect x="270.5" y="194" fill="#FAFAFA" width="13" height="12"/>
			<rect x="270.5" y="181" fill="#FAFAFA" width="13" height="13"/>
			<rect x="270.5" y="168" fill="#FAFAFA" width="13" height="13"/>
			<rect x="270.5" y="155" fill="#FAFAFA" width="13" height="13"/>
			<rect x="270.5" y="142" fill="#FAFAFA" width="13" height="13"/>
			<rect x="270.5" y="129" fill="#FAFAFA" width="13" height="13"/>
			<rect x="270.5" y="116" fill="#E6E6E6" width="13" height="13"/>
			<rect x="270.5" y="103" fill="#E6E6E6" width="13" height="13"/>
			<rect x="270.5" y="90" fill="#FF7400" width="13" height="13"/>
			<rect x="270.5" y="77" fill="#FF7400" width="13" height="13"/>
			<rect x="270.5" y="65" fill="#B3B3B3" width="13" height="12"/>
			<rect x="270.5" y="52" fill="#B3B3B3" width="13" height="13"/>
			<rect x="270.5" y="39" fill="#B3B3B3" width="13" height="13"/>
			<rect x="270.5" y="26" width="13" height="13"/>
			<rect x="257.5" y="335" width="13" height="13"/>
			<rect x="257.5" y="323" fill="#29ABE2" width="13" height="12"/>
			<rect x="257.5" y="310" fill="#29ABE2" width="13" height="13"/>
			<rect x="257.5" y="297" fill="#29ABE2" width="13" height="13"/>
			<rect x="257.5" y="284" fill="#FFFF00" width="13" height="13"/>
			<rect x="257.5" y="271" fill="#FFFF00" width="13" height="13"/>
			<rect x="257.5" y="258" width="13" height="13"/>
			<rect x="257.5" y="245" fill="#E6E6E6" width="13" height="13"/>
			<rect x="257.5" y="232" fill="#E6E6E6" width="13" height="13"/>
			<rect x="257.5" y="219" fill="#E6E6E6" width="13" height="13"/>
			<rect x="257.5" y="206" fill="#E6E6E6" width="13" height="13"/>
			<rect x="257.5" y="194" fill="#E6E6E6" width="13" height="12"/>
			<rect x="257.5" y="181" fill="#E6E6E6" width="13" height="13"/>
			<rect x="257.5" y="168" fill="#E6E6E6" width="13" height="13"/>
			<rect x="257.5" y="155" fill="#E6E6E6" width="13" height="13"/>
			<rect x="257.5" y="142" fill="#E6E6E6" width="13" height="13"/>
			<rect x="257.5" y="129" fill="#E6E6E6" width="13" height="13"/>
			<rect x="257.5" y="116" fill="#E6E6E6" width="13" height="13"/>
			<rect x="257.5" y="103" fill="#FF7400" width="13" height="13"/>
			<rect x="257.5" y="90" fill="#FF7400" width="13" height="13"/>
			<rect x="257.5" y="77" fill="#FF7400" width="13" height="13"/>
			<rect x="257.5" y="65" fill="#B3B3B3" width="13" height="12"/>
			<rect x="257.5" y="52" fill="#FCEE21" width="13" height="13"/>
			<rect x="257.5" y="39" fill="#3FA9F5" width="13" height="13"/>
			<rect x="257.5" y="26" width="13" height="13"/>
			<rect x="245.5" y="335" width="12" height="13"/>
			<rect x="245.5" y="323" fill="#FFFF00" width="12" height="12"/>
			<rect x="245.5" y="310" fill="#FFFF00" width="12" height="13"/>
			<rect x="245.5" y="297" fill="#FFFF00" width="12" height="13"/>
			<rect x="245.5" y="284" fill="#FFFF00" width="12" height="13"/>
			<rect x="245.5" y="271" fill="#FFFF00" width="12" height="13"/>
			<rect x="245.5" y="258" width="12" height="13"/>
			<rect x="245.5" y="245" fill="#E6E6E6" width="12" height="13"/>
			<rect x="245.5" y="232" fill="#FFFF00" width="12" height="13"/>
			<rect x="245.5" y="219" fill="#E6E6E6" width="12" height="13"/>
			<rect x="245.5" y="206" fill="#E6E6E6" width="12" height="13"/>
			<rect x="245.5" y="194" fill="#E6E6E6" width="12" height="12"/>
			<rect x="245.5" y="181" fill="#E6E6E6" width="12" height="13"/>
			<rect x="245.5" y="168" fill="#FFD200" width="12" height="13"/>
			<rect x="245.5" y="155" fill="#FFD200" width="12" height="13"/>
			<rect x="245.5" y="142" fill="#FFD200" width="12" height="13"/>
			<rect x="245.5" y="129" fill="#E6E6E6" width="12" height="13"/>
			<rect x="245.5" y="116" fill="#E6E6E6" width="12" height="13"/>
			<rect x="245.5" y="103" fill="#FF7400" width="12" height="13"/>
			<rect x="245.5" y="90" fill="#FF7400" width="12" height="13"/>
			<rect x="245.5" y="77" width="12" height="13"/>
			<rect x="245.5" y="65" fill="#B3B3B3" width="12" height="12"/>
			<rect x="245.5" y="52" fill="#3FA9F5" width="12" height="13"/>
			<rect x="245.5" y="39" fill="#FCEE21" width="12" height="13"/>
			<rect x="245.5" y="26" width="12" height="13"/>
			<rect x="232.5" y="335" width="13" height="13"/>
			<rect x="232.5" y="323" width="13" height="12"/>
			<rect x="232.5" y="310" width="13" height="13"/>
			<rect x="232.5" y="297" width="13" height="13"/>
			<rect x="232.5" y="284" width="13" height="13"/>
			<rect x="232.5" y="271" width="13" height="13"/>
			<rect x="232.5" y="258" width="13" height="13"/>
			<rect x="232.5" y="245" fill="#E6E6E6" width="13" height="13"/>
			<rect x="232.5" y="232" fill="#FFFF00" width="13" height="13"/>
			<rect x="232.5" y="219" fill="#FFFF00" width="13" height="13"/>
			<rect x="232.5" y="206" fill="#E6E6E6" width="13" height="13"/>
			<rect x="232.5" y="194" fill="#E6E6E6" width="13" height="12"/>
			<rect x="232.5" y="181" fill="#E6E6E6" width="13" height="13"/>
			<rect x="232.5" y="168" fill="#FFD200" width="13" height="13"/>
			<rect x="232.5" y="155" fill="#FFD200" width="13" height="13"/>
			<rect x="232.5" y="142" fill="#FFD200" width="13" height="13"/>
			<rect x="232.5" y="129" fill="#E6E6E6" width="13" height="13"/>
			<rect x="232.5" y="116" fill="#FF9600" width="13" height="13"/>
			<rect x="232.5" y="103" fill="#FF9600" width="13" height="13"/>
			<rect x="232.5" y="90" fill="#E6E6E6" width="13" height="13"/>
			<rect x="232.5" y="77" width="13" height="13"/>
			<rect x="232.5" y="65" fill="#B3B3B3" width="13" height="12"/>
			<rect x="232.5" y="52" fill="#FCEE21" width="13" height="13"/>
			<rect x="232.5" y="39" fill="#3FA9F5" width="13" height="13"/>
			<rect x="232.5" y="26" width="13" height="13"/>
			<rect x="219.5" y="258" width="13" height="13"/>
			<rect x="219.5" y="245" fill="#E6E6E6" width="13" height="13"/>
			<rect x="219.5" y="232" fill="#FFFF00" width="13" height="13"/>
			<rect x="219.5" y="219" fill="#FFFFFF" width="13" height="13"/>
			<rect x="219.5" y="206" fill="#FFFF00" width="13" height="13"/>
			<rect x="219.5" y="194" fill="#E6E6E6" width="13" height="12"/>
			<rect x="219.5" y="181" fill="#E6E6E6" width="13" height="13"/>
			<rect x="219.5" y="168" fill="#E6E6E6" width="13" height="13"/>
			<rect x="219.5" y="155" fill="#E6E6E6" width="13" height="13"/>
			<rect x="219.5" y="142" fill="#E6E6E6" width="13" height="13"/>
			<rect x="219.5" y="129" fill="#FFB600" width="13" height="13"/>
			<rect x="219.5" y="116" fill="#FFB600" width="13" height="13"/>
			<rect x="219.5" y="103" fill="#E6E6E6" width="13" height="13"/>
			<rect x="219.5" y="90" fill="#E6E6E6" width="13" height="13"/>
			<rect x="219.5" y="77" width="13" height="13"/>
			<rect x="219.5" y="65" fill="#B3B3B3" width="13" height="12"/>
			<rect x="219.5" y="52" fill="#3FA9F5" width="13" height="13"/>
			<rect x="219.5" y="39" fill="#FCEE21" width="13" height="13"/>
			<rect x="219.5" y="26" width="13" height="13"/>
			<rect x="206.5" y="258" width="13" height="13"/>
			<rect x="206.5" y="245" fill="#E6E6E6" width="13" height="13"/>
			<rect x="206.5" y="232" fill="#FFFF00" width="13" height="13"/>
			<rect x="206.5" y="219" fill="#FFFFFF" width="13" height="13"/>
			<rect x="206.5" y="206" fill="#FFFFFF" width="13" height="13"/>
			<rect x="206.5" y="194" fill="#FFFF00" width="13" height="12"/>
			<rect x="206.5" y="181" fill="#E6E6E6" width="13" height="13"/>
			<rect x="206.5" y="168" fill="#E6E6E6" width="13" height="13"/>
			<rect x="206.5" y="155" fill="#E6E6E6" width="13" height="13"/>
			<rect x="206.5" y="142" fill="#FFD200" width="13" height="13"/>
			<rect x="206.5" y="129" fill="#E6E6E6" width="13" height="13"/>
			<rect x="206.5" y="116" fill="#E6E6E6" width="13" height="13"/>
			<rect x="206.5" y="103" fill="#E6E6E6" width="13" height="13"/>
			<rect x="206.5" y="90" fill="#E6E6E6" width="13" height="13"/>
			<rect x="206.5" y="77" width="13" height="13"/>
			<rect x="206.5" y="65" fill="#B3B3B3" width="13" height="12"/>
			<rect x="206.5" y="52" fill="#FCEE21" width="13" height="13"/>
			<rect x="206.5" y="39" fill="#3FA9F5" width="13" height="13"/>
			<rect x="206.5" y="26" width="13" height="13"/>
			<rect x="193.5" y="258" width="13" height="13"/>
			<rect x="193.5" y="245" fill="#E6E6E6" width="13" height="13"/>
			<rect x="193.5" y="232" fill="#FFFF00" width="13" height="13"/>
			<rect x="193.5" y="219" fill="#FFFFFF" width="13" height="13"/>
			<rect x="193.5" y="206" fill="#FFFFFF" width="13" height="13"/>
			<rect x="193.5" y="194" fill="#FFFFFF" width="13" height="12"/>
			<rect x="193.5" y="181" fill="#FFFF00" width="13" height="13"/>
			<rect x="193.5" y="168" fill="#E6E6E6" width="13" height="13"/>
			<rect x="193.5" y="155" fill="#E6E6E6" width="13" height="13"/>
			<rect x="193.5" y="142" fill="#E6E6E6" width="13" height="13"/>
			<rect x="193.5" y="129" fill="#E6E6E6" width="13" height="13"/>
			<rect x="193.5" y="116" fill="#E6E6E6" width="13" height="13"/>
			<rect x="193.5" y="103" fill="#E6E6E6" width="13" height="13"/>
			<rect x="193.5" y="90" fill="#E6E6E6" width="13" height="13"/>
			<rect x="193.5" y="77" width="13" height="13"/>
			<rect x="193.5" y="65" fill="#B3B3B3" width="13" height="12"/>
			<rect x="193.5" y="52" fill="#3FA9F5" width="13" height="13"/>
			<rect x="193.5" y="39" fill="#FCEE21" width="13" height="13"/>
			<rect x="193.5" y="26" width="13" height="13"/>
			<rect x="193.5" y="13" fill="#F7931E" width="13" height="13"/>
			<polygon fill="#F7931E" points="206.5,0.5 206.5,13 193.5,13 193.5,0.5 193.5,0 206.5,0 			"/>
			<rect x="180.5" y="258" width="13" height="13"/>
			<rect x="180.5" y="245" fill="#E6E6E6" width="13" height="13"/>
			<rect x="180.5" y="232" fill="#FFFF00" width="13" height="13"/>
			<rect x="180.5" y="219" fill="#FFFFFF" width="13" height="13"/>
			<rect x="180.5" y="206" fill="#FFFFFF" width="13" height="13"/>
			<rect x="180.5" y="194" fill="#FFFF00" width="13" height="12"/>
			<rect x="180.5" y="181" fill="#E6E6E6" width="13" height="13"/>
			<rect x="180.5" y="168" fill="#E6E6E6" width="13" height="13"/>
			<rect x="180.5" y="155" fill="#E6E6E6" width="13" height="13"/>
			<rect x="180.5" y="142" fill="#FFD200" width="13" height="13"/>
			<rect x="180.5" y="129" fill="#E6E6E6" width="13" height="13"/>
			<rect x="180.5" y="116" fill="#E6E6E6" width="13" height="13"/>
			<rect x="180.5" y="103" fill="#E6E6E6" width="13" height="13"/>
			<rect x="180.5" y="90" fill="#E6E6E6" width="13" height="13"/>
			<rect x="180.5" y="77" width="13" height="13"/>
			<rect x="180.5" y="65" fill="#B3B3B3" width="13" height="12"/>
			<rect x="180.5" y="52" fill="#FCEE21" width="13" height="13"/>
			<rect x="180.5" y="39" fill="#3FA9F5" width="13" height="13"/>
			<rect x="180.5" y="26" width="13" height="13"/>
			<rect x="180.5" y="13" fill="#F7931E" width="13" height="13"/>
			<polygon fill="#F7931E" points="193.5,0.5 193.5,13 180.5,13 180.5,0.5 180.5,0 193.5,0 			"/>
			<rect x="167.5" y="258" width="13" height="13"/>
			<rect x="167.5" y="245" fill="#E6E6E6" width="13" height="13"/>
			<rect x="167.5" y="232" fill="#FFFF00" width="13" height="13"/>
			<rect x="167.5" y="219" fill="#FFFFFF" width="13" height="13"/>
			<rect x="167.5" y="206" fill="#FFFF00" width="13" height="13"/>
			<rect x="167.5" y="194" fill="#E6E6E6" width="13" height="12"/>
			<rect x="167.5" y="181" fill="#E6E6E6" width="13" height="13"/>
			<rect x="167.5" y="168" fill="#E6E6E6" width="13" height="13"/>
			<rect x="167.5" y="155" fill="#E6E6E6" width="13" height="13"/>
			<rect x="167.5" y="142" fill="#E6E6E6" width="13" height="13"/>
			<rect x="167.5" y="129" fill="#FFB600" width="13" height="13"/>
			<rect x="167.5" y="116" fill="#FFB600" width="13" height="13"/>
			<rect x="167.5" y="103" fill="#E6E6E6" width="13" height="13"/>
			<rect x="167.5" y="90" fill="#E6E6E6" width="13" height="13"/>
			<rect x="167.5" y="77" width="13" height="13"/>
			<rect x="167.5" y="65" fill="#B3B3B3" width="13" height="12"/>
			<rect x="167.5" y="52" fill="#3FA9F5" width="13" height="13"/>
			<rect x="167.5" y="39" fill="#FCEE21" width="13" height="13"/>
			<rect x="167.5" y="26" width="13" height="13"/>
			<rect x="154.5" y="310" width="13" height="13"/>
			<rect x="154.5" y="297" width="13" height="13"/>
			<rect x="154.5" y="284" width="13" height="13"/>
			<rect x="154.5" y="271" width="13" height="13"/>
			<rect x="154.5" y="258" width="13" height="13"/>
			<rect x="154.5" y="245" fill="#E6E6E6" width="13" height="13"/>
			<rect x="154.5" y="232" fill="#FFFF00" width="13" height="13"/>
			<rect x="154.5" y="219" fill="#FFFF00" width="13" height="13"/>
			<rect x="154.5" y="206" fill="#E6E6E6" width="13" height="13"/>
			<rect x="154.5" y="194" fill="#E6E6E6" width="13" height="12"/>
			<rect x="154.5" y="181" fill="#E6E6E6" width="13" height="13"/>
			<rect x="154.5" y="168" fill="#FFD200" width="13" height="13"/>
			<rect x="154.5" y="155" fill="#FFD200" width="13" height="13"/>
			<rect x="154.5" y="142" fill="#FFD200" width="13" height="13"/>
			<rect x="154.5" y="129" fill="#E6E6E6" width="13" height="13"/>
			<rect x="154.5" y="116" fill="#FF9600" width="13" height="13"/>
			<rect x="154.5" y="103" fill="#FF9600" width="13" height="13"/>
			<rect x="154.5" y="90" fill="#E6E6E6" width="13" height="13"/>
			<rect x="154.5" y="77" width="13" height="13"/>
			<rect x="154.5" y="65" fill="#B3B3B3" width="13" height="12"/>
			<rect x="154.5" y="52" fill="#FCEE21" width="13" height="13"/>
			<rect x="154.5" y="39" fill="#3FA9F5" width="13" height="13"/>
			<rect x="154.5" y="26" width="13" height="13"/>
			<rect x="141.5" y="310" width="13" height="13"/>
			<rect x="141.5" y="297" fill="#FFFF00" width="13" height="13"/>
			<rect x="141.5" y="284" fill="#FFFF00" width="13" height="13"/>
			<rect x="141.5" y="271" fill="#FFFF00" width="13" height="13"/>
			<rect x="141.5" y="258" width="13" height="13"/>
			<rect x="141.5" y="245" fill="#E6E6E6" width="13" height="13"/>
			<rect x="141.5" y="232" fill="#FFFF00" width="13" height="13"/>
			<rect x="141.5" y="219" fill="#E6E6E6" width="13" height="13"/>
			<rect x="141.5" y="206" fill="#E6E6E6" width="13" height="13"/>
			<rect x="141.5" y="194" fill="#E6E6E6" width="13" height="12"/>
			<rect x="141.5" y="181" fill="#E6E6E6" width="13" height="13"/>
			<rect x="141.5" y="168" fill="#FFD200" width="13" height="13"/>
			<rect x="141.5" y="155" fill="#FFD200" width="13" height="13"/>
			<rect x="141.5" y="142" fill="#FFD200" width="13" height="13"/>
			<rect x="141.5" y="129" fill="#E6E6E6" width="13" height="13"/>
			<rect x="141.5" y="116" fill="#E6E6E6" width="13" height="13"/>
			<rect x="141.5" y="103" fill="#FF7400" width="13" height="13"/>
			<rect x="141.5" y="90" fill="#FF7400" width="13" height="13"/>
			<rect x="141.5" y="77" width="13" height="13"/>
			<rect x="141.5" y="65" fill="#B3B3B3" width="13" height="12"/>
			<rect x="141.5" y="52" fill="#3FA9F5" width="13" height="13"/>
			<rect x="141.5" y="39" fill="#FCEE21" width="13" height="13"/>
			<rect x="141.5" y="26" width="13" height="13"/>
			<rect x="128.5" y="310" width="13" height="13"/>
			<rect x="128.5" y="297" fill="#29ABE2" width="13" height="13"/>
			<rect x="128.5" y="284" fill="#29ABE2" width="13" height="13"/>
			<rect x="128.5" y="271" fill="#29ABE2" width="13" height="13"/>
			<rect x="128.5" y="258" width="13" height="13"/>
			<rect x="128.5" y="245" fill="#E6E6E6" width="13" height="13"/>
			<rect x="128.5" y="232" fill="#E6E6E6" width="13" height="13"/>
			<rect x="128.5" y="219" fill="#E6E6E6" width="13" height="13"/>
			<rect x="128.5" y="206" fill="#E6E6E6" width="13" height="13"/>
			<rect x="128.5" y="194" fill="#E6E6E6" width="13" height="12"/>
			<rect x="128.5" y="181" fill="#E6E6E6" width="13" height="13"/>
			<rect x="128.5" y="168" fill="#E6E6E6" width="13" height="13"/>
			<rect x="128.5" y="155" fill="#E6E6E6" width="13" height="13"/>
			<rect x="128.5" y="142" fill="#E6E6E6" width="13" height="13"/>
			<rect x="128.5" y="129" fill="#E6E6E6" width="13" height="13"/>
			<rect x="128.5" y="116" fill="#E6E6E6" width="13" height="13"/>
			<rect x="128.5" y="103" fill="#FF7400" width="13" height="13"/>
			<rect x="128.5" y="90" fill="#FF7400" width="13" height="13"/>
			<rect x="128.5" y="77" fill="#FF7400" width="13" height="13"/>
			<rect x="128.5" y="65" fill="#B3B3B3" width="13" height="12"/>
			<rect x="128.5" y="52" fill="#FCEE21" width="13" height="13"/>
			<rect x="128.5" y="39" fill="#3FA9F5" width="13" height="13"/>
			<rect x="128.5" y="26" width="13" height="13"/>
			<rect x="116.5" y="310" width="12" height="13"/>
			<rect x="116.5" y="297" fill="#FFFF00" width="12" height="13"/>
			<rect x="116.5" y="284" fill="#FFFF00" width="12" height="13"/>
			<rect x="116.5" y="271" fill="#FFFF00" width="12" height="13"/>
			<rect x="116.5" y="258" width="12" height="13"/>
			<rect x="116.5" y="245" fill="#E6E6E6" width="12" height="13"/>
			<rect x="116.5" y="232" fill="#E6E6E6" width="12" height="13"/>
			<rect x="116.5" y="219" fill="#E6E6E6" width="12" height="13"/>
			<rect x="116.5" y="206" fill="#E6E6E6" width="12" height="13"/>
			<rect x="116.5" y="194" fill="#E6E6E6" width="12" height="12"/>
			<rect x="116.5" y="181" fill="#E6E6E6" width="12" height="13"/>
			<rect x="116.5" y="168" fill="#E6E6E6" width="12" height="13"/>
			<rect x="116.5" y="155" fill="#E6E6E6" width="12" height="13"/>
			<rect x="116.5" y="142" fill="#E6E6E6" width="12" height="13"/>
			<rect x="116.5" y="129" fill="#E6E6E6" width="12" height="13"/>
			<rect x="116.5" y="116" fill="#E6E6E6" width="12" height="13"/>
			<rect x="116.5" y="103" fill="#E6E6E6" width="12" height="13"/>
			<rect x="116.5" y="90" fill="#FF7400" width="12" height="13"/>
			<rect x="116.5" y="77" fill="#FF7400" width="12" height="13"/>
			<rect x="116.5" y="65" fill="#B3B3B3" width="12" height="12"/>
			<rect x="116.5" y="52" fill="#B3B3B3" width="12" height="13"/>
			<rect x="116.5" y="39" fill="#B3B3B3" width="12" height="13"/>
			<rect x="116.5" y="26" width="12" height="13"/>
			<rect x="103.5" y="310" width="13" height="13"/>
			<rect x="103.5" y="297" width="13" height="13"/>
			<rect x="103.5" y="284" width="13" height="13"/>
			<rect x="103.5" y="271" width="13" height="13"/>
			<rect x="103.5" y="258" width="13" height="13"/>
			<rect x="103.5" y="245" width="13" height="13"/>
			<rect x="103.5" y="232" fill="#E6E6E6" width="13" height="13"/>
			<rect x="103.5" y="219" fill="#E6E6E6" width="13" height="13"/>
			<rect x="103.5" y="206" fill="#E6E6E6" width="13" height="13"/>
			<rect x="103.5" y="194" fill="#E6E6E6" width="13" height="12"/>
			<rect x="103.5" y="181" fill="#E6E6E6" width="13" height="13"/>
			<rect x="103.5" y="168" fill="#E6E6E6" width="13" height="13"/>
			<rect x="103.5" y="155" fill="#E6E6E6" width="13" height="13"/>
			<rect x="103.5" y="142" fill="#E6E6E6" width="13" height="13"/>
			<rect x="103.5" y="129" fill="#E6E6E6" width="13" height="13"/>
			<rect x="103.5" y="116" fill="#E6E6E6" width="13" height="13"/>
			<rect x="103.5" y="103" fill="#E6E6E6" width="13" height="13"/>
			<rect x="103.5" y="90" fill="#E6E6E6" width="13" height="13"/>
			<rect x="103.5" y="77" width="13" height="13"/>
			<rect x="103.5" y="65" fill="#B3B3B3" width="13" height="12"/>
			<rect x="103.5" y="52" fill="#808080" width="13" height="13"/>
			<rect x="103.5" y="39" fill="#808080" width="13" height="13"/>
			<rect x="103.5" y="26" width="13" height="13"/>
			<rect x="90.5" y="323" fill="#4D4D4D" width="13" height="12"/>
			<rect x="90.5" y="310" fill="#4D4D4D" width="13" height="13"/>
			<rect x="90.5" y="297" fill="#4D4D4D" width="13" height="13"/>
			<rect x="90.5" y="271" width="13" height="13"/>
			<rect x="90.5" y="258" fill="#0000FF" width="13" height="13"/>
			<rect x="90.5" y="245" width="13" height="13"/>
			<rect x="90.5" y="232" width="13" height="13"/>
			<rect x="90.5" y="219" width="13" height="13"/>
			<rect x="90.5" y="206" width="13" height="13"/>
			<rect x="90.5" y="194" width="13" height="12"/>
			<rect x="90.5" y="181" width="13" height="13"/>
			<rect x="90.5" y="168" width="13" height="13"/>
			<rect x="90.5" y="155" width="13" height="13"/>
			<rect x="90.5" y="142" width="13" height="13"/>
			<rect x="90.5" y="129" fill="#E6E6E6" width="13" height="13"/>
			<rect x="90.5" y="116" fill="#E6E6E6" width="13" height="13"/>
			<rect x="90.5" y="103" fill="#E6E6E6" width="13" height="13"/>
			<rect x="90.5" y="90" fill="#E6E6E6" width="13" height="13"/>
			<rect x="90.5" y="77" width="13" height="13"/>
			<rect x="90.5" y="65" fill="#B3B3B3" width="13" height="12"/>
			<rect x="90.5" y="52" fill="#3FA9F5" width="13" height="13"/>
			<rect x="90.5" y="39" fill="#3FA9F5" width="13" height="13"/>
			<rect x="90.5" y="26" width="13" height="13"/>
			<rect x="77.5" y="297" fill="#C2C2C2" width="13" height="13"/>
			<rect x="77.5" y="284" fill="#C2C2C2" width="13" height="13"/>
			<rect x="77.5" y="271" width="13" height="13"/>
			<rect x="77.5" y="258" fill="#0000FF" width="13" height="13"/>
			<rect x="77.5" y="245" fill="#0000FF" width="13" height="13"/>
			<rect x="77.5" y="232" width="13" height="13"/>
			<rect x="77.5" y="219" fill="#B3B3B3" width="13" height="13"/>
			<rect x="77.5" y="206" fill="#B3B3B3" width="13" height="13"/>
			<rect x="77.5" y="194" fill="#B3B3B3" width="13" height="12"/>
			<rect x="77.5" y="181" fill="#00FFFF" width="13" height="13"/>
			<rect x="77.5" y="168" fill="#00FFFF" width="13" height="13"/>
			<rect x="77.5" y="155" fill="#B3B3B3" width="13" height="13"/>
			<rect x="77.5" y="142" width="13" height="13"/>
			<rect x="77.5" y="129" width="13" height="13"/>
			<rect x="77.5" y="116" width="13" height="13"/>
			<rect x="77.5" y="103" width="13" height="13"/>
			<rect x="77.5" y="90" width="13" height="13"/>
			<rect x="77.5" y="77" width="13" height="13"/>
			<rect x="77.5" y="65" width="13" height="12"/>
			<rect x="77.5" y="52" fill="#B3B3B3" width="13" height="13"/>
			<rect x="77.5" y="39" fill="#B3B3B3" width="13" height="13"/>
			<rect x="77.5" y="26" width="13" height="13"/>
			<rect x="64.5" y="323" fill="#4D4D4D" width="13" height="12"/>
			<rect x="64.5" y="310" fill="#4D4D4D" width="13" height="13"/>
			<rect x="64.5" y="297" fill="#4D4D4D" width="13" height="13"/>
			<rect x="64.5" y="284" fill="#C2C2C2" width="13" height="13"/>
			<rect x="64.5" y="271" width="13" height="13"/>
			<rect x="64.5" y="258" fill="#0000FF" width="13" height="13"/>
			<rect x="64.5" y="245" fill="#0000FF" width="13" height="13"/>
			<rect x="64.5" y="232" width="13" height="13"/>
			<rect x="64.5" y="219" fill="#00FFFF" width="13" height="13"/>
			<rect x="64.5" y="206" fill="#00FFFF" width="13" height="13"/>
			<rect x="64.5" y="194" fill="#B3B3B3" width="13" height="12"/>
			<rect x="64.5" y="181" fill="#00FFFF" width="13" height="13"/>
			<rect x="64.5" y="168" fill="#B3B3B3" width="13" height="13"/>
			<rect x="64.5" y="155" fill="#00FFFF" width="13" height="13"/>
			<rect x="64.5" y="142" fill="#00FFFF" width="13" height="13"/>
			<rect x="64.5" y="129" fill="#00FFFF" width="13" height="13"/>
			<rect x="64.5" y="116" width="13" height="13"/>
			<rect x="64.5" y="103" fill="#FFFF00" width="13" height="13"/>
			<rect x="64.5" y="65" width="13" height="12"/>
			<rect x="64.5" y="52" width="13" height="13"/>
			<rect x="64.5" y="39" width="13" height="13"/>
			<rect x="64.5" y="26" width="13" height="13"/>
			<rect x="51.5" y="323" fill="#4D4D4D" width="13" height="12"/>
			<rect x="51.5" y="310" fill="#4D4D4D" width="13" height="13"/>
			<rect x="51.5" y="297" fill="#4D4D4D" width="13" height="13"/>
			<rect x="51.5" y="284" fill="#C2C2C2" width="13" height="13"/>
			<rect x="51.5" y="271" width="13" height="13"/>
			<rect x="51.5" y="258" fill="#0000FF" width="13" height="13"/>
			<rect x="51.5" y="245" fill="#0000FF" width="13" height="13"/>
			<rect x="51.5" y="232" width="13" height="13"/>
			<rect x="51.5" y="219" fill="#B3B3B3" width="13" height="13"/>
			<rect x="51.5" y="206" fill="#00FFFF" width="13" height="13"/>
			<rect x="51.5" y="194" fill="#00FFFF" width="13" height="12"/>
			<rect x="51.5" y="181" fill="#00FFFF" width="13" height="13"/>
			<rect x="51.5" y="168" fill="#B3B3B3" width="13" height="13"/>
			<rect x="51.5" y="155" fill="#B3B3B3" width="13" height="13"/>
			<rect x="51.5" y="142" fill="#B3B3B3" width="13" height="13"/>
			<rect x="51.5" y="129" width="13" height="13"/>
			<rect x="51.5" y="116" fill="#FFFF00" width="13" height="13"/>
			<rect x="51.5" y="103" fill="#FFFF00" width="13" height="13"/>
			<rect x="51.5" y="90" fill="#FFFF00" width="13" height="13"/>
			<rect x="38.5" y="297" fill="#C2C2C2" width="13" height="13"/>
			<rect x="38.5" y="284" fill="#C2C2C2" width="13" height="13"/>
			<rect x="38.5" y="271" width="13" height="13"/>
			<rect x="38.5" y="258" fill="#0000FF" width="13" height="13"/>
			<rect x="38.5" y="245" fill="#0000FF" width="13" height="13"/>
			<rect x="38.5" y="232" width="13" height="13"/>
			<rect x="38.5" y="219" width="13" height="13"/>
			<rect x="38.5" y="206" width="13" height="13"/>
			<rect x="38.5" y="194" width="13" height="12"/>
			<rect x="38.5" y="181" width="13" height="13"/>
			<rect x="38.5" y="168" width="13" height="13"/>
			<rect x="38.5" y="155" width="13" height="13"/>
			<rect x="38.5" y="142" width="13" height="13"/>
			<rect x="38.5" y="129" fill="#FFFF00" width="13" height="13"/>
			<rect x="38.5" y="116" fill="#FFFF00" width="13" height="13"/>
			<rect x="38.5" y="103" fill="#FFFF00" width="13" height="13"/>
			<rect x="38.5" y="90" fill="#FFFF00" width="13" height="13"/>
			<rect x="38.5" y="77" fill="#FFFF00" width="13" height="13"/>
			<rect x="25.5" y="323" fill="#4D4D4D" width="13" height="12"/>
			<rect x="25.5" y="310" fill="#4D4D4D" width="13" height="13"/>
			<rect x="25.5" y="297" fill="#4D4D4D" width="13" height="13"/>
			<rect x="25.5" y="271" width="13" height="13"/>
			<rect x="25.5" y="258" fill="#0000FF" width="13" height="13"/>
			<rect x="25.5" y="245" fill="#0000FF" width="13" height="13"/>
			<rect x="25.5" y="232" width="13" height="13"/>
			<rect x="25.5" y="181" fill="#FFFF00" width="13" height="13"/>
			<rect x="25.5" y="168" fill="#FFFF00" width="13" height="13"/>
			<rect x="25.5" y="155" fill="#FFFF00" width="13" height="13"/>
			<rect x="25.5" y="142" fill="#FFFF00" width="13" height="13"/>
			<rect x="25.5" y="103" fill="#FFFF00" width="13" height="13"/>
			<rect x="25.5" y="90" fill="#FFFF00" width="13" height="13"/>
			<rect x="25.5" y="77" fill="#FFFF00" width="13" height="13"/>
			<rect x="25.5" y="65" fill="#FFFF00" width="13" height="12"/>
			<rect x="12.5" y="323" fill="#4D4D4D" width="13" height="12"/>
			<rect x="12.5" y="310" fill="#4D4D4D" width="13" height="13"/>
			<rect x="12.5" y="258" width="13" height="13"/>
			<rect x="12.5" y="245" width="13" height="13"/>
			<rect x="12.5" y="181" fill="#FFFF00" width="13" height="13"/>
			<rect x="12.5" y="168" fill="#FFFF00" width="13" height="13"/>
			<rect x="12.5" y="155" fill="#FFFF00" width="13" height="13"/>
			<rect x="12.5" y="77" fill="#FFFF00" width="13" height="13"/>
			<rect x="12.5" y="65" fill="#FFFF00" width="13" height="12"/>
		</g>
		<g>
		</g>
	</g>
</g>
</svg>
