<?xml version="1.0" encoding="utf-8"?>
<!-- Generator: Adobe Illustrator 18.0.0, SVG Export Plug-In . SVG Version: 6.00 Build 0)  -->
<!DOCTYPE svg PUBLIC "-//W3C//DTD SVG 1.1//EN" "http://www.w3.org/Graphics/SVG/1.1/DTD/svg11.dtd">
<svg version="1.1" id="Layer_1" xmlns="http://www.w3.org/2000/svg" xmlns:xlink="http://www.w3.org/1999/xlink" x="0px" y="0px"
	 viewBox="0 0 400 400" enable-background="new 0 0 400 400" xml:space="preserve">
<g>
	<g id="XMLID_1_">
		<g>
			<rect x="375" y="258" width="12" height="13"/>
			<rect x="375" y="245" width="12" height="13"/>
			<rect x="375" y="181" fill="#FFFF00" width="12" height="13"/>
			<rect x="375" y="168" fill="#FFFF00" width="12" height="13"/>
			<rect x="375" y="155" fill="#FFFF00" width="12" height="13"/>
			<rect x="375" y="77" fill="#FFFF00" width="12" height="13"/>
			<rect x="375" y="65" fill="#FFFF00" width="12" height="12"/>
			<rect x="362" y="323" fill="#FFFF00" width="13" height="12"/>
			<rect x="362" y="310" fill="#FFFF00" width="13" height="13"/>
			<rect x="362" y="297" fill="#FFFF00" width="13" height="13"/>
			<rect x="362" y="271" width="13" height="13"/>
			<rect x="362" y="258" fill="#0000FF" width="13" height="13"/>
			<rect x="362" y="245" fill="#0000FF" width="13" height="13"/>
			<rect x="362" y="232" width="13" height="13"/>
			<rect x="362" y="181" fill="#FFFF00" width="13" height="13"/>
			<rect x="362" y="168" fill="#FFFF00" width="13" height="13"/>
			<rect x="362" y="155" fill="#FFFF00" width="13" height="13"/>
			<rect x="362" y="142" fill="#FFFF00" width="13" height="13"/>
			<rect x="362" y="103" fill="#FFFF00" width="13" height="13"/>
			<rect x="362" y="90" fill="#FFFF00" width="13" height="13"/>
			<rect x="362" y="77" fill="#FFFF00" width="13" height="13"/>
			<rect x="362" y="65" fill="#FFFF00" width="13" height="12"/>
			<rect x="349" y="297" fill="#C2C2C2" width="13" height="13"/>
			<rect x="349" y="284" fill="#C2C2C2" width="13" height="13"/>
			<rect x="349" y="271" width="13" height="13"/>
			<rect x="349" y="258" fill="#0000FF" width="13" height="13"/>
			<rect x="349" y="245" fill="#0000FF" width="13" height="13"/>
			<rect x="349" y="232" width="13" height="13"/>
			<rect x="349" y="219" width="13" height="13"/>
			<rect x="349" y="206" width="13" height="13"/>
			<rect x="349" y="194" width="13" height="12"/>
			<rect x="349" y="181" width="13" height="13"/>
			<rect x="349" y="168" width="13" height="13"/>
			<rect x="349" y="155" width="13" height="13"/>
			<rect x="349" y="142" width="13" height="13"/>
			<rect x="349" y="129" fill="#FFFF00" width="13" height="13"/>
			<rect x="349" y="116" fill="#FFFF00" width="13" height="13"/>
			<rect x="349" y="103" fill="#FFFF00" width="13" height="13"/>
			<rect x="349" y="90" fill="#FFFF00" width="13" height="13"/>
			<rect x="349" y="77" fill="#FFFF00" width="13" height="13"/>
			<rect x="336" y="335" fill="#FFFF00" width="13" height="13"/>
			<rect x="336" y="323" fill="#FFFF00" width="13" height="12"/>
			<rect x="336" y="310" fill="#FFFF00" width="13" height="13"/>
			<rect x="336" y="297" fill="#C2C2C2" width="13" height="13"/>
			<rect x="336" y="284" fill="#C2C2C2" width="13" height="13"/>
			<rect x="336" y="271" width="13" height="13"/>
			<rect x="336" y="258" fill="#0000FF" width="13" height="13"/>
			<rect x="336" y="245" fill="#0000FF" width="13" height="13"/>
			<rect x="336" y="232" width="13" height="13"/>
			<rect x="336" y="219" fill="#B3B3B3" width="13" height="13"/>
			<rect x="336" y="206" fill="#B3B3B3" width="13" height="13"/>
			<rect x="336" y="194" fill="#B3B3B3" width="13" height="12"/>
			<rect x="336" y="181" fill="#B3B3B3" width="13" height="13"/>
			<rect x="336" y="168" width="13" height="13"/>
			<rect x="336" y="155" fill="#B3B3B3" width="13" height="13"/>
			<rect x="336" y="142" fill="#B3B3B3" width="13" height="13"/>
			<rect x="336" y="129" width="13" height="13"/>
			<rect x="336" y="116" fill="#FFFF00" width="13" height="13"/>
			<rect x="336" y="103" fill="#FFFF00" width="13" height="13"/>
			<rect x="336" y="90" fill="#FFFF00" width="13" height="13"/>
			<rect x="323" y="310" fill="#FFFF00" width="13" height="13"/>
			<rect x="323" y="297" fill="#FFFF00" width="13" height="13"/>
			<rect x="323" y="284" fill="#FFFF00" width="13" height="13"/>
			<rect x="323" y="271" width="13" height="13"/>
			<rect x="323" y="258" fill="#0000FF" width="13" height="13"/>
			<rect x="323" y="245" fill="#0000FF" width="13" height="13"/>
			<rect x="323" y="232" width="13" height="13"/>
			<rect x="323" y="219" width="13" height="13"/>
			<rect x="323" y="206" fill="#B3B3B3" width="13" height="13"/>
			<rect x="323" y="194" fill="#B3B3B3" width="13" height="12"/>
			<rect x="323" y="181" width="13" height="13"/>
			<rect x="323" y="168" fill="#B3B3B3" width="13" height="13"/>
			<rect x="323" y="155" width="13" height="13"/>
			<rect x="323" y="142" width="13" height="13"/>
			<rect x="323" y="129" width="13" height="13"/>
			<rect x="323" y="116" width="13" height="13"/>
			<rect x="323" y="103" fill="#FFFF00" width="13" height="13"/>
			<rect x="323" y="65" width="13" height="12"/>
			<rect x="323" y="52" width="13" height="13"/>
			<rect x="323" y="39" width="13" height="13"/>
			<rect x="323" y="26" width="13" height="13"/>
			<rect x="310" y="297" fill="#C2C2C2" width="13" height="13"/>
			<rect x="310" y="284" fill="#C2C2C2" width="13" height="13"/>
			<rect x="310" y="271" width="13" height="13"/>
			<rect x="310" y="258" fill="#0000FF" width="13" height="13"/>
			<rect x="310" y="245" fill="#0000FF" width="13" height="13"/>
			<rect x="310" y="232" width="13" height="13"/>
			<rect x="310" y="219" fill="#B3B3B3" width="13" height="13"/>
			<rect x="310" y="206" width="13" height="13"/>
			<rect x="310" y="194" width="13" height="12"/>
			<rect x="310" y="181" fill="#B3B3B3" width="13" height="13"/>
			<rect x="310" y="168" fill="#B3B3B3" width="13" height="13"/>
			<rect x="310" y="155" fill="#B3B3B3" width="13" height="13"/>
			<rect x="310" y="142" width="13" height="13"/>
			<rect x="310" y="129" width="13" height="13"/>
			<rect x="310" y="116" width="13" height="13"/>
			<rect x="310" y="103" width="13" height="13"/>
			<rect x="310" y="90" width="13" height="13"/>
			<rect x="310" y="77" width="13" height="13"/>
			<rect x="310" y="65" width="13" height="12"/>
			<rect x="310" y="52" fill="#B3B3B3" width="13" height="13"/>
			<rect x="310" y="39" fill="#B3B3B3" width="13" height="13"/>
			<rect x="310" y="26" width="13" height="13"/>
			<rect x="297" y="323" fill="#FFFF00" width="13" height="12"/>
			<rect x="297" y="310" fill="#FFFF00" width="13" height="13"/>
			<rect x="297" y="297" fill="#FFFF00" width="13" height="13"/>
			<rect x="297" y="271" width="13" height="13"/>
			<rect x="297" y="258" fill="#0000FF" width="13" height="13"/>
			<rect x="297" y="245" width="13" height="13"/>
			<rect x="297" y="232" width="13" height="13"/>
			<rect x="297" y="219" width="13" height="13"/>
			<rect x="297" y="206" width="13" height="13"/>
			<rect x="297" y="194" width="13" height="12"/>
			<rect x="297" y="181" width="13" height="13"/>
			<rect x="297" y="168" width="13" height="13"/>
			<rect x="297" y="155" width="13" height="13"/>
			<rect x="297" y="142" width="13" height="13"/>
			<rect x="297" y="129" fill="#E6E6E6" width="13" height="13"/>
			<rect x="297" y="116" fill="#E6E6E6" width="13" height="13"/>
			<rect x="297" y="103" fill="#E6E6E6" width="13" height="13"/>
			<rect x="297" y="90" fill="#E6E6E6" width="13" height="13"/>
			<rect x="297" y="77" width="13" height="13"/>
			<rect x="297" y="65" fill="#B3B3B3" width="13" height="12"/>
			<rect x="297" y="52" fill="#3FA9F5" width="13" height="13"/>
			<rect x="297" y="39" fill="#3FA9F5" width="13" height="13"/>
			<rect x="297" y="26" width="13" height="13"/>
			<rect x="284" y="297" width="13" height="13"/>
			<rect x="284" y="284" width="13" height="13"/>
			<rect x="284" y="271" width="13" height="13"/>
			<rect x="284" y="258" width="13" height="13"/>
			<rect x="284" y="245" width="13" height="13"/>
			<rect x="284" y="232" fill="#E6E6E6" width="13" height="13"/>
			<rect x="284" y="219" fill="#E6E6E6" width="13" height="13"/>
			<rect x="284" y="206" fill="#E6E6E6" width="13" height="13"/>
			<rect x="284" y="194" fill="#E6E6E6" width="13" height="12"/>
			<rect x="284" y="181" fill="#E6E6E6" width="13" height="13"/>
			<rect x="284" y="168" fill="#E6E6E6" width="13" height="13"/>
			<rect x="284" y="155" fill="#E6E6E6" width="13" height="13"/>
			<rect x="284" y="142" fill="#E6E6E6" width="13" height="13"/>
			<rect x="284" y="129" fill="#FAFAFA" width="13" height="13"/>
			<rect x="284" y="116" fill="#FAFAFA" width="13" height="13"/>
			<rect x="284" y="103" fill="#FAFAFA" width="13" height="13"/>
			<rect x="284" y="90" fill="#E6E6E6" width="13" height="13"/>
			<rect x="284" y="77" width="13" height="13"/>
			<rect x="284" y="65" fill="#B3B3B3" width="13" height="12"/>
			<rect x="284" y="52" fill="#808080" width="13" height="13"/>
			<rect x="284" y="39" fill="#808080" width="13" height="13"/>
			<rect x="284" y="26" width="13" height="13"/>
			<rect x="271" y="297" width="13" height="13"/>
			<rect x="271" y="284" fill="#FFFF00" width="13" height="13"/>
			<rect x="271" y="271" fill="#FFFF00" width="13" height="13"/>
			<rect x="271" y="258" width="13" height="13"/>
			<rect x="271" y="245" fill="#E6E6E6" width="13" height="13"/>
			<rect x="271" y="232" fill="#FAFAFA" width="13" height="13"/>
			<rect x="271" y="219" fill="#FAFAFA" width="13" height="13"/>
			<rect x="271" y="206" fill="#E6E6E6" width="13" height="13"/>
			<rect x="271" y="194" fill="#FAFAFA" width="13" height="12"/>
			<rect x="271" y="181" fill="#FAFAFA" width="13" height="13"/>
			<rect x="271" y="168" fill="#FAFAFA" width="13" height="13"/>
			<rect x="271" y="155" fill="#FAFAFA" width="13" height="13"/>
			<rect x="271" y="142" fill="#FAFAFA" width="13" height="13"/>
			<rect x="271" y="129" fill="#FAFAFA" width="13" height="13"/>
			<rect x="271" y="116" fill="#E6E6E6" width="13" height="13"/>
			<rect x="271" y="103" fill="#E6E6E6" width="13" height="13"/>
			<rect x="271" y="90" fill="#FF7400" width="13" height="13"/>
			<rect x="271" y="77" fill="#FF7400" width="13" height="13"/>
			<rect x="271" y="65" fill="#B3B3B3" width="13" height="12"/>
			<rect x="271" y="52" fill="#B3B3B3" width="13" height="13"/>
			<rect x="271" y="39" fill="#B3B3B3" width="13" height="13"/>
			<rect x="271" y="26" width="13" height="13"/>
			<rect x="258" y="297" width="13" height="13"/>
			<rect x="258" y="284" fill="#FFFF00" width="13" height="13"/>
			<rect x="258" y="271" fill="#FFFF00" width="13" height="13"/>
			<rect x="258" y="258" width="13" height="13"/>
			<rect x="258" y="245" fill="#E6E6E6" width="13" height="13"/>
			<rect x="258" y="232" fill="#E6E6E6" width="13" height="13"/>
			<rect x="258" y="219" fill="#E6E6E6" width="13" height="13"/>
			<rect x="258" y="206" fill="#E6E6E6" width="13" height="13"/>
			<rect x="258" y="194" fill="#E6E6E6" width="13" height="12"/>
			<rect x="258" y="181" fill="#E6E6E6" width="13" height="13"/>
			<rect x="258" y="168" fill="#E6E6E6" width="13" height="13"/>
			<rect x="258" y="155" fill="#E6E6E6" width="13" height="13"/>
			<rect x="258" y="142" fill="#E6E6E6" width="13" height="13"/>
			<rect x="258" y="129" fill="#E6E6E6" width="13" height="13"/>
			<rect x="258" y="116" fill="#E6E6E6" width="13" height="13"/>
			<rect x="258" y="103" fill="#FF7400" width="13" height="13"/>
			<rect x="258" y="90" fill="#FF7400" width="13" height="13"/>
			<rect x="258" y="77" fill="#FF7400" width="13" height="13"/>
			<rect x="258" y="65" fill="#B3B3B3" width="13" height="12"/>
			<rect x="258" y="52" fill="#FCEE21" width="13" height="13"/>
			<rect x="258" y="39" fill="#3FA9F5" width="13" height="13"/>
			<rect x="258" y="26" width="13" height="13"/>
			<rect x="246" y="297" width="12" height="13"/>
			<rect x="246" y="284" fill="#FFFF00" width="12" height="13"/>
			<rect x="246" y="271" fill="#FFFF00" width="12" height="13"/>
			<rect x="246" y="258" width="12" height="13"/>
			<rect x="246" y="245" fill="#E6E6E6" width="12" height="13"/>
			<rect x="246" y="232" fill="#FFFF00" width="12" height="13"/>
			<rect x="246" y="219" fill="#E6E6E6" width="12" height="13"/>
			<rect x="246" y="206" fill="#E6E6E6" width="12" height="13"/>
			<rect x="246" y="194" fill="#E6E6E6" width="12" height="12"/>
			<rect x="246" y="181" fill="#E6E6E6" width="12" height="13"/>
			<rect x="246" y="168" fill="#FFD200" width="12" height="13"/>
			<rect x="246" y="155" fill="#FFD200" width="12" height="13"/>
			<rect x="246" y="142" fill="#FFD200" width="12" height="13"/>
			<rect x="246" y="129" fill="#E6E6E6" width="12" height="13"/>
			<rect x="246" y="116" fill="#E6E6E6" width="12" height="13"/>
			<rect x="246" y="103" fill="#FF7400" width="12" height="13"/>
			<rect x="246" y="90" fill="#FF7400" width="12" height="13"/>
			<rect x="246" y="77" width="12" height="13"/>
			<rect x="246" y="65" fill="#B3B3B3" width="12" height="12"/>
			<rect x="246" y="52" fill="#3FA9F5" width="12" height="13"/>
			<rect x="246" y="39" fill="#FCEE21" width="12" height="13"/>
			<rect x="246" y="26" width="12" height="13"/>
			<rect x="233" y="297" width="13" height="13"/>
			<rect x="233" y="284" width="13" height="13"/>
			<rect x="233" y="271" width="13" height="13"/>
			<rect x="233" y="258" width="13" height="13"/>
			<rect x="233" y="245" fill="#E6E6E6" width="13" height="13"/>
			<rect x="233" y="232" fill="#FFFF00" width="13" height="13"/>
			<rect x="233" y="219" fill="#FFFF00" width="13" height="13"/>
			<rect x="233" y="206" fill="#E6E6E6" width="13" height="13"/>
			<rect x="233" y="194" fill="#E6E6E6" width="13" height="12"/>
			<rect x="233" y="181" fill="#E6E6E6" width="13" height="13"/>
			<rect x="233" y="168" fill="#FFD200" width="13" height="13"/>
			<rect x="233" y="155" fill="#FFD200" width="13" height="13"/>
			<rect x="233" y="142" fill="#FFD200" width="13" height="13"/>
			<rect x="233" y="129" fill="#E6E6E6" width="13" height="13"/>
			<rect x="233" y="116" fill="#FF9600" width="13" height="13"/>
			<rect x="233" y="103" fill="#FF9600" width="13" height="13"/>
			<rect x="233" y="90" fill="#E6E6E6" width="13" height="13"/>
			<rect x="233" y="77" width="13" height="13"/>
			<rect x="233" y="65" fill="#B3B3B3" width="13" height="12"/>
			<rect x="233" y="52" fill="#FCEE21" width="13" height="13"/>
			<rect x="233" y="39" fill="#3FA9F5" width="13" height="13"/>
			<rect x="233" y="26" width="13" height="13"/>
			<rect x="220" y="258" width="13" height="13"/>
			<rect x="220" y="245" fill="#E6E6E6" width="13" height="13"/>
			<rect x="220" y="232" fill="#FFFF00" width="13" height="13"/>
			<rect x="220" y="219" fill="#FFFFFF" width="13" height="13"/>
			<rect x="220" y="206" fill="#FFFF00" width="13" height="13"/>
			<rect x="220" y="194" fill="#E6E6E6" width="13" height="12"/>
			<rect x="220" y="181" fill="#E6E6E6" width="13" height="13"/>
			<rect x="220" y="168" fill="#E6E6E6" width="13" height="13"/>
			<rect x="220" y="155" fill="#E6E6E6" width="13" height="13"/>
			<rect x="220" y="142" fill="#E6E6E6" width="13" height="13"/>
			<rect x="220" y="129" fill="#FFB600" width="13" height="13"/>
			<rect x="220" y="116" fill="#FFB600" width="13" height="13"/>
			<rect x="220" y="103" fill="#E6E6E6" width="13" height="13"/>
			<rect x="220" y="90" fill="#E6E6E6" width="13" height="13"/>
			<rect x="220" y="77" width="13" height="13"/>
			<rect x="220" y="65" fill="#B3B3B3" width="13" height="12"/>
			<rect x="220" y="52" fill="#3FA9F5" width="13" height="13"/>
			<rect x="220" y="39" fill="#FCEE21" width="13" height="13"/>
			<rect x="220" y="26" width="13" height="13"/>
			<rect x="207" y="258" width="13" height="13"/>
			<rect x="207" y="245" fill="#E6E6E6" width="13" height="13"/>
			<rect x="207" y="232" fill="#FFFF00" width="13" height="13"/>
			<rect x="207" y="219" fill="#FFFFFF" width="13" height="13"/>
			<rect x="207" y="206" fill="#FFFFFF" width="13" height="13"/>
			<rect x="207" y="194" fill="#FFFF00" width="13" height="12"/>
			<rect x="207" y="181" fill="#E6E6E6" width="13" height="13"/>
			<rect x="207" y="168" fill="#E6E6E6" width="13" height="13"/>
			<rect x="207" y="155" fill="#E6E6E6" width="13" height="13"/>
			<rect x="207" y="142" fill="#FFD200" width="13" height="13"/>
			<rect x="207" y="129" fill="#E6E6E6" width="13" height="13"/>
			<rect x="207" y="116" fill="#E6E6E6" width="13" height="13"/>
			<rect x="207" y="103" fill="#E6E6E6" width="13" height="13"/>
			<rect x="207" y="90" fill="#E6E6E6" width="13" height="13"/>
			<rect x="207" y="77" width="13" height="13"/>
			<rect x="207" y="65" fill="#B3B3B3" width="13" height="12"/>
			<rect x="207" y="52" fill="#FCEE21" width="13" height="13"/>
			<rect x="207" y="39" fill="#3FA9F5" width="13" height="13"/>
			<rect x="207" y="26" width="13" height="13"/>
			<rect x="194" y="258" width="13" height="13"/>
			<rect x="194" y="245" fill="#E6E6E6" width="13" height="13"/>
			<rect x="194" y="232" fill="#FFFF00" width="13" height="13"/>
			<rect x="194" y="219" fill="#FFFFFF" width="13" height="13"/>
			<rect x="194" y="206" fill="#FFFFFF" width="13" height="13"/>
			<rect x="194" y="194" fill="#FFFFFF" width="13" height="12"/>
			<rect x="194" y="181" fill="#FFFF00" width="13" height="13"/>
			<rect x="194" y="168" fill="#E6E6E6" width="13" height="13"/>
			<rect x="194" y="155" fill="#E6E6E6" width="13" height="13"/>
			<rect x="194" y="142" fill="#E6E6E6" width="13" height="13"/>
			<rect x="194" y="129" fill="#E6E6E6" width="13" height="13"/>
			<rect x="194" y="116" fill="#E6E6E6" width="13" height="13"/>
			<rect x="194" y="103" fill="#E6E6E6" width="13" height="13"/>
			<rect x="194" y="90" fill="#E6E6E6" width="13" height="13"/>
			<rect x="194" y="77" width="13" height="13"/>
			<rect x="194" y="65" fill="#B3B3B3" width="13" height="12"/>
			<rect x="194" y="52" fill="#3FA9F5" width="13" height="13"/>
			<rect x="194" y="39" fill="#FCEE21" width="13" height="13"/>
			<rect x="194" y="26" width="13" height="13"/>
			<rect x="194" y="13" fill="#F7931E" width="13" height="13"/>
			<polygon fill="#F7931E" points="207,0.5 207,13 194,13 194,0.5 194,0 207,0 			"/>
			<rect x="181" y="258" width="13" height="13"/>
			<rect x="181" y="245" fill="#E6E6E6" width="13" height="13"/>
			<rect x="181" y="232" fill="#FFFF00" width="13" height="13"/>
			<rect x="181" y="219" fill="#FFFFFF" width="13" height="13"/>
			<rect x="181" y="206" fill="#FFFFFF" width="13" height="13"/>
			<rect x="181" y="194" fill="#FFFF00" width="13" height="12"/>
			<rect x="181" y="181" fill="#E6E6E6" width="13" height="13"/>
			<rect x="181" y="168" fill="#E6E6E6" width="13" height="13"/>
			<rect x="181" y="155" fill="#E6E6E6" width="13" height="13"/>
			<rect x="181" y="142" fill="#FFD200" width="13" height="13"/>
			<rect x="181" y="129" fill="#E6E6E6" width="13" height="13"/>
			<rect x="181" y="116" fill="#E6E6E6" width="13" height="13"/>
			<rect x="181" y="103" fill="#E6E6E6" width="13" height="13"/>
			<rect x="181" y="90" fill="#E6E6E6" width="13" height="13"/>
			<rect x="181" y="77" width="13" height="13"/>
			<rect x="181" y="65" fill="#B3B3B3" width="13" height="12"/>
			<rect x="181" y="52" fill="#FCEE21" width="13" height="13"/>
			<rect x="181" y="39" fill="#3FA9F5" width="13" height="13"/>
			<rect x="181" y="26" width="13" height="13"/>
			<rect x="181" y="13" fill="#F7931E" width="13" height="13"/>
			<polygon fill="#F7931E" points="194,0.5 194,13 181,13 181,0.5 181,0 194,0 			"/>
			<rect x="168" y="258" width="13" height="13"/>
			<rect x="168" y="245" fill="#E6E6E6" width="13" height="13"/>
			<rect x="168" y="232" fill="#FFFF00" width="13" height="13"/>
			<rect x="168" y="219" fill="#FFFFFF" width="13" height="13"/>
			<rect x="168" y="206" fill="#FFFF00" width="13" height="13"/>
			<rect x="168" y="194" fill="#E6E6E6" width="13" height="12"/>
			<rect x="168" y="181" fill="#E6E6E6" width="13" height="13"/>
			<rect x="168" y="168" fill="#E6E6E6" width="13" height="13"/>
			<rect x="168" y="155" fill="#E6E6E6" width="13" height="13"/>
			<rect x="168" y="142" fill="#E6E6E6" width="13" height="13"/>
			<rect x="168" y="129" fill="#FFB600" width="13" height="13"/>
			<rect x="168" y="116" fill="#FFB600" width="13" height="13"/>
			<rect x="168" y="103" fill="#E6E6E6" width="13" height="13"/>
			<rect x="168" y="90" fill="#E6E6E6" width="13" height="13"/>
			<rect x="168" y="77" width="13" height="13"/>
			<rect x="168" y="65" fill="#B3B3B3" width="13" height="12"/>
			<rect x="168" y="52" fill="#3FA9F5" width="13" height="13"/>
			<rect x="168" y="39" fill="#FCEE21" width="13" height="13"/>
			<rect x="168" y="26" width="13" height="13"/>
			<rect x="155" y="335" width="13" height="13"/>
			<rect x="155" y="323" width="13" height="12"/>
			<rect x="155" y="310" width="13" height="13"/>
			<rect x="155" y="297" width="13" height="13"/>
			<rect x="155" y="284" width="13" height="13"/>
			<rect x="155" y="271" width="13" height="13"/>
			<rect x="155" y="258" width="13" height="13"/>
			<rect x="155" y="245" fill="#E6E6E6" width="13" height="13"/>
			<rect x="155" y="232" fill="#FFFF00" width="13" height="13"/>
			<rect x="155" y="219" fill="#FFFF00" width="13" height="13"/>
			<rect x="155" y="206" fill="#E6E6E6" width="13" height="13"/>
			<rect x="155" y="194" fill="#E6E6E6" width="13" height="12"/>
			<rect x="155" y="181" fill="#E6E6E6" width="13" height="13"/>
			<rect x="155" y="168" fill="#FFD200" width="13" height="13"/>
			<rect x="155" y="155" fill="#FFD200" width="13" height="13"/>
			<rect x="155" y="142" fill="#FFD200" width="13" height="13"/>
			<rect x="155" y="129" fill="#E6E6E6" width="13" height="13"/>
			<rect x="155" y="116" fill="#FF9600" width="13" height="13"/>
			<rect x="155" y="103" fill="#FF9600" width="13" height="13"/>
			<rect x="155" y="90" fill="#E6E6E6" width="13" height="13"/>
			<rect x="155" y="77" width="13" height="13"/>
			<rect x="155" y="65" fill="#B3B3B3" width="13" height="12"/>
			<rect x="155" y="52" fill="#FCEE21" width="13" height="13"/>
			<rect x="155" y="39" fill="#3FA9F5" width="13" height="13"/>
			<rect x="155" y="26" width="13" height="13"/>
			<rect x="142" y="335" width="13" height="13"/>
			<rect x="142" y="323" fill="#FFFF00" width="13" height="12"/>
			<rect x="142" y="310" fill="#FFFF00" width="13" height="13"/>
			<rect x="142" y="297" fill="#FFFF00" width="13" height="13"/>
			<rect x="142" y="284" fill="#FFFF00" width="13" height="13"/>
			<rect x="142" y="271" fill="#FFFF00" width="13" height="13"/>
			<rect x="142" y="258" width="13" height="13"/>
			<rect x="142" y="245" fill="#E6E6E6" width="13" height="13"/>
			<rect x="142" y="232" fill="#FFFF00" width="13" height="13"/>
			<rect x="142" y="219" fill="#E6E6E6" width="13" height="13"/>
			<rect x="142" y="206" fill="#E6E6E6" width="13" height="13"/>
			<rect x="142" y="194" fill="#E6E6E6" width="13" height="12"/>
			<rect x="142" y="181" fill="#E6E6E6" width="13" height="13"/>
			<rect x="142" y="168" fill="#FFD200" width="13" height="13"/>
			<rect x="142" y="155" fill="#FFD200" width="13" height="13"/>
			<rect x="142" y="142" fill="#FFD200" width="13" height="13"/>
			<rect x="142" y="129" fill="#E6E6E6" width="13" height="13"/>
			<rect x="142" y="116" fill="#E6E6E6" width="13" height="13"/>
			<rect x="142" y="103" fill="#FF7400" width="13" height="13"/>
			<rect x="142" y="90" fill="#FF7400" width="13" height="13"/>
			<rect x="142" y="77" width="13" height="13"/>
			<rect x="142" y="65" fill="#B3B3B3" width="13" height="12"/>
			<rect x="142" y="52" fill="#3FA9F5" width="13" height="13"/>
			<rect x="142" y="39" fill="#FCEE21" width="13" height="13"/>
			<rect x="142" y="26" width="13" height="13"/>
			<rect x="129" y="335" width="13" height="13"/>
			<rect x="129" y="323" fill="#29ABE2" width="13" height="12"/>
			<rect x="129" y="310" fill="#29ABE2" width="13" height="13"/>
			<rect x="129" y="297" fill="#29ABE2" width="13" height="13"/>
			<rect x="129" y="284" fill="#FFFF00" width="13" height="13"/>
			<rect x="129" y="271" fill="#29ABE2" width="13" height="13"/>
			<rect x="129" y="258" width="13" height="13"/>
			<rect x="129" y="245" fill="#E6E6E6" width="13" height="13"/>
			<rect x="129" y="232" fill="#E6E6E6" width="13" height="13"/>
			<rect x="129" y="219" fill="#E6E6E6" width="13" height="13"/>
			<rect x="129" y="206" fill="#E6E6E6" width="13" height="13"/>
			<rect x="129" y="194" fill="#E6E6E6" width="13" height="12"/>
			<rect x="129" y="181" fill="#E6E6E6" width="13" height="13"/>
			<rect x="129" y="168" fill="#E6E6E6" width="13" height="13"/>
			<rect x="129" y="155" fill="#E6E6E6" width="13" height="13"/>
			<rect x="129" y="142" fill="#E6E6E6" width="13" height="13"/>
			<rect x="129" y="129" fill="#E6E6E6" width="13" height="13"/>
			<rect x="129" y="116" fill="#E6E6E6" width="13" height="13"/>
			<rect x="129" y="103" fill="#FF7400" width="13" height="13"/>
			<rect x="129" y="90" fill="#FF7400" width="13" height="13"/>
			<rect x="129" y="77" fill="#FF7400" width="13" height="13"/>
			<rect x="129" y="65" fill="#B3B3B3" width="13" height="12"/>
			<rect x="129" y="52" fill="#FCEE21" width="13" height="13"/>
			<rect x="129" y="39" fill="#3FA9F5" width="13" height="13"/>
			<rect x="129" y="26" width="13" height="13"/>
			<rect x="117" y="335" width="12" height="13"/>
			<rect x="117" y="323" fill="#FFFF00" width="12" height="12"/>
			<rect x="117" y="310" fill="#FFFF00" width="12" height="13"/>
			<rect x="117" y="297" fill="#FFFF00" width="12" height="13"/>
			<rect x="117" y="284" fill="#FFFF00" width="12" height="13"/>
			<rect x="117" y="271" fill="#FFFF00" width="12" height="13"/>
			<rect x="117" y="258" width="12" height="13"/>
			<rect x="117" y="245" fill="#E6E6E6" width="12" height="13"/>
			<rect x="117" y="232" fill="#E6E6E6" width="12" height="13"/>
			<rect x="117" y="219" fill="#E6E6E6" width="12" height="13"/>
			<rect x="117" y="206" fill="#E6E6E6" width="12" height="13"/>
			<rect x="117" y="194" fill="#E6E6E6" width="12" height="12"/>
			<rect x="117" y="181" fill="#E6E6E6" width="12" height="13"/>
			<rect x="117" y="168" fill="#E6E6E6" width="12" height="13"/>
			<rect x="117" y="155" fill="#E6E6E6" width="12" height="13"/>
			<rect x="117" y="142" fill="#E6E6E6" width="12" height="13"/>
			<rect x="117" y="129" fill="#E6E6E6" width="12" height="13"/>
			<rect x="117" y="116" fill="#E6E6E6" width="12" height="13"/>
			<rect x="117" y="103" fill="#E6E6E6" width="12" height="13"/>
			<rect x="117" y="90" fill="#FF7400" width="12" height="13"/>
			<rect x="117" y="77" fill="#FF7400" width="12" height="13"/>
			<rect x="117" y="65" fill="#B3B3B3" width="12" height="12"/>
			<rect x="117" y="52" fill="#B3B3B3" width="12" height="13"/>
			<rect x="117" y="39" fill="#B3B3B3" width="12" height="13"/>
			<rect x="117" y="26" width="12" height="13"/>
			<rect x="104" y="335" width="13" height="13"/>
			<rect x="104" y="323" width="13" height="12"/>
			<rect x="104" y="310" width="13" height="13"/>
			<rect x="104" y="297" width="13" height="13"/>
			<rect x="104" y="284" width="13" height="13"/>
			<rect x="104" y="271" width="13" height="13"/>
			<rect x="104" y="258" width="13" height="13"/>
			<rect x="104" y="245" width="13" height="13"/>
			<rect x="104" y="232" fill="#E6E6E6" width="13" height="13"/>
			<rect x="104" y="219" fill="#E6E6E6" width="13" height="13"/>
			<rect x="104" y="206" fill="#E6E6E6" width="13" height="13"/>
			<rect x="104" y="194" fill="#E6E6E6" width="13" height="12"/>
			<rect x="104" y="181" fill="#E6E6E6" width="13" height="13"/>
			<rect x="104" y="168" fill="#E6E6E6" width="13" height="13"/>
			<rect x="104" y="155" fill="#E6E6E6" width="13" height="13"/>
			<rect x="104" y="142" fill="#E6E6E6" width="13" height="13"/>
			<rect x="104" y="129" fill="#E6E6E6" width="13" height="13"/>
			<rect x="104" y="116" fill="#E6E6E6" width="13" height="13"/>
			<rect x="104" y="103" fill="#E6E6E6" width="13" height="13"/>
			<rect x="104" y="90" fill="#E6E6E6" width="13" height="13"/>
			<rect x="104" y="77" width="13" height="13"/>
			<rect x="104" y="65" fill="#B3B3B3" width="13" height="12"/>
			<rect x="104" y="52" fill="#808080" width="13" height="13"/>
			<rect x="104" y="39" fill="#808080" width="13" height="13"/>
			<rect x="104" y="26" width="13" height="13"/>
			<rect x="91" y="323" fill="#4D4D4D" width="13" height="12"/>
			<rect x="91" y="310" fill="#4D4D4D" width="13" height="13"/>
			<rect x="91" y="297" fill="#4D4D4D" width="13" height="13"/>
			<rect x="91" y="271" width="13" height="13"/>
			<rect x="91" y="258" fill="#0000FF" width="13" height="13"/>
			<rect x="91" y="245" width="13" height="13"/>
			<rect x="91" y="232" width="13" height="13"/>
			<rect x="91" y="219" width="13" height="13"/>
			<rect x="91" y="206" width="13" height="13"/>
			<rect x="91" y="194" width="13" height="12"/>
			<rect x="91" y="181" width="13" height="13"/>
			<rect x="91" y="168" width="13" height="13"/>
			<rect x="91" y="155" width="13" height="13"/>
			<rect x="91" y="142" width="13" height="13"/>
			<rect x="91" y="129" fill="#E6E6E6" width="13" height="13"/>
			<rect x="91" y="116" fill="#E6E6E6" width="13" height="13"/>
			<rect x="91" y="103" fill="#E6E6E6" width="13" height="13"/>
			<rect x="91" y="90" fill="#E6E6E6" width="13" height="13"/>
			<rect x="91" y="77" width="13" height="13"/>
			<rect x="91" y="65" fill="#B3B3B3" width="13" height="12"/>
			<rect x="91" y="52" fill="#3FA9F5" width="13" height="13"/>
			<rect x="91" y="39" fill="#3FA9F5" width="13" height="13"/>
			<rect x="91" y="26" width="13" height="13"/>
			<rect x="78" y="297" fill="#C2C2C2" width="13" height="13"/>
			<rect x="78" y="284" fill="#C2C2C2" width="13" height="13"/>
			<rect x="78" y="271" width="13" height="13"/>
			<rect x="78" y="258" fill="#0000FF" width="13" height="13"/>
			<rect x="78" y="245" fill="#0000FF" width="13" height="13"/>
			<rect x="78" y="232" width="13" height="13"/>
			<rect x="78" y="219" fill="#B3B3B3" width="13" height="13"/>
			<rect x="78" y="206" fill="#B3B3B3" width="13" height="13"/>
			<rect x="78" y="194" fill="#B3B3B3" width="13" height="12"/>
			<rect x="78" y="181" fill="#00FFFF" width="13" height="13"/>
			<rect x="78" y="168" fill="#00FFFF" width="13" height="13"/>
			<rect x="78" y="155" fill="#B3B3B3" width="13" height="13"/>
			<rect x="78" y="142" width="13" height="13"/>
			<rect x="78" y="129" width="13" height="13"/>
			<rect x="78" y="116" width="13" height="13"/>
			<rect x="78" y="103" width="13" height="13"/>
			<rect x="78" y="90" width="13" height="13"/>
			<rect x="78" y="77" width="13" height="13"/>
			<rect x="78" y="65" width="13" height="12"/>
			<rect x="78" y="52" fill="#B3B3B3" width="13" height="13"/>
			<rect x="78" y="39" fill="#B3B3B3" width="13" height="13"/>
			<rect x="78" y="26" width="13" height="13"/>
			<rect x="65" y="323" fill="#4D4D4D" width="13" height="12"/>
			<rect x="65" y="310" fill="#4D4D4D" width="13" height="13"/>
			<rect x="65" y="297" fill="#4D4D4D" width="13" height="13"/>
			<rect x="65" y="284" fill="#C2C2C2" width="13" height="13"/>
			<rect x="65" y="271" width="13" height="13"/>
			<rect x="65" y="258" fill="#0000FF" width="13" height="13"/>
			<rect x="65" y="245" fill="#0000FF" width="13" height="13"/>
			<rect x="65" y="232" width="13" height="13"/>
			<rect x="65" y="219" fill="#00FFFF" width="13" height="13"/>
			<rect x="65" y="206" fill="#00FFFF" width="13" height="13"/>
			<rect x="65" y="194" fill="#B3B3B3" width="13" height="12"/>
			<rect x="65" y="181" fill="#00FFFF" width="13" height="13"/>
			<rect x="65" y="168" fill="#B3B3B3" width="13" height="13"/>
			<rect x="65" y="155" fill="#00FFFF" width="13" height="13"/>
			<rect x="65" y="142" fill="#00FFFF" width="13" height="13"/>
			<rect x="65" y="129" fill="#00FFFF" width="13" height="13"/>
			<rect x="65" y="116" width="13" height="13"/>
			<rect x="65" y="103" fill="#FFFF00" width="13" height="13"/>
			<rect x="65" y="65" width="13" height="12"/>
			<rect x="65" y="52" width="13" height="13"/>
			<rect x="65" y="39" width="13" height="13"/>
			<rect x="65" y="26" width="13" height="13"/>
			<rect x="52" y="323" fill="#4D4D4D" width="13" height="12"/>
			<rect x="52" y="310" fill="#4D4D4D" width="13" height="13"/>
			<rect x="52" y="297" fill="#4D4D4D" width="13" height="13"/>
			<rect x="52" y="284" fill="#C2C2C2" width="13" height="13"/>
			<rect x="52" y="271" width="13" height="13"/>
			<rect x="52" y="258" fill="#0000FF" width="13" height="13"/>
			<rect x="52" y="245" fill="#0000FF" width="13" height="13"/>
			<rect x="52" y="232" width="13" height="13"/>
			<rect x="52" y="219" fill="#B3B3B3" width="13" height="13"/>
			<rect x="52" y="206" fill="#00FFFF" width="13" height="13"/>
			<rect x="52" y="194" fill="#00FFFF" width="13" height="12"/>
			<rect x="52" y="181" fill="#00FFFF" width="13" height="13"/>
			<rect x="52" y="168" fill="#B3B3B3" width="13" height="13"/>
			<rect x="52" y="155" fill="#B3B3B3" width="13" height="13"/>
			<rect x="52" y="142" fill="#B3B3B3" width="13" height="13"/>
			<rect x="52" y="129" width="13" height="13"/>
			<rect x="52" y="116" fill="#FFFF00" width="13" height="13"/>
			<rect x="52" y="103" fill="#FFFF00" width="13" height="13"/>
			<rect x="52" y="90" fill="#FFFF00" width="13" height="13"/>
			<rect x="39" y="297" fill="#C2C2C2" width="13" height="13"/>
			<rect x="39" y="284" fill="#C2C2C2" width="13" height="13"/>
			<rect x="39" y="271" width="13" height="13"/>
			<rect x="39" y="258" fill="#0000FF" width="13" height="13"/>
			<rect x="39" y="245" fill="#0000FF" width="13" height="13"/>
			<rect x="39" y="232" width="13" height="13"/>
			<rect x="39" y="219" width="13" height="13"/>
			<rect x="39" y="206" width="13" height="13"/>
			<rect x="39" y="194" width="13" height="12"/>
			<rect x="39" y="181" width="13" height="13"/>
			<rect x="39" y="168" width="13" height="13"/>
			<rect x="39" y="155" width="13" height="13"/>
			<rect x="39" y="142" width="13" height="13"/>
			<rect x="39" y="129" fill="#FFFF00" width="13" height="13"/>
			<rect x="39" y="116" fill="#FFFF00" width="13" height="13"/>
			<rect x="39" y="103" fill="#FFFF00" width="13" height="13"/>
			<rect x="39" y="90" fill="#FFFF00" width="13" height="13"/>
			<rect x="39" y="77" fill="#FFFF00" width="13" height="13"/>
			<rect x="26" y="323" fill="#4D4D4D" width="13" height="12"/>
			<rect x="26" y="310" fill="#4D4D4D" width="13" height="13"/>
			<rect x="26" y="297" fill="#4D4D4D" width="13" height="13"/>
			<rect x="26" y="271" width="13" height="13"/>
			<rect x="26" y="258" fill="#0000FF" width="13" height="13"/>
			<rect x="26" y="245" fill="#0000FF" width="13" height="13"/>
			<rect x="26" y="232" width="13" height="13"/>
			<rect x="26" y="181" fill="#FFFF00" width="13" height="13"/>
			<rect x="26" y="168" fill="#FFFF00" width="13" height="13"/>
			<rect x="26" y="155" fill="#FFFF00" width="13" height="13"/>
			<rect x="26" y="142" fill="#FFFF00" width="13" height="13"/>
			<rect x="26" y="103" fill="#FFFF00" width="13" height="13"/>
			<rect x="26" y="90" fill="#FFFF00" width="13" height="13"/>
			<rect x="26" y="77" fill="#FFFF00" width="13" height="13"/>
			<rect x="26" y="65" fill="#FFFF00" width="13" height="12"/>
			<rect x="13" y="323" fill="#4D4D4D" width="13" height="12"/>
			<rect x="13" y="310" fill="#4D4D4D" width="13" height="13"/>
			<rect x="13" y="258" width="13" height="13"/>
			<rect x="13" y="245" width="13" height="13"/>
			<rect x="13" y="181" fill="#FFFF00" width="13" height="13"/>
			<rect x="13" y="168" fill="#FFFF00" width="13" height="13"/>
			<rect x="13" y="155" fill="#FFFF00" width="13" height="13"/>
			<rect x="13" y="77" fill="#FFFF00" width="13" height="13"/>
			<rect x="13" y="65" fill="#FFFF00" width="13" height="12"/>
		</g>
		<g>
		</g>
	</g>
</g>
</svg>
